<?xml version="1.0" encoding="iso-8859-1"?><!DOCTYPE svg  PUBLIC '-//W3C//DTD SVG 1.1//EN'  'http://www.w3.org/Graphics/SVG/1.1/DTD/svg11.dtd'>
<!-- Generator: Adobe Illustrator 19.0.0, SVG Export Plug-In . SVG Version: 6.00 Build 0)  -->
<svg version="1.1" id="main"
    xmlns="http://www.w3.org/2000/svg" viewBox="0 0 56 51">
    <g id="Page-1" fill-rule="evenodd">
        <g id="002---API">
            <path id="Shape" d="m28 40c4.8376511-.0226703 9.2671152-2.7156343 11.5138-7h-23.0276c2.2466848 4.2843657 6.6761489 6.9773297 11.5138 7z"/>
            <path id="Shape" d="m32 17c-.0011025-1.1041125-.8958875-1.9988975-2-2h-3v4h3c1.1041125-.0011025 1.9988975-.8958875 2-2z"/>
            <path id="Shape" d="m19 17.163-.946 2.837h1.892z"/>
            <path id="Shape" d="m11 33c-1.00472258-.0035383-2.00562061-.1239816-2.9825-.3589l-3.0875 1.272 2.4765 6.0054 4.2212-1.7432c.4326366-.1781903.9309959-.0328355 1.2.35 1.2327529 1.7608218 2.7643148 3.2921806 4.5253 4.5247.3843921.2686558.5302209.7684915.3506 1.2017l-1.7422 4.2119 6.001 2.4878 1.7437-4.2144c.1793941-.4337949.636377-.6844159 1.0986-.6025 2.1128591.3764434 4.2758861.3734635 6.3877-.0088.4624125-.0824756.9200919.1671677 1.1011.6006l1.7529 4.2216 5.9927-2.4848-1.7432-4.2222c-.1792698-.4345086-.0317325-.9352197.3545-1.2031 1.7615646-1.2263089 3.2924569-2.7543912 4.522-4.5137.268826-.3831334.7677384-.5280674 1.2-.3486l4.22 1.7461 2.49-6.0044-2.2452-.9346c-.1127.004-.2232.0171-.3368.0171h-6.7714c-2.3770663 5.4651931-7.7692366 9.0000202-13.729 9.0000202s-11.3519337-3.5348271-13.729-9.0000202z"/>
            <path id="Shape" d="m11 31h37.5c4.1421356 0 7.5-3.3578644 7.5-7.5s-3.3578644-7.5-7.5-7.5h-.1c-.4239029-.0000114-.8017403-.2672906-.9429-.667-1.3462715-3.8181038-4.9667986-6.36145255-9.0152-6.333-.0977 0-.1948.0005-.292.0073-.4387092.02791276-.8450022-.23142062-1.0044-.6411-1.9230599-5.04284193-6.7623782-8.37262753-12.1594493-8.36654194-5.3970712.00608558-10.228868 3.34677606-12.1405507 8.39394194-.1595185.42416504-.5847748.68763013-1.0356.6416-.2692044-.02532445-.5395136-.03707267-.8099-.0352-6.07513225 0-11 4.9248678-11 11s4.92486775 11 11 11zm24-18h6c.5522847 0 1 .4477153 1 1s-.4477153 1-1 1h-2v10h2c.5522847 0 1 .4477153 1 1s-.4477153 1-1 1h-6c-.5522847 0-1-.4477153-1-1s.4477153-1 1-1h2v-10h-2c-.5522847 0-1-.4477153-1-1s.4477153-1 1-1zm-9 0h4c2.209139 0 4 1.790861 4 4s-1.790861 4-4 4h-3v5c0 .5522847-.4477153 1-1 1s-1-.4477153-1-1v-12c0-.5522847.4477153-1 1-1zm-9.9487-4.3164c2.2026-6.6074 7.7153-6.6836 7.9487-6.6836.5522847-.00135308 1.0010969.44526526 1.00245.99755s-.4452653 1.00109689-.99755 1.00245c-.1939.0029-4.3267.1274-6.0562 5.3164-.1130388.33893787-.3983122.59182387-.7483604.6633983-.3500483.0715744-.7116907-.04903657-.9487-.3164-.2370094-.26736343-.3133784-.64086043-.2003396-.9797983zm-2 17 4-12c.0076-.0229.0254-.0383.0345-.06.1082098-.2388358.2996638-.430112.5386-.5381.0216-.0089.0367-.0265.0592-.034.0372493-.0069396.074885-.0116148.1127-.014.133815-.0336664.273885-.0336664.4077 0 .0377137.0023515.0752496.0069934.1124.0139.0225.0075.0375.025.0591.0339.2388118.1082522.4302261.2994888.5387.5382.0091.0219.0269.0373.0345.06l4 12c.1747429.5239525-.1083475 1.0903571-.6323 1.2651s-1.0903571-.1083475-1.2651-.6323l-1.4388-4.3163h-3.225l-1.4388 4.3164c-.1747429.5239525-.7411475.8070429-1.2651.6323s-.8070429-.7411475-.6323-1.2651zm-6.8887-13.8179c.32307527-.1526417.70304253-.1213299.99677177.0821406.29372925.2034706.45659603.5481878.42725.9043-.02934602.3561123-.2464465.6695177-.56952177.8221594-2.44487847 1.1597053-4.00710635 3.6197349-4.0171 6.3257-.00614342 1.5920592.54061699 3.1368721 1.5469 4.3706.23304025.2767347.29843526.6577607.17100444.9963626-.12743081.3386019-.42781283.5819699-.78548284.6363943s-.71684434-.0885831-.9392216-.3739569c-1.73245124-2.1445708-2.38301828-4.9664435-1.76436752-7.6530478.61865076-2.6866042 2.43785594-4.9397566 4.93376752-6.1106522z"/>
        </g>
    </g>
</svg>
