<?xml version="1.0" encoding="iso-8859-1"?><!DOCTYPE svg  PUBLIC '-//W3C//DTD SVG 1.1//EN'  'http://www.w3.org/Graphics/SVG/1.1/DTD/svg11.dtd'>
<!-- Generator: Adobe Illustrator 19.0.0, SVG Export Plug-In . SVG Version: 6.00 Build 0)  -->
<svg version="1.1" id="main"
	xmlns="http://www.w3.org/2000/svg"
	xmlns:xlink="http://www.w3.org/1999/xlink" x="0px" y="0px" viewBox="0 0 511.998 511.998" style="enable-background:new 0 0 511.998 511.998;" xml:space="preserve">
	<circle style="fill:#21D0C3;" cx="255.999" cy="255.999" r="255.999"/>
	<ellipse style="fill:#15BDB2;" cx="255.999" cy="421.645" rx="182.283" ry="14.369"/>
	<path style="fill:#666666;" d="M65.98,67.221h380.036c12.486,0,22.702,10.217,22.702,22.702v234.106H43.279V89.922
	C43.279,77.436,53.494,67.221,65.98,67.221z"/>
	<path style="fill:#DCE3DB;" d="M58.695,308.616h394.608V89.925c0-3.977-3.31-7.287-7.285-7.287H65.982
	c-3.977,0-7.285,3.31-7.285,7.287v218.692h-0.002V308.616z"/>
	<g>
		<path style="fill:#FFFFFF;" d="M468.717,324.031v24.826c0,12.489-11.26,22.702-25.025,22.702H68.304
		c-13.765,0-25.025-10.213-25.025-22.702v-24.826H468.717z"/>
		<path style="fill:#FFFFFF;" d="M141.238,115.527h229.525h34.166c4.141,0,7.527,3.388,7.527,7.527v44.795v140.767H99.544
		L99.542,167.85v-44.795c0-4.141,3.386-7.527,7.527-7.527h34.166H141.238z"/>
	</g>
	<path style="fill:#828282;" d="M107.071,115.527h297.857c4.141,0,7.527,3.386,7.527,7.527v15.053H99.544v-15.053
	C99.544,118.914,102.931,115.527,107.071,115.527z"/>
	<path style="fill:#FFFFFF;" d="M189.3,123.326h163.622c1.114,0,2.022,0.913,2.022,2.022v3.753c0,1.111-0.91,2.022-2.022,2.022H189.3
	c-1.109,0-2.02-0.908-2.02-2.022v-3.753C187.279,124.234,188.188,123.326,189.3,123.326z"/>
	<path style="fill:#21D0C3;" d="M117.333,121.983c2.392,0,4.333,1.938,4.333,4.335c0,2.394-1.942,4.333-4.333,4.333
	c-2.396,0-4.337-1.938-4.337-4.333C112.996,123.921,114.938,121.983,117.333,121.983z"/>
	<path style="fill:#FAD24D;" d="M134.441,121.983c2.396,0,4.335,1.938,4.335,4.335c0,2.394-1.938,4.333-4.335,4.333
	c-2.392,0-4.333-1.938-4.333-4.333C130.108,123.921,132.049,121.983,134.441,121.983z"/>
	<path style="fill:#FF5B62;" d="M151.552,121.983c2.392,0,4.333,1.938,4.333,4.335c0,2.394-1.942,4.333-4.333,4.333
	c-2.396,0-4.337-1.938-4.337-4.333C147.215,123.921,149.158,121.983,151.552,121.983z"/>
	<g>
		<rect x="373.699" y="160.915" style="fill:#ED4C54;" width="7.146" height="109.206"/>
		<rect x="387.991" y="160.915" style="fill:#ED4C54;" width="7.146" height="109.206"/>
	</g>
	<path style="fill:#FFBA1B;" d="M384.43,297.359l10.707-27.235h-21.438L384.43,297.359z"/>
	<rect x="377.272" y="160.915" style="fill:#FF5B62;" width="14.29" height="109.206"/>
	<rect x="373.699" y="157.462" style="fill:#FFFFFF;" width="21.438" height="3.448"/>
	<path style="fill:#21D0C3;" d="M379.816,145.229h9.203c3.364,0,6.116,2.752,6.116,6.116v6.118h-21.438v-6.118
	c0-3.362,2.752-6.116,6.116-6.116H379.816z"/>
	<path style="fill:#828282;" d="M383.99,299.639h0.893l3.565-12.177h-7.994L383.99,299.639z"/>
	<path style="fill:#ECF0F1;" d="M131.252,152.397h221.435v59.355H131.252V152.397z M145.807,223.165h192.327v4.566H145.807V223.165z
	 M145.807,282.518h87.848v4.566h-87.848L145.807,282.518L145.807,282.518z M145.807,267.679h192.327v4.566H145.807V267.679z
	 M145.807,252.84h160.098v4.566H145.807V252.84z M145.807,238.002h192.327v4.566H145.807V238.002z"/>
	<path style="fill:#C2C2C4;" d="M305.065,407.272l36.095,11.566H170.836l29.124-11.566V371.56h105.105V407.272z"/>
	<path style="fill:#B6B6B8;" d="M305.065,407.272L199.96,371.56h105.105V407.272z"/>
	<path style="fill:#ECF0F1;" d="M199.96,407.272h105.105l36.095,11.566v4.981H256h-85.164v-4.981L199.96,407.272z"/>
	<circle style="fill:#B6B6B8;" cx="255.999" cy="347.799" r="7.816"/>
	<g>
	</g>
	<g>
	</g>
	<g>
	</g>
	<g>
	</g>
	<g>
	</g>
	<g>
	</g>
	<g>
	</g>
	<g>
	</g>
	<g>
	</g>
	<g>
	</g>
	<g>
	</g>
	<g>
	</g>
	<g>
	</g>
	<g>
	</g>
	<g>
	</g>
</svg>
