<?xml version="1.0" encoding="UTF-8" standalone="no"?><!DOCTYPE svg  PUBLIC '-//W3C//DTD SVG 1.1//EN'  'http://www.w3.org/Graphics/SVG/1.1/DTD/svg11.dtd'>
<svg id="main" enable-background="new 0 0 24 24" viewBox="0 0 24 24"
    xmlns="http://www.w3.org/2000/svg"
    xmlns:xlink="http://www.w3.org/1999/xlink">
    <path d="m15 17h-.76c-2.701 0-4.285-.674-4.988-1.076-.155-.088-.251-.253-.252-.431l-.03-5.65c-.001-.174.088-.336.235-.427.407-.254 1.735-1.166 1.735-2.246 0-.617 0-1.9 1.2-1.9.804 0 1.67.738 1.67 2.36 0 .553-.095 1.017-.207 1.37h1.987c1.329 0 2.41 1.081 2.41 2.41 0 .032-.124 2.541-.61 3.563l.044.007c-.188 1.152-1.234 2.02-2.434 2.02z" fill="#ffcc80"/>
    <path d="m8.5 17h-1c-.827 0-1.5-.673-1.5-1.5v-5c0-.827.673-1.5 1.5-1.5h1c.827 0 1.5.673 1.5 1.5v5c0 .827-.673 1.5-1.5 1.5z" fill="#2196f3"/>
    <path d="m17.855 13h-7.855v2.5c0 .256-.064.497-.178.708.857.374 2.291.792 4.418.792h.76c1.2 0 2.246-.868 2.434-2.02l-.044-.007c.224-.471.371-1.258.465-1.973z" fill="#deb26f"/>
    <path d="m10 13h-4v2.5c0 .827.673 1.5 1.5 1.5h1c.571 0 1.069-.321 1.322-.792.114-.211.178-.452.178-.708z" fill="#1d83d4"/>
    <path d="m1.5 12c0-5.79 4.71-10.5 10.5-10.5 2.08 0 4.055.607 5.732 1.708l-1.512 1.512c-.471.47-.138 1.28.53 1.28h4.5c.414 0 .75-.336.75-.75v-4.5c0-.665-.806-1.004-1.28-.53l-1.914 1.914c-1.971-1.369-4.322-2.134-6.806-2.134-6.617 0-12 5.383-12 12 0 1.173.173 2.339.513 3.466.119.395.534.621.935.502.396-.12.621-.538.501-.935-.298-.987-.449-2.007-.449-3.033z" fill="#607d8b"/>
    <path d="m23.487 8.534c-.12-.397-.535-.623-.935-.502-.396.12-.621.538-.501.935.298.987.449 2.007.449 3.033 0 5.79-4.71 10.5-10.5 10.5-2.075 0-4.048-.604-5.722-1.701l1.505-1.522c.468-.473.132-1.277-.533-1.277h-4.5c-.2 0-.393.08-.533.223-.141.142-.219.335-.217.535l.05 4.5c.006.666.819.99 1.283.519l1.878-1.898c1.967 1.361 4.312 2.121 6.789 2.121 6.617 0 12-5.383 12-12 0-1.173-.173-2.339-.513-3.466z" fill="#607d8b"/>
    <g fill="#546d79">
        <path d="m12 0c-6.617 0-12 5.383-12 12 0 1.173.173 2.339.513 3.466.097.324.394.534.718.534.071 0 .144-.01.216-.032.396-.12.621-.538.501-.935-.297-.987-.448-2.007-.448-3.033 0-5.79 4.71-10.5 10.5-10.5z"/>
        <path d="m7.25 18h-4.5c-.2 0-.393.08-.533.223-.141.142-.219.335-.217.535l.05 4.5c.004.449.374.742.757.742.186 0 .375-.069.526-.223l1.878-1.898c1.967 1.361 4.312 2.121 6.789 2.121v-1.5c-2.075 0-4.048-.604-5.722-1.701l1.505-1.522c.468-.473.132-1.277-.533-1.277z"/>
    </g>
</svg>
