<?xml version="1.0" standalone="no"?>
<!DOCTYPE svg PUBLIC "-//W3C//DTD SVG 20010904//EN" "http://www.w3.org/TR/2001/REC-SVG-20010904/DTD/svg10.dtd">
<svg version="1.0" id="main"
    xmlns="http://www.w3.org/2000/svg" viewBox="0 0 96.000000 96.000000" preserveAspectRatio="xMidYMid meet">
    <g transform="translate(0.000000,96.000000) scale(0.100000,-0.100000)" stroke="none">
        <path d="M386 870 c-63 -16 -153 -70 -197 -117 -22 -24 -55 -74 -72 -111 -29 -61 -32 -76 -32 -163 0 -90 2 -99 37 -171 45 -91 103 -147 196 -191 61 -29 76 -32 162 -32 86 0 101 3 162 32 93 44 151 100 196 191 35 72 37 81 37 172 0 91 -2 100 -37 172 -68 136 -188 217 -336 224 -42 2 -94 -1 -116 -6z m173 -128 c58 -43 64 -140 12 -193 -76 -75 -204 -30 -217 77 -14 110 115 183 205 116z m75 -371 c133 -47 128 -103 -18 -179 -43 -22 -64 -26 -136 -26 -92 0 -135 15 -212 76 -58 45 -48 88 27 119 108 43 235 47 339 10z"/>
    </g>
</svg>
