<?xml version="1.0" standalone="no"?>
<!DOCTYPE svg PUBLIC "-//W3C//DTD SVG 20010904//EN" "http://www.w3.org/TR/2001/REC-SVG-20010904/DTD/svg10.dtd">
<svg version="1.0" id="main"
    xmlns="http://www.w3.org/2000/svg" viewBox="0 0 96.000000 96.000000" preserveAspectRatio="xMidYMid meet">
    <g transform="translate(0.000000,96.000000) scale(0.100000,-0.100000)" stroke="none">
        <path d="M412 869 c-48 -14 -109 -80 -123 -131 -23 -89 12 -182 88 -229 57 -36 154 -34 210 3 62 41 88 90 88 168 0 77 -26 127 -85 166 -43 29 -125 39 -178 23z"/>
        <path d="M188 370 c-28 -29 -30 -35 -26 -86 4 -41 12 -63 35 -92 119 -148 447 -148 566 0 23 29 31 51 35 92 4 51 2 57 -26 86 l-30 30 -262 0 -262 0 -30 -30z"/>
    </g>
</svg>
