<?xml version="1.0" encoding="UTF-8" standalone="no"?>
<!DOCTYPE svg PUBLIC "-//W3C//DTD SVG 20010904//EN" "http://www.w3.org/TR/2001/REC-SVG-20010904/DTD/svg10.dtd">
<svg version="1.1" id="main"
   xmlns:dc="http://purl.org/dc/elements/1.1/"
   xmlns:cc="http://creativecommons.org/ns#"
   xmlns:rdf="http://www.w3.org/1999/02/22-rdf-syntax-ns#"
   xmlns:svg="http://www.w3.org/2000/svg"
   xmlns="http://www.w3.org/2000/svg"
   xmlns:sodipodi="http://sodipodi.sourceforge.net/DTD/sodipodi-0.dtd"
   xmlns:inkscape="http://www.inkscape.org/namespaces/inkscape" inkscape:version="1.0 (4035a4fb49, 2020-05-01)" sodipodi:docname="chrome-dinosaur.svg" viewBox="0 0 185.20833 136.26042">
   <defs id="defs2" />
   <sodipodi:namedview inkscape:window-maximized="1" inkscape:window-y="-8" inkscape:window-x="3832" inkscape:window-height="1017" inkscape:window-width="1920" fit-margin-bottom="0" fit-margin-right="0" fit-margin-left="0" fit-margin-top="0" showgrid="false" inkscape:document-rotation="0" inkscape:current-layer="layer1" inkscape:document-units="mm" inkscape:cy="212.5" inkscape:cx="305.69812" inkscape:zoom="0.35" inkscape:pageshadow="2" inkscape:pageopacity="0.0" borderopacity="1.0" bordercolor="#666666" pagecolor="#ffffff" id="base" />
   <g transform="translate(-11.717267,-73.232887)" id="layer1" inkscape:groupmode="layer" inkscape:label="Layer 1">
      <path id="path26" d="m 25.843247,194.75257 c -0.0797,-0.20769 -0.10573,-0.65418 -0.0578,-0.99218 0.0869,-0.61351 0.0951,-0.61468 4.78342,-0.68681 l 4.69636,-0.0722 v 1.06444 1.06444 h -4.63851 c -3.774,0 -4.66552,-0.0704 -4.78343,-0.37764 z m 34.02819,-0.54841 v -0.92604 h 2.24895 2.24896 v 0.92604 0.92605 h -2.24896 -2.24895 z m 14.48923,-8.6651 -0.0694,-9.59115 -2.30531,-0.0763 -2.30531,-0.0763 -0.0759,-2.43724 -0.0759,-2.43724 -2.3151,-0.0764 -2.3151,-0.0764 v -2.23866 -2.23866 h -2.51355 -2.51354 v -2.38125 -2.38125 h -2.38125 -2.38125 v -2.51354 -2.51354 h -2.38125 -2.38125 v -14.15521 -14.15521 h 2.11667 2.11667 v 4.7625 4.7625 h 2.38125 2.38125 v 2.38125 2.38125 h 2.37132 2.37132 l 0.0761,2.4474 0.0761,2.44739 5.09323,0.0719 5.09323,0.0719 v -2.51925 -2.51926 h 2.38125 2.38125 v -2.38125 -2.38125 h 3.57187 3.57188 v -2.38125 -2.38125 h 3.57187 3.57188 v -2.38125 -2.38125 h 2.51354 2.51354 V 112.44791 96.705209 h 2.381243 2.38125 v -2.38125 -2.38125 h 19.0397 19.03969 l 0.0764,2.3151 0.0764,2.31511 2.3151,0.0764 2.31511,0.0765 v 10.573031 10.57303 h -12.03854 -12.03854 v 2.64158 2.64158 l 7.20989,0.0704 7.2099,0.0704 0.0768,2.18281 0.0769,2.18281 h -9.66799 -9.66799 v 5.02709 5.02708 h 4.89479 4.89479 v 4.63021 4.63021 h -2.24896 -2.24896 v -2.51354 -2.51354 h -2.64583 -2.64583 v 8.59895 8.59896 h -2.38125 -2.38125 v 3.57188 3.57187 h -2.51355 -2.51354 v 2.23866 2.23866 l -2.3151,0.0764 -2.31511,0.0764 -0.0854,3.57188 c -0.047,1.96453 -0.004,6.45914 0.0959,9.98802 l 0.18131,6.41614 h 2.21922 2.21921 v 2.11667 2.11667 h -4.49791 -4.497913 v -7.13382 -7.13383 l -2.4474,-0.0761 -2.44739,-0.0761 -0.0762,-2.45685 -0.0762,-2.45686 -2.56964,0.0756 -2.56963,0.0756 0.005,2.31511 0.005,2.3151 h -2.32043 -2.32044 v 2.38125 2.38125 l -1.91823,0.004 c -3.18184,0.006 -3.06153,-0.10578 -3.15799,2.93379 l -0.0831,2.62 2.57969,-5.3e-4 2.57968,-5.2e-4 v 2.11666 2.11667 h -4.62678 -4.62691 l -0.0695,-9.59115 z m 38.692003,-84.20364 v -2.513541 h -2.77812 -2.77813 v 2.513541 2.51353 h 2.77813 2.77812 z m 29.10417,92.86874 v -0.92604 h 4.36562 4.36563 v 0.92604 0.92605 h -4.36563 -4.36562 z m -16.93334,-2.38125 c 0,-0.88194 0.0441,-0.92604 0.92605,-0.92604 0.88194,0 0.92604,0.0441 0.92604,0.92604 0,0.88195 -0.0441,0.92605 -0.92604,0.92605 -0.88195,0 -0.92605,-0.0441 -0.92605,-0.92605 z m -84.931233,-4.89479 v -1.05833 h 4.7625 4.7625 v 1.05833 1.05834 h -4.7625 -4.7625 z m 118.582703,-2.44739 0.0829,-0.8599 3.24115,-0.0743 3.24114,-0.0743 v 0.93419 0.93418 h -3.32405 -3.32406 z M 25.789567,177.33698 c 0.0456,-0.47295 0.1722,-0.83013 0.28135,-0.79375 0.10914,0.0364 8.7114,0.0661 19.11614,0.0661 h 18.91771 v 0.79375 0.79375 h -19.19906 -19.19905 z m 87.263103,-0.0662 v -0.92604 h 33.46979 33.4698 v 0.92604 0.92604 h -33.4698 -33.46979 z" />
   </g>
</svg>
