<?xml version="1.0" encoding="UTF-8" standalone="no"?><!DOCTYPE svg  PUBLIC '-//W3C//DTD SVG 1.1//EN'  'http://www.w3.org/Graphics/SVG/1.1/DTD/svg11.dtd'>
<svg id="main"
    xmlns="http://www.w3.org/2000/svg"
    xmlns:xlink="http://www.w3.org/1999/xlink" viewBox="0 0 319 250">
    <defs>
        <style>.cls-1{fill:#333;}.cls-2{fill:#fff;}.cls-3{fill:url(#linear-gradient);}</style>
        <linearGradient id="linear-gradient" x1="114" y1="171.34" x2="205" y2="171.34" gradientTransform="matrix(1, 0, 0, -1, 0, 240.16)" gradientUnits="userSpaceOnUse">
            <stop offset="0" stop-color="#4196fe"/>
            <stop offset="1" stop-color="#d841fe"/>
        </linearGradient>
    </defs>
    <title>logo-large</title>
    <g id="padding">
        <rect class="cls-1" width="319" height="250" rx="12"/>
    </g>
    <g id="next-gen">
        <path class="cls-2" d="M65.17,141a2.12,2.12,0,0,1,1.64.67,2.36,2.36,0,0,1,.61,1.65v37.82a2.46,2.46,0,0,1-.73,1.86,2.54,2.54,0,0,1-1.83.7,2.92,2.92,0,0,1-1-.21,2.07,2.07,0,0,1-.85-.58L36.86,148.33l1.22-.67V181.4a2.15,2.15,0,0,1-.64,1.61,2.27,2.27,0,0,1-1.68.64,2.13,2.13,0,0,1-1.64-.64,2.21,2.21,0,0,1-.61-1.61v-38a2.36,2.36,0,0,1,.73-1.83A2.49,2.49,0,0,1,36,141a3.05,3.05,0,0,1,1.12.22,1.65,1.65,0,0,1,.89.7l25.68,34-.73,1V143.27a2.29,2.29,0,0,1,.64-1.65A2.16,2.16,0,0,1,65.17,141Z"/>
        <path class="cls-2" d="M91.52,184.26A17,17,0,0,1,83,182.19a14.76,14.76,0,0,1-5.71-5.7,16.84,16.84,0,0,1-2-8.39,18.28,18.28,0,0,1,2.1-9.06,15,15,0,0,1,5.49-5.73,13.91,13.91,0,0,1,7.17-2,14.61,14.61,0,0,1,5.46,1,14,14,0,0,1,4.64,3,15.32,15.32,0,0,1,3.26,4.76,15.9,15.9,0,0,1,1.28,6.22,2.26,2.26,0,0,1-.79,1.62,2.56,2.56,0,0,1-1.71.64H78l-1.1-4.21h23.48l-1,.85V164a8.08,8.08,0,0,0-1.68-4.3A9.88,9.88,0,0,0,90,155.9a10.26,10.26,0,0,0-3.63.67,9.2,9.2,0,0,0-3.23,2.07,10,10,0,0,0-2.29,3.66,15.4,15.4,0,0,0-.85,5.43A12.92,12.92,0,0,0,81.42,174a10.81,10.81,0,0,0,4,4.24,12.36,12.36,0,0,0,9.66,1,11,11,0,0,0,2.72-1.37,12.86,12.86,0,0,0,2-1.68,2.68,2.68,0,0,1,1.53-.55,2.09,2.09,0,0,1,1.52.61,2,2,0,0,1,.61,1.47,2.44,2.44,0,0,1-1,1.89,14.7,14.7,0,0,1-4.64,3.29A14.15,14.15,0,0,1,91.52,184.26Z"/>
        <path class="cls-2" d="M111,151.75a2.39,2.39,0,0,1,1.95,1l21.23,27.08a2.49,2.49,0,0,1,.49,1.47,2.38,2.38,0,0,1-.74,1.76,2.32,2.32,0,0,1-1.71.74,2.51,2.51,0,0,1-2-1.1l-21.23-27a2.15,2.15,0,0,1-.54-1.47,2.34,2.34,0,0,1,.76-1.8A2.55,2.55,0,0,1,111,151.75Zm0,32a2.63,2.63,0,0,1-1.59-.6,1.92,1.92,0,0,1-.79-1.59,2.5,2.5,0,0,1,.55-1.53l10-12.62,2.62,4L113,182.8A2.32,2.32,0,0,1,111,183.77Zm21.16-32a2.26,2.26,0,0,1,1.74.67,2.15,2.15,0,0,1,.64,1.53,2.29,2.29,0,0,1-.15.82,2.54,2.54,0,0,1-.46.76L124,168.28l-2.56-3.72,8.78-11.71A2.46,2.46,0,0,1,132.2,151.75Z"/>
        <path class="cls-2" d="M142.76,152.3h14.33a2.14,2.14,0,0,1,1.62.67,2.34,2.34,0,0,1,.64,1.65,2.12,2.12,0,0,1-.64,1.55,2.19,2.19,0,0,1-1.62.64H142.76a2.27,2.27,0,0,1-1.62-.67,2.18,2.18,0,0,1,0-3.2A2.32,2.32,0,0,1,142.76,152.3Zm6.4-8.3a2.25,2.25,0,0,1,1.71.73,2.52,2.52,0,0,1,.67,1.77v29.41a4.39,4.39,0,0,0,.43,2.19,2.21,2.21,0,0,0,1.13,1,3.75,3.75,0,0,0,1.37.27,2.59,2.59,0,0,0,1.07-.21,2.51,2.51,0,0,1,1.06-.21,1.48,1.48,0,0,1,1.13.58,2.12,2.12,0,0,1,.52,1.49,2.2,2.2,0,0,1-1.28,1.86,5.47,5.47,0,0,1-2.87.76q-.85,0-2.1-.12a6.26,6.26,0,0,1-2.47-.79,5.21,5.21,0,0,1-2.05-2.23,9.45,9.45,0,0,1-.82-4.36V146.5a2.41,2.41,0,0,1,.73-1.77A2.45,2.45,0,0,1,149.16,144Z"/>
        <path class="cls-2" d="M203.21,184.26a22.63,22.63,0,0,1-8.73-1.67,21.51,21.51,0,0,1-11.68-11.65,23,23,0,0,1,0-17.27A21.51,21.51,0,0,1,194.48,142a22.45,22.45,0,0,1,8.73-1.68,25.79,25.79,0,0,1,6,.7,17.27,17.27,0,0,1,5.22,2.17,2,2,0,0,1,.91.88,2.38,2.38,0,0,1,.31,1.13A2.44,2.44,0,0,1,215,147a2.18,2.18,0,0,1-1.62.73,3,3,0,0,1-.73-.09,2.48,2.48,0,0,1-.67-.27,20.15,20.15,0,0,0-4.09-1.56,18.35,18.35,0,0,0-4.63-.58,16.7,16.7,0,0,0-8.64,2.26,16.34,16.34,0,0,0-6,6.13,18.28,18.28,0,0,0,0,17.39,16.42,16.42,0,0,0,6,6.13,16.69,16.69,0,0,0,8.64,2.25,19.62,19.62,0,0,0,5-.67A17.63,17.63,0,0,0,212.6,177l-.37,1.47V165.66l.92.85h-9.27a2.44,2.44,0,0,1-1.77-.7,2.31,2.31,0,0,1-.73-1.74,2.38,2.38,0,0,1,.73-1.8,2.49,2.49,0,0,1,1.77-.7H215a2.31,2.31,0,0,1,1.74.73,2.5,2.5,0,0,1,.7,1.77v14.09a2.48,2.48,0,0,1-.34,1.31,2.77,2.77,0,0,1-.88.95,25,25,0,0,1-6.07,2.81A23.19,23.19,0,0,1,203.21,184.26Z"/>
        <path class="cls-2" d="M239.56,184.26a17.06,17.06,0,0,1-8.54-2.07,14.73,14.73,0,0,1-5.7-5.7,16.85,16.85,0,0,1-2-8.39,18.28,18.28,0,0,1,2.11-9.06,14.87,14.87,0,0,1,5.49-5.73,13.89,13.89,0,0,1,7.17-2,14.61,14.61,0,0,1,5.46,1,14,14,0,0,1,4.63,3,15.52,15.52,0,0,1,3.27,4.76,15.9,15.9,0,0,1,1.28,6.22,2.27,2.27,0,0,1-.8,1.62,2.51,2.51,0,0,1-1.7.64h-24.1l-1.1-4.21h23.49l-1,.85V164a7.92,7.92,0,0,0-1.68-4.3,9.74,9.74,0,0,0-3.47-2.78,9.9,9.9,0,0,0-4.3-1,10.26,10.26,0,0,0-3.63.67,9.33,9.33,0,0,0-3.24,2.07,10.11,10.11,0,0,0-2.28,3.66,15.39,15.39,0,0,0-.86,5.43,12.92,12.92,0,0,0,1.44,6.22,10.72,10.72,0,0,0,4,4.24,12.39,12.39,0,0,0,9.67,1,10.92,10.92,0,0,0,2.71-1.37,12.49,12.49,0,0,0,2-1.68,2.63,2.63,0,0,1,1.52-.55,2.11,2.11,0,0,1,1.53.61,2,2,0,0,1,.61,1.47,2.45,2.45,0,0,1-1,1.89,14.59,14.59,0,0,1-4.64,3.29A14.12,14.12,0,0,1,239.56,184.26Z"/>
        <path class="cls-2" d="M275.37,151.32a11,11,0,0,1,6.52,1.71,9.22,9.22,0,0,1,3.39,4.58,19.42,19.42,0,0,1,1,6.46v17.08a2.47,2.47,0,0,1-.71,1.77,2.46,2.46,0,0,1-3.5,0,2.52,2.52,0,0,1-.67-1.77v-17a12.27,12.27,0,0,0-.7-4.21,6.19,6.19,0,0,0-2.35-3,7.62,7.62,0,0,0-4.4-1.13,9.79,9.79,0,0,0-4.69,1.13,9.34,9.34,0,0,0-3.42,3,7.4,7.4,0,0,0-1.28,4.21v17a2.46,2.46,0,0,1-.7,1.77,2.44,2.44,0,0,1-3.48,0,2.46,2.46,0,0,1-.7-1.77V154.62a2.43,2.43,0,0,1,.7-1.8,2.36,2.36,0,0,1,1.74-.7,2.34,2.34,0,0,1,1.77.7,2.49,2.49,0,0,1,.67,1.8v4.27l-1.22,1.34a8.58,8.58,0,0,1,1.4-3.2,12.77,12.77,0,0,1,2.75-2.9,13.65,13.65,0,0,1,3.66-2A11.73,11.73,0,0,1,275.37,151.32Z"/>
    </g>
    <g id="limitless">
        <path class="cls-2" d="M56.71,224a2.21,2.21,0,0,1,1.57.62,2.07,2.07,0,0,1,.65,1.54,2,2,0,0,1-.65,1.51,2.23,2.23,0,0,1-1.57.6H38a2.1,2.1,0,0,1-1.59-.65,2.17,2.17,0,0,1-.63-1.57V192.72a2.17,2.17,0,0,1,.65-1.57,2.27,2.27,0,0,1,1.68-.64,2.12,2.12,0,0,1,1.56.64,2.17,2.17,0,0,1,.65,1.57V225l-1.08-1Z"/>
        <path class="cls-2" d="M69.62,226.09a2.1,2.1,0,0,1-.68,1.57,2.23,2.23,0,0,1-1.59.65,2.17,2.17,0,0,1-2.27-2.22V192.72a2.17,2.17,0,0,1,.65-1.57,2.26,2.26,0,0,1,1.67-.64,2.13,2.13,0,0,1,1.57.64,2.17,2.17,0,0,1,.65,1.57Z"/>
        <path class="cls-2" d="M81.34,190.45a2.48,2.48,0,0,1,1,.27,2.14,2.14,0,0,1,.89.76l14.31,21.6L95.65,213l14.47-21.54a2.2,2.2,0,0,1,1.83-1,2.44,2.44,0,0,1,1.54.68,2,2,0,0,1,.68,1.54v33.42a2.15,2.15,0,0,1-.65,1.57,2.26,2.26,0,0,1-3.89-1.57V196.82L111,197,98.24,216.43a2.79,2.79,0,0,1-.79.7,1.56,1.56,0,0,1-1,.21,1.6,1.6,0,0,1-1-.21,2.11,2.11,0,0,1-.75-.7L82.15,197.09l1.13-1.45v30.45a2.27,2.27,0,0,1-.59,1.57,2.09,2.09,0,0,1-3,0,2.27,2.27,0,0,1-.59-1.57V192.67a2.13,2.13,0,0,1,.65-1.54A2.15,2.15,0,0,1,81.34,190.45Z"/>
        <path class="cls-2" d="M128.1,226.09a2.1,2.1,0,0,1-.68,1.57,2.23,2.23,0,0,1-1.59.65,2.17,2.17,0,0,1-2.27-2.22V192.72a2.17,2.17,0,0,1,.65-1.57,2.26,2.26,0,0,1,1.67-.64,2.13,2.13,0,0,1,1.57.64,2.17,2.17,0,0,1,.65,1.57Z"/>
        <path class="cls-2" d="M136.79,194.66a2.2,2.2,0,0,1-1.56-.59,1.94,1.94,0,0,1-.65-1.51,1.87,1.87,0,0,1,.65-1.49,2.27,2.27,0,0,1,1.56-.56H161.9a2.22,2.22,0,0,1,1.57.59,2,2,0,0,1,.65,1.51,1.89,1.89,0,0,1-.65,1.49,2.29,2.29,0,0,1-1.57.56Zm12.53,33.65a2.17,2.17,0,0,1-2.27-2.22V192.77h4.59v33.32a2.11,2.11,0,0,1-.65,1.57A2.27,2.27,0,0,1,149.32,228.31Z"/>
        <path class="cls-2" d="M191.44,224a2.21,2.21,0,0,1,1.57.62,2.06,2.06,0,0,1,.64,1.54,2,2,0,0,1-.64,1.51,2.23,2.23,0,0,1-1.57.6H172.76a2.14,2.14,0,0,1-1.6-.65,2.21,2.21,0,0,1-.62-1.57V192.72a2.17,2.17,0,0,1,.65-1.57,2.26,2.26,0,0,1,1.67-.64,2.13,2.13,0,0,1,1.57.64,2.17,2.17,0,0,1,.65,1.57V225L174,224Z"/>
        <path class="cls-2" d="M202,190.51h19.23a2.14,2.14,0,0,1,1.56.62,2,2,0,0,1,.65,1.54,1.85,1.85,0,0,1-.65,1.48,2.27,2.27,0,0,1-1.56.57H203.86l.49-.92v13.61l-.54-.6h15a2.21,2.21,0,0,1,1.56.6A2,2,0,0,1,221,209a1.86,1.86,0,0,1-.65,1.49,2.27,2.27,0,0,1-1.56.57H204l.38-.54v14l-.33-.38h17.23a2.13,2.13,0,0,1,1.56.65,2,2,0,0,1,.65,1.46,1.93,1.93,0,0,1-.65,1.51,2.21,2.21,0,0,1-1.56.6H202a2.13,2.13,0,0,1-1.56-.65,2.15,2.15,0,0,1-.65-1.57V192.72a2.17,2.17,0,0,1,.65-1.57A2.12,2.12,0,0,1,202,190.51Z"/>
        <path class="cls-2" d="M241.66,228.85a19.19,19.19,0,0,1-7-1.19,18.62,18.62,0,0,1-5.83-3.78,2.65,2.65,0,0,1-.62-.81,2.21,2.21,0,0,1-.25-1,2.24,2.24,0,0,1,.62-1.54,2,2,0,0,1,1.54-.67,1.86,1.86,0,0,1,1.35.59,15.47,15.47,0,0,0,4.57,3.13,13.57,13.57,0,0,0,5.53,1.08,11.48,11.48,0,0,0,4.27-.75,7.5,7.5,0,0,0,3-2.11,4.7,4.7,0,0,0,1.14-3.13,5.23,5.23,0,0,0-1.22-3.56,9.17,9.17,0,0,0-3.35-2.33,32.92,32.92,0,0,0-4.94-1.62,31.34,31.34,0,0,1-4.56-1.43,13.6,13.6,0,0,1-3.62-2.1,8.5,8.5,0,0,1-2.37-3.08,10.13,10.13,0,0,1-.84-4.29,9.08,9.08,0,0,1,1.62-5.38,10.78,10.78,0,0,1,4.51-3.59,16,16,0,0,1,6.61-1.29,18,18,0,0,1,6.24,1.08,12,12,0,0,1,4.72,3,2.88,2.88,0,0,1,1.08,2,2,2,0,0,1-.67,1.43,2.13,2.13,0,0,1-1.54.67,1.7,1.7,0,0,1-1.08-.37,9.11,9.11,0,0,0-2.35-1.84,14.84,14.84,0,0,0-3.08-1.3,11.8,11.8,0,0,0-3.32-.48,12,12,0,0,0-4.37.73,6.93,6.93,0,0,0-2.95,2,5.3,5.3,0,0,0,.14,6.51,8.71,8.71,0,0,0,3.19,2.16,33.62,33.62,0,0,0,4.42,1.48,44.34,44.34,0,0,1,4.89,1.49,14.89,14.89,0,0,1,3.86,2.08,8.3,8.3,0,0,1,2.51,3.16,11.08,11.08,0,0,1,.89,4.72,8.84,8.84,0,0,1-1.67,5.29,11.53,11.53,0,0,1-4.56,3.68A15.22,15.22,0,0,1,241.66,228.85Z"/>
        <path class="cls-2" d="M272.65,228.85a19.19,19.19,0,0,1-7-1.19,18.74,18.74,0,0,1-5.83-3.78,2.65,2.65,0,0,1-.62-.81,2.32,2.32,0,0,1-.24-1,2.24,2.24,0,0,1,.62-1.54,2,2,0,0,1,1.54-.67,1.89,1.89,0,0,1,1.35.59,15.3,15.3,0,0,0,4.56,3.13,13.66,13.66,0,0,0,5.54,1.08,11.47,11.47,0,0,0,4.26-.75,7.6,7.6,0,0,0,3-2.11,4.74,4.74,0,0,0,1.13-3.13,5.23,5.23,0,0,0-1.21-3.56,9.17,9.17,0,0,0-3.35-2.33,32.92,32.92,0,0,0-4.94-1.62,31.48,31.48,0,0,1-4.57-1.43,13.54,13.54,0,0,1-3.61-2.1,8.64,8.64,0,0,1-2.38-3.08,10.13,10.13,0,0,1-.84-4.29,9.08,9.08,0,0,1,1.62-5.38,10.84,10.84,0,0,1,4.51-3.59,16.09,16.09,0,0,1,6.62-1.29,17.94,17.94,0,0,1,6.23,1.08,12.06,12.06,0,0,1,4.73,3,2.88,2.88,0,0,1,1.08,2,2,2,0,0,1-.68,1.43,2.11,2.11,0,0,1-1.54.67,1.74,1.74,0,0,1-1.08-.37,9,9,0,0,0-2.34-1.84,15.07,15.07,0,0,0-3.08-1.3,11.85,11.85,0,0,0-3.32-.48,12,12,0,0,0-4.38.73,6.83,6.83,0,0,0-2.94,2,5.31,5.31,0,0,0,.13,6.51,8.88,8.88,0,0,0,3.19,2.16,33.78,33.78,0,0,0,4.43,1.48,45.7,45.7,0,0,1,4.89,1.49,14.89,14.89,0,0,1,3.86,2.08,8.4,8.4,0,0,1,2.51,3.16,11.23,11.23,0,0,1,.89,4.72,8.78,8.78,0,0,1-1.68,5.29,11.39,11.39,0,0,1-4.56,3.68A15.16,15.16,0,0,1,272.65,228.85Z"/>
    </g>
    <g id="spaceship-logo">
        <path class="cls-3" d="M198.08,64.34v5a1.75,1.75,0,0,1-3.5,0v-5a1.75,1.75,0,0,1,3.5,0ZM114,105a14,14,0,0,1,6.92-12.23V64.34c0-30,9.26-40.34,9.66-40.77a1.74,1.74,0,0,1,2.56,0c.32.34,6.25,7,8.66,24.8,5-27.56,15.93-37.81,16.53-38.36a1.76,1.76,0,0,1,2.35,0c.6.54,11.5,10.8,16.52,38.36,2.41-17.84,8.35-24.46,8.66-24.8a1.73,1.73,0,0,1,1.28-.56,1.76,1.76,0,0,1,1.28.56c.33.35,8,8.86,9.43,32.81a1.75,1.75,0,0,1-3.5.21h0c-1-16.69-5.08-25.36-7.2-28.81-2.42,4-7.46,14.87-7.46,36.56V84.53a65.15,65.15,0,0,0,13.82,6.39l1.07.39V76.06a1.75,1.75,0,1,1,3.5,0V92.75A14,14,0,0,1,205,105v6a1.75,1.75,0,0,1-1.75,1.75h-5.17v4.66l2.2,8.48A1.75,1.75,0,0,1,199,128a1.7,1.7,0,0,1-.44.05h-22.9a1.75,1.75,0,0,1-1.75-1.75,1.58,1.58,0,0,1,.05-.43l2.2-8.47v-4.67h-3.63v6.19a1.75,1.75,0,0,1-1.75,1.75h-9.56v5.63a1.75,1.75,0,0,1-3.5,0v-5.63h-9.56a1.75,1.75,0,0,1-1.75-1.75v-6.19h-3.63v4.67l2.2,8.46a1.76,1.76,0,0,1-1.25,2.14,2.28,2.28,0,0,1-.44.05h-4.57a1.75,1.75,0,0,1,0-3.5h2.3l-1.34-5.18H124l-1.34,5.18h8.18a1.75,1.75,0,0,1,0,3.5H120.41a1.75,1.75,0,0,1-1.75-1.75,1.72,1.72,0,0,1,.06-.44l2.2-8.48v-4.65h-5.17A1.75,1.75,0,0,1,114,111Zm25.31,7.76H124.42v3.14h14.89Zm18.44-6.35a3.91,3.91,0,0,0-7.81,0v10.79h7.81Zm11.31,0a3.91,3.91,0,0,0-7.81,0h0v10.79h7.81V106.39Zm27.27,18.17L195,119.38H179.29L178,124.56Zm-1.75-8.68v-3.14H179.69v3.14Zm-17.75-29a44.12,44.12,0,0,1-6.38-5.27v19.63a7.36,7.36,0,0,1,2.11,5.17v2.85H201.5v-2.5H185.75a1.75,1.75,0,0,1,0-3.5h15.6a9.94,9.94,0,0,0-5.68-7.78c-1-.39-2.12-.81-3.34-1.25a67.33,67.33,0,0,1-15.21-7.16L177,87l-.14-.1Zm-34-4.82a39.47,39.47,0,0,0,5.74-5.6V72.71a107.84,107.84,0,0,1,2.24-23,1.75,1.75,0,1,1,3.42.76,104,104,0,0,0-2.16,22.25v26.5a7.32,7.32,0,0,1,5.7.9v-6a1.75,1.75,0,0,1,3.5,0v6a7.33,7.33,0,0,1,5.7-.9V72.71c0-21.83-5-32.62-7.44-36.57a36.19,36.19,0,0,0-2.93,6.16,1.75,1.75,0,1,1-3.28-1.23c2.38-6.35,4.81-9,4.92-9.13a1.8,1.8,0,0,1,2.55,0h0c.4.43,9.67,10.75,9.67,40.77v3.73a40,40,0,0,0,5.74,5.6V78.16c0-41.17-12.71-59.52-16.69-64.26-4,4.73-16.69,23.08-16.69,64.26Zm-18.39,9.27,1.07-.39a65.15,65.15,0,0,0,13.82-6.39V64.34c0-21.81-5-32.6-7.44-36.56-2.42,4-7.45,14.87-7.45,36.56Zm-6.92,17.93h28.94v-2.85a7.4,7.4,0,0,1,2.11-5.17V81.59a44,44,0,0,1-6.41,5.29l0,0L142,87l-.06,0a67.94,67.94,0,0,1-15.23,7.17c-1.21.44-2.36.85-3.32,1.24h0a10,10,0,0,0-5.68,7.78h15.6a1.75,1.75,0,0,1,0,3.5H117.5Zm39-45.15h6a1.75,1.75,0,0,0,0-3.5h-6a1.75,1.75,0,0,0,0,3.5Z"/>
    </g>
</svg>
