<?xml version="1.0" encoding="UTF-8" standalone="no"?><!DOCTYPE svg  PUBLIC '-//W3C//DTD SVG 1.1//EN'  'http://www.w3.org/Graphics/SVG/1.1/DTD/svg11.dtd'>
<svg id="main" viewBox="750 420 800 515" fill="none" preserveAspectRatio="xMidYMid meet"
    xmlns="http://www.w3.org/2000/svg"
    xmlns:xlink="http://www.w3.org/1999/xlink">
    <g clip-path="url(#clip0)" transform="scale(2.1)">
        <g opacity="0.58">
            <path opacity="0.58" d="M804.705 7.2196C775.841 34.972 737.476 61.1129 701.799 79.1966C653.036 103.726 597.46 111.962 542.78 112.499C488.1 113.037 433.779 106.054 379.279 102.115C329.798 98.5338 278.704 97.4595 232.092 114.111C158.229 140.431 103.191 212.945 97.8125 291.189L805.422 231.566L804.705 7.2196Z" fill="url(#paint0_linear)"/>
        </g>
        <g opacity="0.58">
            <path opacity="0.58" d="M805.602 79.9128C805.423 73.2881 799.327 66.1262 794.308 62.1872C736.58 16.5301 658.057 2.74341 589.931 26.9148C564.294 36.0462 540.45 49.8329 515.172 59.5014C430.374 91.909 333.564 75.4367 250.738 113.216C200.54 135.955 158.41 178.389 133.848 230.671C111.797 277.402 104.088 331.654 111.618 383.219C113.232 393.783 121.658 401.482 131.518 401.482H792.156C803.451 401.482 805.961 392.709 805.602 380.533V79.9128Z" fill="url(#paint1_linear)"/>
        </g>
        <path d="M777.634 390.739V386.084L613.953 386.263L353.283 386.621L183.148 386.8C183.148 386.8 182.969 386.8 182.79 386.8C179.921 387.158 164.145 388.77 146.576 391.813L92.0753 391.634C92.0753 391.276 114.664 392.171 92.0753 391.634C90.2825 373.372 76.4782 352.602 77.9124 334.518C79.8844 307.303 76.6574 284.922 85.0835 263.974C89.2069 253.589 94.2266 244.099 99.7842 235.147C115.202 210.438 135.64 191.28 159.304 176.598C174.364 167.288 190.857 159.947 208.427 154.218C284.978 129.33 379.816 137.924 458.34 166.035C488.279 176.777 518.398 187.699 549.413 195.398C578.277 202.381 607.858 205.425 637.438 206.141C663.434 206.678 689.608 205.425 715.066 200.591C732.456 198.621 749.128 194.145 764.008 186.267C773.869 182.328 796.099 169.616 805.242 160.842V386.084L805.422 390.739H777.634Z" fill="url(#paint2_linear)"/>
        <path d="M805.422 387.874L754.328 388.053C754.328 389.307 753.432 390.56 751.818 390.56C691.222 388.232 630.985 398.975 570.389 400.766C515.351 402.377 460.313 405.6 405.274 407.749C350.236 410.076 295.377 409.718 240.339 410.434C213.268 410.792 186.376 412.046 159.305 412.404C135.103 412.762 110.183 408.644 86.1599 413.12C82.2158 413.836 71.6384 414.731 69.6664 418.67C66.2601 425.295 81.3194 429.234 85.8014 430.846C98.3508 435.68 111.617 437.649 124.884 439.619C131.876 440.693 145.501 443.021 131.876 447.855C106.418 456.808 47.4359 463.074 22.5163 477.577C14.9867 481.874 10.5047 487.067 10.8633 493.154C12.4768 519.653 123.629 514.819 123.629 514.819H805.422V387.874Z" fill="#3F6D8C"/>
        <path d="M363.145 387.158C359.38 384.293 355.436 381.787 350.774 379.996C344.141 377.311 336.432 376.594 329.082 374.983C306.672 370.328 286.772 359.048 263.646 358.511C253.068 358.332 242.132 360.301 231.913 358.332C226.535 357.257 221.515 355.288 216.137 354.213C203.229 351.349 189.245 354.034 175.799 352.781C159.664 351.17 145.681 344.187 130.442 340.248C113.949 335.951 96.2001 335.234 78.8102 336.667C77.5552 354.751 77.5552 373.372 79.348 391.634H79.1687C79.7065 398.438 81.32 407.032 82.0372 413.836C86.5191 413.657 91.3596 412.046 95.6623 411.867C134.386 410.971 136.896 407.928 164.684 409.539C192.293 411.151 198.926 411.151 232.272 408.644C265.438 406.137 309.72 404.526 326.393 407.749C343.066 410.971 397.207 405.958 397.207 405.958C382.327 405.242 373.543 395.036 363.145 387.158Z" fill="#3A4860"/>
        <path d="M803.28 393.562V394.994L583.485 395.532L560 387.295C577.031 383.356 594.421 379.238 612.887 378.522C624.899 377.985 636.91 378.88 648.922 378.343C664.34 377.627 679.04 374.404 694.279 372.614C728.7 368.675 764.197 372.076 798.798 375.657C802.563 384.431 803.101 390.876 803.28 393.562Z" fill="#A9ADB6"/>
        <path d="M298.247 362.987C332.847 360.301 368.703 357.436 402.228 364.24C414.598 366.747 426.43 370.507 438.98 373.013C456.37 376.415 474.477 377.49 492.404 378.385C501.01 378.922 509.615 379.28 518.22 379.817C522.523 379.996 523.778 379.101 528.081 378.922C532.742 378.743 542.602 374.625 547.263 374.267C565.908 372.655 604.812 376.236 622.919 379.996C642.281 384.114 663.256 389.128 665.228 398.438C665.228 398.438 499.396 407.032 470.353 403.272C441.131 399.512 413.522 398.796 413.522 398.796L298.247 362.987Z" fill="#7D889B"/>
        <path d="M367.09 383.756C382.507 379.101 400.435 379.638 415.315 385.189C419.08 386.621 422.845 388.232 426.789 389.307C431.809 390.56 437.366 390.56 442.565 391.455C452.964 393.246 471.071 398.975 479.317 403.989C479.317 403.989 405.276 413.299 375.516 405.779C345.755 397.901 367.09 383.756 367.09 383.756Z" fill="#4B5A77"/>
        <path d="M411.191 408.823C428.043 403.989 385.196 390.739 370.316 383.398C363.145 379.817 355.077 377.49 347.01 375.162C321.552 367.821 295.378 360.48 268.128 359.406C259.164 359.048 249.662 359.585 242.312 363.345C238.726 365.314 235.858 368 231.914 369.432C226.535 371.581 219.723 371.402 214.344 373.73C210.759 375.341 208.428 377.848 205.739 380.175C185.122 399.154 135.104 409.539 101.937 410.971C101.758 411.15 365.834 421.893 411.191 408.823Z" fill="#3A4860"/>
        <path d="M369.777 377.669L369.418 378.026V377.847C369.598 377.847 369.598 377.669 369.777 377.669Z" fill="#54007F"/>
        <path d="M385.196 207.216V207.036C385.196 207.036 385.196 207.036 385.375 207.036C385.196 207.036 385.196 207.216 385.196 207.216Z" fill="#54007F"/>
        <path d="M369.239 379.101L369.419 379.28H369.239V379.101Z" fill="#54007F"/>
        <path d="M388.422 89.2236V89.0443C388.422 89.0443 388.422 89.0443 388.602 89.0443C388.422 89.0443 388.422 89.2236 388.422 89.2236Z" fill="#66007F"/>
        <path d="M492.121 242.905C492.121 242.905 676.597 241.115 676.777 241.115C677.494 241.115 675.163 225.538 674.805 224.105C672.653 215.332 667.633 206.201 660.283 200.471C656.518 197.606 652.036 195.458 647.196 195.279C641.638 194.92 636.618 198.68 631.419 197.964C628.192 197.606 626.758 195.279 623.173 195.995C617.077 197.248 611.34 203.694 611.699 209.96C608.651 206.738 601.301 206.559 596.998 207.096C591.44 207.812 588.572 213.004 583.552 214.258C578.174 215.511 576.202 209.781 571.541 208.707C565.266 207.454 560.067 211.214 555.406 214.795C551.82 217.481 548.952 221.778 545.366 224.105C541.601 216.048 530.486 227.149 527.438 230.551C524.391 233.953 524.57 234.311 520.267 234.49C514.71 234.669 509.69 235.027 504.311 236.818C493.196 241.115 487.459 242.01 492.121 242.905Z" fill="#FFC362"/>
        <path d="M384.299 306.408L383.044 308.914C383.403 313.212 400.255 310.705 402.944 310.526C432.345 308.914 461.926 310.347 491.328 306.587C504.056 304.975 516.785 304.438 529.514 304.259C536.326 304.259 543.139 303.364 550.131 303.185C554.254 303.006 558.557 303.722 562.142 301.753C559.453 299.246 553.178 299.246 549.593 298.709C542.78 297.635 535.968 295.486 529.155 294.949C527.9 288.324 523.239 286.534 517.323 288.145C515.172 276.865 511.945 268.092 499.037 268.092C492.941 268.092 487.025 269.345 482.364 273.821C478.42 277.581 477.165 283.49 473.758 287.25C467.125 282.236 457.803 284.743 452.245 290.294C450.094 292.442 449.556 296.023 446.15 296.202C443.102 296.381 441.13 293.337 438.261 292.442C430.911 290.294 426.429 295.307 421.23 299.246C416.031 303.185 410.473 303.006 404.378 304.08C398.283 304.975 389.139 306.945 384.12 306.587" fill="#FFC362"/>
        <path d="M421.231 240.16C421.231 240.16 420.872 235.505 419.079 232.64C417.466 229.775 409.757 227.627 409.757 227.627C409.757 227.627 415.315 235.147 415.315 238.549C415.315 241.951 409.398 242.667 409.398 242.667L409.757 246.069L415.135 243.92C415.135 243.92 421.051 247.68 422.665 253.589C424.278 259.497 426.43 258.96 426.43 253.947C426.43 253.947 426.968 249.292 425.713 247.501C424.458 245.532 422.486 245.353 422.486 244.099C422.486 242.846 423.92 242.667 424.816 243.383C425.533 244.099 426.251 243.025 425.175 241.593C424.099 240.16 423.203 238.907 421.231 240.16Z" fill="#3A4F6C"/>
        <path d="M444.895 355.646C444.895 355.646 445.254 347.768 450.632 349.2C450.632 349.2 453.142 342.575 457.444 344.724C457.444 344.724 451.708 345.977 451.708 349.916C451.887 349.916 447.584 350.453 444.895 355.646Z" fill="#3A4F6C"/>
        <path d="M444.895 334.876C444.895 334.876 449.736 331.653 451.17 335.413C451.17 335.413 456.19 333.981 456.907 337.562C456.907 337.562 453.859 334.697 451.349 336.309C451.349 336.488 449.198 334.339 444.895 334.876Z" fill="#3A4F6C"/>
        <path d="M348.263 484.739C349.518 484.56 349.518 482.948 348.263 482.769C336.431 481.695 323.344 482.769 311.511 483.486C310.436 483.486 310.436 485.276 311.511 485.276C323.344 485.634 336.431 486.171 348.263 484.739Z" fill="#2F5C75"/>
        <path d="M353.642 482.769C352.745 482.948 352.745 484.023 353.642 484.023C365.474 484.56 377.665 483.665 389.497 482.59C390.035 482.59 390.035 481.695 389.497 481.695C377.665 481.337 365.295 481.337 353.642 482.769Z" fill="#2F5C75"/>
        <path d="M393.082 482.59C415.85 482.769 438.618 482.59 461.387 483.128C472.323 483.307 483.259 483.844 494.194 483.844C503.158 483.844 513.915 485.097 521.982 480.621C523.955 479.547 522.52 476.682 520.548 477.04C509.971 479.188 499.931 479.368 489.175 479.547C483.976 479.726 478.777 479.905 473.757 480.263L430.013 481.337C417.822 481.516 405.452 481.874 393.261 482.053C392.723 482.232 392.723 482.59 393.082 482.59Z" fill="#2F5C75"/>
        <path d="M670.067 501.211C661.82 499.958 653.214 500.853 644.788 500.853C635.287 500.853 625.785 500.853 616.104 500.853C606.961 500.853 597.818 501.39 588.674 501.748C579.173 502.106 569.671 500.495 559.99 500.853C558.914 500.853 559.094 502.286 559.99 502.286C569.133 503.181 578.276 502.286 587.42 502.823C596.921 503.36 606.423 504.255 616.104 504.434C625.247 504.613 634.39 504.613 643.533 504.434C652.139 504.434 661.461 505.15 670.067 503.36C671.142 503.36 671.321 501.39 670.067 501.211Z" fill="#2F5C75"/>
        <path d="M706.103 494.587C703.951 495.482 701.621 496.198 699.29 496.914L683.334 500.674C681.542 501.032 679.569 501.211 677.597 501.39C676.88 501.39 676.88 502.644 677.597 502.644C687.637 502.107 697.318 500.137 706.461 495.84C707.358 495.661 706.82 494.407 706.103 494.587Z" fill="#2F5C75"/>
        <path d="M735.504 455.554C724.21 455.017 712.915 456.449 701.441 455.733C700.545 455.733 700.724 456.808 701.441 456.987C712.198 458.419 725.106 459.672 735.683 456.808C736.4 456.628 736.221 455.733 735.504 455.554Z" fill="#2F5C75"/>
        <path d="M228.865 473.101C224.383 472.385 219.722 472.743 215.24 472.922C214.165 472.922 214.165 474.354 215.24 474.533C219.722 474.712 224.383 475.071 228.865 474.354C229.403 474.175 229.403 473.101 228.865 473.101Z" fill="#2F5C75"/>
        <path d="M541.167 499.421C532.024 499.779 522.881 499.242 513.738 498.167C505.849 497.272 498.141 496.198 490.073 497.451C471.607 500.137 454.038 501.032 435.393 500.316C434.138 500.316 434.318 502.107 435.393 502.107C450.811 503.36 466.229 502.465 481.468 500.853L513.2 500.495C514.096 500.674 514.813 500.853 515.71 500.853C524.136 501.927 532.562 501.927 540.988 501.032C542.064 500.853 542.064 499.421 541.167 499.421Z" fill="#2F5C75"/>
        <path d="M504.774 487.425C503.698 487.425 503.698 489.036 504.774 489.215C510.69 489.573 516.785 489.394 522.701 489.394C523.956 489.394 523.956 487.246 522.701 487.246C516.785 487.246 510.69 487.246 504.774 487.425Z" fill="#2F5C75"/>
        <path d="M337.507 468.267C327.288 467.013 316.531 467.908 306.133 467.371C296.811 466.834 286.233 465.581 276.911 467.371C275.477 467.729 275.656 469.699 276.911 470.057C286.413 472.564 297.707 471.31 307.388 470.952C317.248 470.594 327.826 471.131 337.686 469.52C338.403 469.162 338.045 468.267 337.507 468.267Z" fill="#2F5C75"/>
        <path d="M266.513 467.371C260.776 467.729 255.219 467.013 249.482 466.834C248.765 466.834 248.586 468.087 249.303 468.267C254.86 469.52 260.956 469.162 266.513 468.625C267.41 468.625 267.41 467.371 266.513 467.371Z" fill="#2F5C75"/>
        <path d="M439.336 463.253C437.902 463.611 438.44 465.402 439.695 465.581C445.97 466.297 453.499 465.581 459.595 464.328C460.85 464.148 460.312 462.537 459.416 462.358C453.141 461.642 445.432 461.821 439.336 463.253Z" fill="#2F5C75"/>
        <path d="M469.277 463.074C482.185 462.179 494.914 461.463 507.822 460.747C508.359 460.747 508.359 460.03 507.822 460.03C495.093 459.672 482.006 460.209 469.277 461.821C468.56 462 468.38 463.253 469.277 463.074Z" fill="#2F5C75"/>
        <path d="M562.501 456.628C546.186 456.628 529.155 457.703 513.199 460.209C512.841 460.209 513.02 460.746 513.199 460.746C529.334 461.284 546.366 460.388 562.501 458.598C563.576 458.24 563.756 456.628 562.501 456.628Z" fill="#2F5C75"/>
        <path d="M452.603 415.627C456.009 417.775 459.595 418.671 463.18 419.208C468.379 420.461 473.578 421.356 478.957 421.535C486.666 421.893 496.347 421.714 503.159 417.775C503.518 417.596 503.697 417.059 503.518 416.701C504.056 416.522 504.773 416.522 505.311 416.343C506.565 416.164 506.207 414.194 504.952 414.015C496.347 413.657 487.562 414.552 478.957 415.09C473.758 415.448 468.379 416.164 463.359 415.448C460.132 414.552 456.906 413.657 453.679 412.404C452.065 411.688 450.989 414.552 452.603 415.627Z" fill="#2F5C75"/>
        <path d="M501.009 421.535C501.905 421.356 501.547 420.103 500.65 420.282C498.32 420.64 495.989 420.998 493.659 421.356L475.193 422.251C473.042 422.251 470.89 422.251 468.56 422.072C468.022 422.072 467.843 422.968 468.38 422.968C479.316 424.579 490.431 423.863 501.009 421.535Z" fill="#2F5C75"/>
        <path d="M459.417 423.505C459.058 423.505 459.058 424.042 459.417 424.042C459.775 424.042 459.775 423.505 459.417 423.505Z" fill="#2F5C75"/>
        <path d="M457.803 423.684C457.444 423.326 457.265 423.147 456.906 422.789C456.727 422.61 456.548 422.789 456.727 422.968C457.086 423.326 457.265 423.505 457.623 423.863C457.623 424.221 457.982 423.863 457.803 423.684Z" fill="#2F5C75"/>
        <path d="M430.732 425.116C437.544 425.474 444.536 425.653 451.349 425.295C452.066 425.295 452.066 424.4 451.349 424.221C444.536 423.863 437.544 424.042 430.732 424.4C430.373 424.4 430.373 425.116 430.732 425.116Z" fill="#2F5C75"/>
        <path d="M406.529 426.012C413.7 426.012 420.871 425.295 428.042 424.758C428.401 424.758 428.401 424.042 428.042 424.221C420.871 424.579 413.7 424.579 406.529 425.295C405.991 425.295 405.991 426.012 406.529 426.012Z" fill="#2F5C75"/>
        <path d="M429.655 412.404C433.241 412.046 436.827 411.33 440.412 411.15C441.308 411.15 441.129 409.718 440.233 409.897C436.647 410.613 433.062 410.971 429.476 411.688C429.297 411.867 429.297 412.404 429.655 412.404Z" fill="#2F5C75"/>
        <path d="M368.701 417.059C387.346 418.85 405.812 416.164 424.098 413.12C424.098 413.299 424.277 413.299 424.277 413.299C425.711 412.941 427.325 412.762 428.759 412.225V412.046C427.683 412.046 426.608 412.225 425.532 412.583C425.532 412.404 425.353 412.225 425.174 412.404C424.098 412.583 423.022 412.762 422.126 412.941L377.306 416.164C374.438 416.164 371.57 416.343 368.88 416.343C368.343 416.343 368.343 417.059 368.701 417.059Z" fill="#2F5C75"/>
        <path d="M173.109 416.701C189.244 420.998 207.71 422.43 224.383 421.356C225.1 421.356 225.1 420.282 224.383 420.282C220.618 420.103 216.853 420.103 213.088 419.745L186.914 417.417C182.432 416.88 177.95 416.343 173.468 415.627C172.751 415.627 172.392 416.522 173.109 416.701Z" fill="#2F5C75"/>
        <path d="M231.553 420.461C241.951 420.103 252.529 419.924 262.927 419.208C263.465 419.208 263.644 418.133 262.927 418.312C252.529 418.491 241.951 419.208 231.553 419.745C231.015 419.566 231.015 420.461 231.553 420.461Z" fill="#2F5C75"/>
        <path d="M266.512 419.208C276.014 420.282 285.516 420.64 295.197 419.924C295.555 419.924 295.555 419.387 295.197 419.387C285.695 419.208 276.014 419.029 266.512 418.312C265.974 418.133 265.974 419.029 266.512 419.208Z" fill="#2F5C75"/>
        <path d="M317.607 420.103C320.834 420.103 324.24 420.282 327.467 420.103C328.005 420.103 328.005 419.387 327.467 419.387C324.24 419.208 320.834 419.387 317.607 419.387C317.069 419.208 317.069 420.103 317.607 420.103Z" fill="#2F5C75"/>
        <path d="M210.219 484.918C210.757 484.918 210.757 484.023 210.219 484.023C207.53 484.202 204.841 484.381 202.152 484.381H180.101C158.767 483.844 137.432 482.053 116.278 483.486C115.381 483.486 115.023 484.918 116.098 485.276C146.934 491.543 179.025 486.708 210.219 484.918Z" fill="#2F5C75"/>
        <path d="M255.935 494.587C246.971 494.049 238.007 494.049 229.043 494.408C228.147 494.408 228.147 495.84 229.043 495.84C238.007 496.198 246.971 496.198 255.935 495.482C256.473 495.482 256.473 494.587 255.935 494.587Z" fill="#2F5C75"/>
        <path d="M783.193 474.354C773.332 473.996 763.293 475.07 753.612 476.145C752.715 476.145 752.715 477.398 753.612 477.398C763.472 477.219 773.691 477.04 783.372 475.608C784.089 475.428 783.91 474.354 783.193 474.354Z" fill="#2F5C75"/>
        <path d="M569.492 437.47C568.775 437.65 569.133 438.545 569.671 438.545C582.221 439.977 595.667 439.261 608.216 438.187C610.188 438.008 610.188 435.322 608.216 435.143C595.487 435.143 582.041 435.143 569.492 437.47Z" fill="#2F5C75"/>
        <path d="M567.879 438.724C567.698 438.724 567.698 438.904 567.879 438.904C568.06 439.085 568.06 438.724 567.879 438.724Z" fill="#2F5C75"/>
        <path d="M561.604 440.335C562.321 440.335 562.501 439.082 561.604 439.082C554.075 439.44 546.545 439.619 539.195 440.335C538.477 440.335 538.477 441.409 539.195 441.409C546.724 441.409 554.254 440.693 561.604 440.335Z" fill="#2F5C75"/>
        <path d="M578.635 419.745C588.316 419.208 598.176 418.491 607.678 416.701C608.933 416.522 608.574 414.552 607.319 414.552C597.638 415.09 587.957 416.88 578.456 418.67C577.918 418.85 578.097 419.745 578.635 419.745Z" fill="#2F5C75"/>
        <path d="M202.152 443.2C202.869 443.021 202.69 441.947 201.972 441.947C197.491 442.126 192.65 441.768 188.347 442.842C187.63 443.021 187.63 444.274 188.347 444.453C192.829 445.349 198.028 444.274 202.152 443.2Z" fill="#2F5C75"/>
        <path d="M302.01 440.872C286.233 440.514 270.636 440.514 254.86 440.335C254.501 440.335 254.501 440.872 254.86 440.872C272.608 441.41 290.177 442.305 307.926 442.842C316.352 443.021 324.778 443.021 333.204 443.379C339.837 443.737 348.264 445.707 354.18 441.947C355.076 441.41 354.538 439.977 353.463 440.156C352.028 440.514 350.773 440.872 349.339 441.051L302.01 440.872Z" fill="#2F5C75"/>
        <path d="M314.201 438.008C319.221 438.187 324.241 438.724 329.261 438.187C330.157 438.187 330.157 436.933 329.261 436.933C324.241 436.575 319.221 436.933 314.201 437.112C313.663 437.291 313.663 438.008 314.201 438.008Z" fill="#2F5C75"/>
        <path d="M336.97 438.008C341.452 438.187 345.934 438.724 350.416 438.187C351.133 438.008 351.133 437.112 350.416 436.933C345.934 436.396 341.452 436.933 336.97 437.112C336.253 437.112 336.253 438.008 336.97 438.008Z" fill="#2F5C75"/>
        <path d="M437.723 448.75C437.902 448.75 437.902 448.392 437.723 448.392C437.544 448.392 437.544 448.75 437.723 448.75Z" fill="#2F5C75"/>
        <path d="M439.337 448.75C445.791 448.213 452.245 447.497 458.699 446.602C458.878 446.602 458.878 446.065 458.699 446.244C452.245 446.602 445.791 447.139 439.337 447.855C438.799 447.855 438.799 448.929 439.337 448.75Z" fill="#2F5C75"/>
        <path d="M476.448 445.886C476.627 445.886 476.806 445.348 476.448 445.348C473.4 444.811 469.994 445.348 467.125 445.886C467.125 445.886 467.125 445.886 466.946 445.886C466.946 445.886 466.946 445.707 466.767 445.707C465.333 445.169 463.54 445.707 462.106 446.065C461.747 446.244 461.926 446.602 462.285 446.602C463.002 446.423 463.719 446.244 464.615 446.244C465.333 446.244 466.05 446.423 466.767 446.244C466.946 446.244 466.946 446.244 466.946 446.065L467.125 446.244C470.173 446.423 473.579 446.781 476.448 445.886Z" fill="#2F5C75"/>
        <path d="M483.26 445.886C483.618 445.886 483.618 445.528 483.26 445.528C482.005 445.349 480.571 445.349 479.316 445.349C478.778 445.349 478.778 446.065 479.316 446.065C480.571 445.886 482.005 445.886 483.26 445.886Z" fill="#2F5C75"/>
        <path d="M346.291 477.577C348.443 476.861 350.594 476.503 352.925 476.324L357.407 476.145C363.323 476.145 369.418 476.682 374.976 476.503C383.94 476.145 394.696 477.04 403.302 474.533C403.84 474.354 404.019 473.459 403.302 473.28C398.461 472.385 393.441 473.101 388.422 473.459C382.685 473.817 376.948 474.175 371.211 474.354C362.785 474.891 353.283 472.027 345.395 475.966C344.678 476.324 345.216 477.935 346.291 477.577Z" fill="#2F5C75"/>
        <path d="M532.921 431.741C529.156 431.562 525.57 431.741 522.164 433.352C521.806 433.531 521.985 434.248 522.523 434.069C523.24 433.71 524.136 433.71 525.032 433.531L527.901 433.352C534.355 433.352 541.347 435.501 546.725 432.278C546.904 432.099 546.904 431.741 546.546 431.741C541.884 432.099 537.761 432.099 532.921 431.741Z" fill="#2F5C75"/>
        <path d="M549.772 431.383C550.848 431.025 551.923 430.846 552.999 430.488C553.358 430.309 553.178 429.771 552.82 429.771C551.744 430.129 550.669 430.309 549.593 430.667C549.234 430.846 549.414 431.562 549.772 431.383Z" fill="#2F5C75"/>
        <path d="M555.329 429.95C555.508 429.95 555.508 429.592 555.329 429.592C555.15 429.592 555.15 429.95 555.329 429.95Z" fill="#2F5C75"/>
        <path d="M561.963 410.613C565.549 410.434 569.134 410.255 572.899 410.076C575.23 409.897 577.202 409.36 579.532 408.823L590.648 408.107C591.723 408.107 592.62 408.107 593.695 408.107C594.054 408.107 594.054 407.749 593.695 407.749C588.138 407.032 582.939 407.211 577.381 408.286C574.154 408.823 571.106 409.36 567.879 409.539C566.266 409.539 564.832 409.718 563.218 409.718C562.859 409.718 561.963 409.897 560.708 410.076L557.481 410.255V410.076C557.481 410.076 557.481 410.076 557.481 409.897C557.302 409.718 557.123 409.539 556.943 409.718C556.943 409.718 556.764 409.718 556.764 409.897C556.405 410.076 556.405 410.434 556.764 410.792C558.019 411.509 560.17 410.613 561.963 410.613ZM557.302 410.255C557.481 410.255 557.481 410.255 557.481 410.255C557.302 410.255 557.302 410.255 557.302 410.255Z" fill="#2F5C75"/>
        <path d="M597.998 408.286C598.895 408.286 599.791 408.286 600.867 408.107C601.225 408.107 601.225 407.749 600.867 407.749C599.97 407.749 599.074 407.749 597.998 407.749C597.64 407.749 597.64 408.286 597.998 408.286Z" fill="#2F5C75"/>
        <path d="M361.53 431.383C363.681 431.204 365.653 430.667 367.625 430.309C367.984 430.309 368.163 430.13 368.522 430.13L371.748 429.95C373.9 429.95 375.872 430.13 378.202 430.488C384.656 431.025 390.393 430.13 396.489 428.697C397.027 428.518 396.847 427.802 396.31 427.802C384.477 429.055 372.466 426.37 361.171 430.13C360.633 430.13 360.813 431.383 361.53 431.383Z" fill="#2F5C75"/>
        <path d="M413.521 428.339C413.88 428.339 414.059 427.802 413.701 427.623C408.86 426.549 403.84 426.549 399 427.444C398.641 427.444 398.641 428.16 399.179 428.16C404.02 427.802 408.681 427.981 413.521 428.339Z" fill="#2F5C75"/>
        <path d="M400.254 444.632C408.321 444.99 416.209 444.095 424.277 443.2C431.269 443.021 438.081 442.663 445.073 441.947C445.611 441.947 445.611 441.051 445.073 441.051C441.488 441.231 437.902 441.41 434.317 441.589C423.739 440.514 413.162 439.619 402.764 442.305C402.226 442.305 401.867 442.305 401.329 442.305C400.792 442.305 400.612 442.663 400.612 443.021C400.433 443.021 400.433 443.021 400.254 443.021C399.178 443.2 399.357 444.453 400.254 444.632Z" fill="#2F5C75"/>
        <path d="M477.523 436.217C475.372 436.217 460.134 437.47 456.907 439.619C456.01 439.798 455.114 439.798 454.038 439.977C453.5 439.977 453.68 441.051 454.217 441.051C454.576 441.051 454.755 441.051 455.114 441.051C455.114 441.409 455.293 441.588 455.652 441.588C457.624 441.409 459.596 441.23 461.388 440.872C467.125 440.514 472.862 440.156 478.599 439.977C486.846 439.798 494.913 440.156 503.16 439.798C504.057 439.798 504.057 438.366 503.16 438.366C500.112 438.187 497.065 438.008 494.017 438.008C488.818 436.933 483.081 436.038 477.523 436.217Z" fill="#2F5C75"/>
        <path d="M97.0948 464.865C106.776 462 116.278 458.598 125.958 455.912C132.95 453.943 140.839 452.689 145.858 447.318C146.038 446.96 145.679 446.602 145.5 446.781C145.141 446.96 144.783 447.318 144.424 447.497L121.477 455.733C121.297 455.733 121.118 455.912 120.759 455.912C112.692 458.061 104.266 460.747 96.557 464.148C96.3777 464.328 96.7362 464.865 97.0948 464.865Z" fill="#2F5C75"/>
        <path d="M68.4113 471.131C70.9212 470.057 73.6104 468.804 76.1203 467.729L76.8374 467.371C78.0923 466.834 79.3473 466.476 80.4229 466.118C81.14 465.939 81.8571 465.581 82.7535 465.402C83.4706 465.223 83.8292 465.223 83.8292 465.044C84.1877 465.044 84.1878 465.044 84.9049 464.686C85.2634 464.506 85.0841 463.969 84.7256 463.969C78.9887 465.044 72.8933 467.192 68.0528 470.415C67.8735 470.773 68.0527 471.31 68.4113 471.131Z" fill="#2F5C75"/>
        <path d="M196.236 462.537L184.583 462.716C182.073 462.179 179.742 461.284 177.232 461.105C171.137 460.567 164.683 462.179 158.767 462.537C157.87 462.537 157.87 463.969 158.767 463.79C161.276 463.432 163.786 463.253 166.296 462.895L177.232 462.716C178.666 462.895 179.921 463.074 181.356 463.253C187.092 464.507 192.65 464.327 198.387 462.537C198.745 462.358 198.566 461.821 198.208 461.821C197.491 462.179 196.953 462.358 196.236 462.537Z" fill="#2F5C75"/>
        <path d="M267.769 460.031C261.673 460.031 255.757 460.21 249.661 460.568C249.303 460.568 249.303 460.926 249.661 461.105C255.757 461.821 261.852 461.642 267.948 460.926C268.306 460.747 268.306 460.031 267.769 460.031Z" fill="#2F5C75"/>
        <path d="M689.25 400.05C697.138 399.871 705.923 400.766 713.811 399.333C714.349 399.154 714.17 398.438 713.632 398.438C705.744 397.364 697.138 398.796 689.25 399.154C688.533 399.154 688.533 400.05 689.25 400.05Z" fill="#2F5C75"/>
        <path d="M718.651 399.512C727.078 399.871 736.042 399.871 744.468 398.975C745.005 398.975 745.005 398.259 744.468 398.259C736.042 397.722 727.078 397.901 718.651 398.796C718.114 398.796 718.114 399.512 718.651 399.512Z" fill="#2F5C75"/>
        <path d="M746.44 398.617C746.619 398.617 746.619 398.259 746.44 398.259C746.26 398.259 746.26 398.617 746.44 398.617Z" fill="#2F5C75"/>
        <path d="M727.616 406.674C721.521 407.211 716.501 405.242 710.764 404.705C705.565 404.168 700.724 405.242 695.525 406.495C694.449 406.674 694.629 408.644 695.884 408.465C702.517 407.749 708.254 408.465 714.887 409.181C719.19 409.718 724.03 409.539 727.975 407.749C728.333 407.391 728.154 406.674 727.616 406.674Z" fill="#2F5C75"/>
        <path d="M738.193 407.39C738.551 407.39 738.551 406.674 738.193 406.674C736.579 406.316 734.787 406.495 733.173 406.495C732.456 406.495 732.456 407.57 733.173 407.57C734.787 407.57 736.579 407.749 738.193 407.39Z" fill="#2F5C75"/>
        <path d="M689.249 430.309C701.082 429.771 712.735 428.876 724.567 429.234C724.926 429.234 724.926 428.697 724.567 428.697C713.093 426.907 700.544 426.548 688.891 428.518C688.174 428.876 688.353 430.309 689.249 430.309Z" fill="#2F5C75"/>
        <path d="M745.542 429.055C742.495 428.697 739.268 428.876 736.041 428.876C735.324 428.876 735.324 429.771 736.041 429.771C739.268 429.771 742.315 429.951 745.542 429.592C745.901 429.592 745.901 429.055 745.542 429.055Z" fill="#2F5C75"/>
        <path d="M772.255 424.221C773.689 424.937 775.123 425.116 776.736 424.758C777.454 424.579 777.274 423.684 776.557 423.684C775.123 424.042 773.689 424.042 772.255 423.684C772.075 423.684 772.075 424.042 772.255 424.221Z" fill="#2F5C75"/>
        <path d="M728.154 423.684C734.608 423.505 741.241 423.326 747.695 423.326L764.906 423.684C766.698 423.684 768.67 423.863 770.463 424.042C770.822 424.042 770.642 423.684 770.463 423.684C756.3 422.43 742.496 421.714 728.154 422.43C727.257 422.43 727.257 423.684 728.154 423.684Z" fill="#2F5C75"/>
        <path d="M787.853 406.137C786.599 406.137 785.164 406.137 783.91 406.137C783.551 406.137 783.551 406.674 783.91 406.674C785.164 406.674 786.599 406.674 787.853 406.674C788.212 406.674 788.212 406.137 787.853 406.137Z" fill="#2F5C75"/>
        <path d="M778.351 407.033C778.53 407.033 778.53 406.674 778.351 406.674C777.992 406.674 777.992 407.033 778.351 407.033Z" fill="#2F5C75"/>
        <path d="M764.905 407.749C767.952 407.928 770.821 407.749 773.869 407.749C774.227 407.749 774.227 407.211 773.869 407.211C770.821 407.211 767.952 407.032 764.905 407.211C764.546 407.211 764.546 407.569 764.905 407.749Z" fill="#2F5C75"/>
        <path d="M788.211 396.29C786.239 396.29 784.267 396.29 782.295 396.29C781.578 396.29 781.578 397.364 782.295 397.364C784.267 397.543 786.239 397.364 788.211 397.364C788.928 397.543 788.928 396.29 788.211 396.29Z" fill="#2F5C75"/>
        <path d="M745.365 438.903C744.827 439.082 745.006 439.798 745.544 439.798C757.197 440.335 769.209 440.335 780.862 439.798C782.296 439.798 782.296 437.649 780.862 437.47C769.388 436.396 756.659 437.112 745.365 438.903Z" fill="#2F5C75"/>
        <path d="M741.598 439.977C735.324 439.798 729.049 439.44 722.774 439.44C722.416 439.44 722.416 439.977 722.774 439.977C729.049 440.514 735.324 440.693 741.598 440.872C742.136 440.872 742.136 439.977 741.598 439.977Z" fill="#2F5C75"/>
        <path d="M715.783 440.335C716.5 440.335 716.5 439.261 715.783 439.261C714.528 439.261 713.094 439.261 711.839 439.44C711.301 439.44 711.301 440.156 711.839 440.335C713.094 440.335 714.349 440.335 715.783 440.335Z" fill="#2F5C75"/>
        <path d="M663.255 444.095C664.33 443.916 663.972 442.305 663.075 442.305C654.829 442.842 646.582 442.484 638.156 442.663C637.439 442.663 637.259 443.737 637.977 443.916C646.044 445.707 655.187 445.348 663.255 444.095Z" fill="#2F5C75"/>
        <path d="M651.063 415.985C658.593 415.985 665.943 415.627 673.473 415.448C674.19 415.448 674.19 414.373 673.473 414.373C665.943 414.552 658.413 414.552 651.063 415.269C650.525 415.448 650.525 415.985 651.063 415.985Z" fill="#2F5C75"/>
        <path d="M646.045 416.165C646.225 416.165 646.225 415.985 646.045 415.985C645.865 415.985 645.865 416.165 646.045 416.165Z" fill="#2F5C75"/>
        <path d="M611.084 417.775C620.407 418.67 630.088 417.954 639.41 417.059C639.769 417.059 639.769 416.522 639.41 416.522C629.908 416.522 620.407 415.985 611.084 416.522C610.367 416.522 610.367 417.596 611.084 417.775Z" fill="#2F5C75"/>
        <path d="M137.432 433.71C134.026 433.352 130.799 432.994 127.572 432.636L114.664 430.667C112.513 430.309 110.361 429.771 108.21 429.234C107.672 429.055 107.672 429.771 108.031 429.95C117.532 433.173 127.393 435.143 137.432 434.606C137.97 434.606 137.97 433.889 137.432 433.71Z" fill="#2F5C75"/>
        <path d="M398.281 499.421C395.234 499.421 392.365 499.063 389.318 498.884C388.6 498.884 388.6 499.779 389.138 499.958C392.186 500.853 395.234 500.674 398.281 500.495C398.998 500.495 398.998 499.421 398.281 499.421Z" fill="#2F5C75"/>
        <path d="M383.939 499.421C383.043 499.242 382.326 499.063 381.429 499.063C381.25 499.063 381.25 499.242 381.429 499.242C382.326 499.421 383.043 499.6 383.939 499.779C384.118 499.779 384.118 499.421 383.939 499.421Z" fill="#2F5C75"/>
        <path d="M374.976 498.168C364.398 497.63 353.104 497.809 342.526 499.6C342.168 499.6 342.347 500.137 342.526 500.137C353.283 500.137 364.219 499.421 374.796 498.884C375.513 498.884 375.513 498.168 374.976 498.168Z" fill="#2F5C75"/>
        <path d="M330.157 498.347C325.137 498.168 320.297 497.988 315.277 497.809C315.098 497.809 315.098 498.168 315.277 498.168C320.297 498.526 325.137 498.705 330.157 498.884C330.516 499.063 330.516 498.347 330.157 498.347Z" fill="#2F5C75"/>
        <path d="M292.33 491.901C286.951 491.543 281.752 491.006 276.374 491.185C275.657 491.185 275.657 492.259 276.374 492.259C281.573 492.796 286.951 492.617 292.33 492.796C292.867 492.796 292.867 491.901 292.33 491.901Z" fill="#2F5C75"/>
        <path d="M92.0757 493.333C78.9884 493.154 65.7219 492.796 52.8139 493.87C51.9175 493.87 51.9175 495.303 52.8139 495.303C65.9012 495.84 78.9884 494.945 92.0757 494.408C92.6136 494.408 92.6136 493.333 92.0757 493.333Z" fill="#2F5C75"/>
        <path d="M405.633 461.284C405.275 461.284 405.275 461.821 405.633 461.642C415.135 460.926 424.637 461.105 433.959 459.851C434.676 459.851 434.676 458.777 433.959 458.777C424.637 458.956 415.135 460.388 405.633 461.284Z" fill="#2F5C75"/>
        <g opacity="0.42">
            <path opacity="0.42" d="M327.289 465.939C317.608 465.402 307.748 465.044 298.067 464.865C292.151 464.865 282.29 463.074 277.271 466.655C276.912 466.834 277.271 467.371 277.629 467.192C280.856 465.223 286.772 466.476 290.537 466.655C294.84 466.834 298.963 466.834 303.266 466.834C311.333 467.013 319.401 467.192 327.468 467.371C328.365 467.371 328.185 466.118 327.289 465.939Z" fill="white"/>
            <path opacity="0.42" d="M97.4546 484.023C87.7736 483.486 77.9134 483.128 68.2324 482.948C62.3162 482.948 52.4559 481.158 47.4361 484.739C47.0776 484.918 47.4361 485.455 47.7946 485.276C51.0216 483.307 56.9378 484.56 60.7027 484.739C65.0053 484.918 69.1287 484.918 73.4314 484.918C81.4989 485.097 89.5664 485.276 97.6339 485.455C98.351 485.455 98.351 484.023 97.4546 484.023Z" fill="white"/>
            <path opacity="0.42" d="M206.276 453.764C199.642 451.794 192.65 452.689 185.659 452.868C177.95 453.048 170.599 453.227 162.89 452.152C161.456 451.973 160.918 454.659 162.532 454.838C169.524 455.912 176.336 455.554 183.328 454.838C191.037 454.122 198.387 454.48 206.096 454.48C206.813 454.659 206.993 453.764 206.276 453.764Z" fill="white"/>
            <path opacity="0.42" d="M280.139 453.585C284.084 454.122 288.207 454.48 292.33 454.659C293.765 454.659 293.585 452.689 292.33 452.51C288.386 451.973 284.442 451.615 280.498 451.615C279.243 451.615 279.064 453.406 280.139 453.585Z" fill="white"/>
            <path opacity="0.42" d="M402.048 440.693C405.454 439.44 408.86 439.44 412.446 438.903C413.163 438.724 413.163 437.649 412.446 437.649C408.86 437.112 405.096 438.366 401.689 439.619C400.972 439.798 401.331 441.051 402.048 440.693Z" fill="white"/>
            <path opacity="0.42" d="M419.616 438.724C426.787 439.619 433.958 439.261 441.13 438.903C447.225 438.545 453.5 438.545 459.416 436.754C460.133 436.575 460.133 435.143 459.236 435.322C445.97 437.112 432.524 435.501 419.437 437.65C418.899 437.65 419.078 438.724 419.616 438.724Z" fill="white"/>
            <path opacity="0.42" d="M462.644 435.143C462.106 435.143 462.106 435.859 462.644 435.859C467.484 435.501 472.145 434.964 476.986 434.248C477.165 434.248 477.165 433.71 476.986 433.71C472.145 434.069 467.484 434.427 462.644 435.143Z" fill="white"/>
            <path opacity="0.42" d="M217.749 439.619C227.251 440.872 237.111 440.156 246.613 439.261C251.454 438.903 255.936 438.008 260.776 438.366C267.051 438.724 273.146 439.261 279.242 440.156C279.959 440.335 280.317 439.082 279.6 438.903C269.919 436.038 260.059 436.754 250.199 436.575C239.621 436.396 228.865 437.112 218.108 437.112C216.674 436.933 216.315 439.261 217.749 439.619Z" fill="white"/>
            <path opacity="0.42" d="M348.982 422.072C359.918 421.714 371.033 422.251 382.148 421.177C382.686 421.177 382.686 420.461 382.148 420.461C371.212 419.566 360.097 420.64 348.982 420.461C347.906 420.461 347.906 422.072 348.982 422.072Z" fill="white"/>
            <path opacity="0.42" d="M400.434 420.819C400.972 420.819 400.972 420.103 400.434 420.103C395.056 420.461 389.498 420.819 384.12 420.819V420.998C389.677 421.356 394.876 421.356 400.434 420.819Z" fill="white"/>
            <path opacity="0.42" d="M481.467 477.756C461.567 475.608 441.667 475.249 421.767 477.756C420.512 477.935 420.512 479.905 421.767 479.726C441.667 478.651 461.567 477.935 481.467 478.472C482.005 478.472 482.005 477.756 481.467 477.756Z" fill="white"/>
            <path opacity="0.42" d="M493.3 477.756C493.659 477.756 493.659 477.219 493.3 477.219C493.121 477.219 493.121 477.756 493.3 477.756Z" fill="white"/>
            <path opacity="0.42" d="M501.726 475.966C501.368 476.145 501.547 476.503 501.905 476.503C505.312 475.787 508.718 475.607 512.304 475.07C513.021 475.07 513.021 473.996 512.304 473.996C508.539 474.175 505.132 475.07 501.726 475.966Z" fill="white"/>
            <path opacity="0.42" d="M603.017 450.899C593.516 452.869 583.297 452.69 573.437 453.048C563.935 453.406 554.254 453.943 544.752 454.838C544.035 454.838 544.035 455.912 544.752 455.912C564.114 456.091 584.193 456.45 603.197 451.794C603.734 451.794 603.555 450.899 603.017 450.899Z" fill="white"/>
            <path opacity="0.42" d="M553 436.217C564.474 435.68 576.127 434.785 587.601 433.71C588.856 433.531 588.856 431.92 587.601 431.741C576.485 431.025 563.757 432.278 552.821 434.785C552.104 434.964 552.283 436.217 553 436.217Z" fill="white"/>
            <path opacity="0.42" d="M519.475 425.653C535.072 425.474 551.027 425.832 566.445 424.221C567.162 424.221 567.162 423.147 566.445 423.147C550.848 422.43 535.072 423.684 519.475 424.4C518.578 424.221 518.578 425.653 519.475 425.653Z" fill="white"/>
            <path opacity="0.42" d="M789.826 469.878C783.192 470.236 776.559 471.668 769.926 472.206C763.292 472.743 756.48 472.564 749.847 473.101C749.13 473.101 748.95 474.175 749.667 474.354C762.217 476.145 777.993 475.249 790.184 471.489C790.901 471.31 790.722 469.699 789.826 469.878Z" fill="white"/>
            <path opacity="0.42" d="M737.118 452.152C745.006 451.794 752.715 451.078 760.424 450.362C760.783 450.362 760.783 449.825 760.424 449.825C747.695 450.004 735.325 450.183 722.776 448.93C711.84 447.855 701.979 448.034 691.223 450.72C691.043 450.72 690.864 450.72 690.685 450.72C689.968 450.72 689.968 451.794 690.685 451.794C690.685 451.973 690.864 451.973 691.043 451.973C695.525 453.585 699.649 452.331 704.31 451.794C710.585 450.899 716.501 452.152 722.776 452.331C727.258 452.51 731.56 452.331 736.042 452.152C736.221 452.152 736.401 452.152 736.58 452.152C736.939 452.152 737.118 452.152 737.118 452.152Z" fill="white"/>
            <path opacity="0.42" d="M731.202 435.143C723.493 435.68 715.246 435.68 707.537 436.754C706.82 436.933 706.999 438.008 707.716 438.008C715.784 438.545 724.21 437.829 732.277 437.47C741.062 437.112 749.488 436.754 758.093 435.68C758.811 435.68 758.99 434.427 758.093 434.427C748.95 434.427 740.166 434.606 731.202 435.143Z" fill="white"/>
            <path opacity="0.42" d="M762.934 450.362C763.113 450.362 763.113 450.183 762.934 450.183V450.362Z" fill="white"/>
            <path opacity="0.42" d="M767.954 450.183C769.747 450.004 771.719 450.004 773.512 449.646C773.87 449.646 773.691 449.109 773.512 449.109C771.719 449.109 769.926 449.467 768.133 449.646C767.595 449.646 767.595 450.183 767.954 450.183Z" fill="white"/>
            <path opacity="0.42" d="M775.841 449.467C776.559 449.646 777.276 449.467 777.813 449.467C778.172 449.467 778.172 448.929 777.813 448.929C777.096 448.929 776.379 448.929 775.841 448.929C775.662 449.108 775.662 449.467 775.841 449.467Z" fill="white"/>
            <path opacity="0.42" d="M704.131 420.64C705.565 420.64 705.565 418.491 704.131 418.491C694.809 418.491 684.769 416.522 675.626 418.133C672.758 418.67 670.606 419.566 667.738 419.566C665.587 419.566 663.794 418.85 661.822 418.671C657.34 418.312 653.575 421.356 649.093 420.819C648.376 420.64 648.197 421.535 648.735 421.893C651.782 422.789 654.651 422.61 657.698 422.072C662.001 421.535 665.766 423.505 670.069 422.789C675.805 421.714 680.825 420.998 686.741 420.998C692.657 420.819 698.394 420.461 704.131 420.64Z" fill="white"/>
            <path opacity="0.42" d="M594.772 413.12C615.926 409.718 637.798 411.33 659.312 409.897C660.388 409.897 660.388 408.286 659.312 408.286C637.619 407.39 615.926 407.928 594.592 412.225C593.875 412.225 594.054 413.12 594.772 413.12Z" fill="white"/>
            <path opacity="0.42" d="M701.261 394.499C712.376 394.499 723.312 394.499 734.427 394.32C745.363 394.141 756.658 394.32 767.594 393.425C768.311 393.425 768.311 392.35 767.594 392.35C756.658 391.813 745.363 392.53 734.427 392.709C723.312 392.888 712.376 393.246 701.261 393.604C700.544 393.425 700.544 394.499 701.261 394.499Z" fill="white"/>
            <path opacity="0.42" d="M687.817 395.931C690.327 395.752 693.016 395.931 695.347 395.215C696.243 395.036 695.885 393.783 695.167 393.783C692.658 393.425 690.148 393.962 687.817 394.141C686.741 394.32 686.741 396.11 687.817 395.931Z" fill="white"/>
            <path opacity="0.42" d="M264.542 478.114C219.005 480.8 173.468 471.489 127.932 479.188C127.215 479.368 127.573 480.263 128.111 480.084C173.289 473.28 219.005 484.56 264.362 479.188C265.259 479.188 265.438 477.935 264.542 478.114Z" fill="white"/>
            <path opacity="0.42" d="M271.891 497.451C257.19 498.347 242.848 498.526 228.147 498.884C226.892 498.884 226.892 500.853 228.147 500.853C242.489 502.107 257.549 501.391 271.891 499.421C272.967 499.063 273.146 497.272 271.891 497.451Z" fill="white"/>
            <path opacity="0.42" d="M327.468 500.674C322.268 500.674 317.069 500.674 311.87 501.569C311.153 501.748 311.512 502.644 312.05 502.644C317.249 503.002 322.448 502.286 327.468 501.928C328.005 501.569 328.185 500.674 327.468 500.674Z" fill="white"/>
            <path opacity="0.42" d="M147.473 494.945C139.047 493.333 129.904 493.333 121.478 494.945C121.119 494.945 121.299 495.482 121.478 495.482C130.083 496.198 138.868 496.377 147.294 496.019C147.832 496.019 148.011 495.124 147.473 494.945Z" fill="white"/>
            <path opacity="0.42" d="M178.847 496.377C170.063 495.84 161.278 495.303 152.494 494.228C152.135 494.228 152.135 494.766 152.494 494.766C161.278 496.914 170.063 498.168 179.027 497.63C179.564 497.63 179.564 496.377 178.847 496.377Z" fill="white"/>
            <path opacity="0.42" d="M126.139 426.549C117.354 426.011 108.57 425.474 99.785 424.4C99.4265 424.4 99.4265 424.937 99.785 424.937C108.57 427.086 117.354 428.339 126.318 427.802C127.035 427.802 127.035 426.549 126.139 426.549Z" fill="white"/>
            <path opacity="0.42" d="M405.633 458.956C404.737 458.956 404.737 460.388 405.633 460.388C421.051 460.747 436.469 460.389 451.887 459.851C452.962 459.851 452.962 458.24 451.887 458.24C436.469 458.24 421.051 458.24 405.633 458.956Z" fill="white"/>
            <path opacity="0.42" d="M457.982 458.24C457.623 458.24 457.623 458.777 457.982 458.777C466.229 459.135 474.655 458.598 482.722 457.166C483.26 457.166 483.081 456.27 482.543 456.27C474.475 456.987 466.229 457.524 457.982 458.24Z" fill="white"/>
            <path opacity="0.42" d="M409.399 494.766C398.283 493.691 386.989 493.87 375.694 494.228C365.476 494.586 354.36 494.049 344.321 496.377C343.424 496.556 343.604 497.809 344.5 497.988C355.077 498.884 366.193 497.093 376.77 496.735C387.527 496.377 398.463 496.556 409.219 495.84C410.116 495.661 410.116 494.766 409.399 494.766Z" fill="white"/>
            <path opacity="0.42" d="M420.514 494.05C418.542 494.229 416.749 494.587 414.777 494.766C414.418 494.766 414.418 495.661 414.956 495.482C416.928 495.303 418.721 495.124 420.693 494.945C421.231 494.945 421.052 494.05 420.514 494.05Z" fill="white"/>
            <path opacity="0.42" d="M423.56 493.691C423.201 493.691 423.201 494.229 423.56 494.05C423.919 494.05 423.919 493.691 423.56 493.691Z" fill="white"/>
            <path opacity="0.42" d="M435.214 493.691C433.78 493.691 432.346 493.691 430.912 493.691C430.733 493.691 430.733 494.049 430.912 494.049C432.346 494.049 433.78 494.049 435.214 494.049C435.573 494.049 435.573 493.691 435.214 493.691Z" fill="white"/>
            <path opacity="0.42" d="M445.612 492.438C443.282 492.796 441.13 493.333 438.8 493.691C438.621 493.691 438.621 494.05 438.979 494.05C441.31 493.691 443.461 493.333 445.792 492.975C446.329 493.154 446.15 492.438 445.612 492.438Z" fill="white"/>
            <path opacity="0.42" d="M431.448 419.029C446.508 418.671 461.388 417.775 476.447 417.238C477.164 417.238 477.164 415.985 476.447 415.985C461.388 415.985 446.329 416.522 431.448 417.954C430.731 417.954 430.731 419.029 431.448 419.029Z" fill="white"/>
            <path opacity="0.42" d="M461.567 408.107C465.332 408.286 468.917 408.465 472.682 408.107C473.399 408.107 473.399 407.212 472.682 407.212C468.917 407.032 465.332 407.211 461.567 407.391C461.029 407.211 461.029 408.107 461.567 408.107Z" fill="white"/>
            <path opacity="0.42" d="M287.848 417.775C296.632 418.133 305.596 417.417 314.381 417.596C323.165 417.596 332.129 417.596 340.914 417.059C341.631 417.059 341.631 415.985 340.914 415.985C332.129 415.806 323.165 415.985 314.381 416.343C305.596 416.701 296.632 416.343 287.848 417.059C287.31 417.059 287.31 417.775 287.848 417.775Z" fill="white"/>
            <path opacity="0.42" d="M170.6 429.413C182.791 430.667 195.519 431.741 207.71 430.13C208.248 430.13 208.427 429.234 207.71 429.234C186.914 427.623 162.532 431.204 143.887 419.924C142.991 419.387 142.274 420.64 143.17 421.177C151.238 426.907 160.739 428.339 170.6 429.413Z" fill="white"/>
            <path opacity="0.42" d="M211.296 429.95C217.392 430.129 223.666 430.309 229.762 430.309C230.479 430.309 230.479 429.055 229.762 429.055C223.666 429.055 217.392 429.234 211.296 429.413C210.938 429.413 210.938 429.95 211.296 429.95Z" fill="white"/>
            <path opacity="0.42" d="M478.958 427.981C491.329 428.697 504.237 429.592 516.607 429.055C517.324 429.055 517.324 427.981 516.607 427.981C504.237 426.728 491.329 426.907 478.958 426.728C478.062 426.728 478.062 427.981 478.958 427.981Z" fill="white"/>
            <path opacity="0.42" d="M621.484 489.573C608.217 488.857 595.13 487.783 582.043 486.888C581.146 486.888 581.146 488.141 581.864 488.32C594.413 491.364 608.755 491.901 621.484 490.469C621.843 490.11 622.022 489.573 621.484 489.573Z" fill="white"/>
            <path opacity="0.42" d="M628.834 489.932C629.014 489.932 629.014 489.752 628.834 489.932C628.834 489.752 628.834 489.932 628.834 489.932Z" fill="white"/>
            <path opacity="0.42" d="M651.601 488.141C644.609 488.499 637.618 488.678 630.626 489.573C630.267 489.573 630.267 490.11 630.626 490.11C637.618 489.931 644.609 489.036 651.601 488.499C651.96 488.499 651.96 488.141 651.601 488.141Z" fill="white"/>
            <path opacity="0.42" d="M728.692 481.337C718.652 484.023 708.613 485.634 698.394 487.783C698.035 487.783 698.215 488.32 698.394 488.32C708.792 487.783 719.011 485.097 728.871 482.053C729.588 482.053 729.23 481.158 728.692 481.337Z" fill="white"/>
            <path opacity="0.42" d="M694.27 488.141C690.326 488.499 686.561 488.32 682.617 487.783C682.438 487.783 682.438 487.962 682.617 487.962C686.382 488.678 690.506 488.678 694.45 488.499C694.45 488.678 694.45 488.141 694.27 488.141Z" fill="white"/>
            <path opacity="0.42" d="M495.989 415.09C507.463 418.671 520.909 419.208 532.562 416.164C532.921 415.985 532.921 415.448 532.383 415.448C519.833 416.343 508.718 415.985 496.169 413.836C495.451 413.836 495.093 414.911 495.989 415.09Z" fill="white"/>
            <path opacity="0.42" d="M534.354 416.164C535.429 416.164 536.326 415.806 537.401 415.627C538.656 415.448 539.911 415.269 541.345 415.09C541.704 415.09 541.704 414.731 541.345 414.731C539.194 414.552 536.146 414.731 534.354 415.985C534.174 415.985 534.174 416.164 534.354 416.164Z" fill="white"/>
            <path opacity="0.42" d="M515.889 492.08C504.953 494.049 494.555 495.84 483.26 495.661C482.543 495.661 482.543 496.735 483.26 496.735C494.196 497.272 505.67 496.735 516.068 493.154C516.965 492.975 516.606 492.08 515.889 492.08Z" fill="white"/>
            <path opacity="0.42" d="M562.322 493.333C547.442 495.124 532.562 488.32 517.682 491.722C517.324 491.722 517.503 492.259 517.682 492.259C532.742 490.468 547.442 496.735 562.322 494.587C563.219 494.408 563.04 493.333 562.322 493.333Z" fill="white"/>
            <path opacity="0.42" d="M517.86 458.598C511.586 458.24 505.49 458.24 499.395 458.598C498.499 458.598 498.499 460.03 499.395 460.03C505.67 460.21 511.765 460.21 517.86 459.851C518.578 459.851 518.578 458.598 517.86 458.598Z" fill="white"/>
            <path opacity="0.42" d="M523.418 447.139C521.984 447.139 522.163 449.288 523.418 449.288C524.852 449.288 526.287 449.288 527.721 449.108C528.976 449.108 528.976 447.318 527.721 447.318C526.287 447.139 524.852 447.139 523.418 447.139Z" fill="white"/>
        </g>
        <path d="M812.056 284.743C805.243 283.669 798.43 281.341 791.618 280.804C790.542 274.179 785.881 272.389 779.785 274C777.634 262.72 774.586 253.947 761.678 253.768C755.583 253.768 749.667 254.842 745.006 259.318C741.062 263.078 739.627 268.808 736.4 272.747C729.767 267.734 720.445 270.24 714.887 275.791C712.736 277.939 712.019 281.52 708.612 281.699C705.565 281.878 703.592 278.834 700.724 277.939C693.374 275.791 688.892 280.625 683.513 284.564C678.314 288.503 672.757 288.324 666.661 289.219C660.566 290.114 651.423 292.084 646.403 291.547L646.582 291.01L645.327 293.516C645.686 297.814 662.538 295.486 665.227 295.307C694.629 294.054 724.209 295.665 753.611 292.084C766.34 290.473 779.068 290.114 791.797 290.114C798.61 290.114 805.602 289.398 812.414 289.219C816.537 289.04 820.84 289.756 824.426 287.966C822.095 285.459 815.641 285.459 812.056 284.743Z" fill="#FFC362"/>
        <path d="M149.982 310.168C142.99 304.975 142.99 301.036 132.413 301.036C127.573 301.036 128.469 303.185 123.628 302.111C120.043 301.395 116.995 297.814 113.051 296.918C103.729 294.949 98.171 298.351 95.1233 306.945C85.4423 302.648 80.2432 309.273 73.2513 313.212C67.6937 316.435 52.8137 316.614 51.2002 321.806C55.1443 322.343 59.447 322.343 63.3911 322.701H74.8648C92.0755 320.195 111.258 321.806 128.648 321.985C138.867 321.985 169.703 324.134 177.591 318.404C178.308 315.181 155.361 314.107 149.982 310.168Z" fill="#FFC362"/>
        <path d="M280.866 247.725C267.42 245.756 254.333 245.756 240.887 246.293C240.528 245.756 239.99 245.398 239.094 245.219C230.309 243.786 220.987 242.891 212.023 243.249C207.541 243.428 203.418 244.682 198.936 245.04C196.784 245.219 194.812 245.04 192.84 245.04C186.924 243.965 180.47 245.219 174.733 245.756C172.94 245.935 171.148 246.114 169.355 246.114L163.259 245.935C162.542 245.756 161.646 245.756 160.75 245.577C151.427 243.786 142.822 240.205 133.499 238.236C121.846 235.55 110.014 235.192 98.3609 236.445C92.8033 245.398 87.7835 254.887 83.6602 265.272C95.1339 264.914 106.428 263.84 117.902 263.482C122.384 263.302 126.866 262.944 131.348 262.586L184.594 262.049C188.358 262.049 192.123 262.049 195.888 261.87L210.41 261.691C222.6 262.049 234.791 263.482 246.982 262.586C248.237 262.407 248.775 260.438 247.341 260.08C233.536 257.573 219.194 258.826 205.21 257.394C198.219 256.678 191.048 256.32 183.876 256.141C183.339 255.424 182.801 254.708 182.263 254.171C186.207 253.634 190.151 252.918 193.737 251.306C194.454 251.127 195.171 250.948 195.709 250.948L204.135 250.232C205.39 250.232 206.824 250.411 208.258 250.411C217.939 251.306 228.337 251.127 238.198 250.769C238.915 250.769 239.453 250.411 239.99 250.053C250.926 250.59 262.221 248.979 273.157 247.725C275.667 247.725 278.177 247.725 280.686 247.725C281.045 248.262 281.224 247.725 280.866 247.725ZM142.284 245.577C142.284 245.398 142.105 245.398 142.105 245.219L146.049 245.398C146.407 245.398 146.766 245.577 147.124 245.577C145.511 245.577 143.897 245.577 142.284 245.577ZM150.351 247.188C150.172 246.83 149.993 246.472 149.634 246.293C150.71 246.472 151.965 246.83 153.041 247.009C152.144 247.009 151.248 247.009 150.351 247.188Z" fill="#FFC362"/>
        <path d="M546.545 186.446C537.582 185.73 528.259 187.52 519.116 188.237C509.973 188.774 500.83 188.416 491.687 189.132C491.149 189.132 491.149 189.848 491.687 190.027C501.188 190.564 510.869 189.669 520.371 189.49C528.976 189.311 538.299 189.848 546.725 187.879C547.621 187.879 547.442 186.625 546.545 186.446Z" fill="#FFC362"/>
        <path d="M553.537 185.551C524.673 186.446 495.63 187.162 466.766 187.52H464.256C463.18 187.52 462.105 187.341 461.029 187.341C458.519 186.625 456.009 186.088 453.499 185.372C453.32 185.372 453.141 185.193 452.782 185.193C452.603 184.118 453.858 183.044 456.189 182.328H456.368L492.403 181.97C493.12 181.97 493.837 181.97 494.554 181.97C494.554 181.97 494.554 181.97 494.554 181.791C486.487 181.075 478.419 180.537 470.352 180C472.324 180 474.116 180 476.089 179.821C497.064 179.284 517.681 176.598 538.656 175.345C539.374 175.345 539.374 174.271 538.656 174.271C517.86 175.882 496.885 175.524 476.089 176.061C455.292 176.598 434.317 177.673 413.521 177.852C413.162 177.852 412.983 178.21 412.983 178.389C397.386 178.389 381.609 179.105 366.55 182.328C365.833 182.507 366.012 183.581 366.729 183.581C372.825 183.402 378.741 183.044 384.836 182.865H393.083C400.254 184.297 407.963 184.297 415.134 185.014H415.313C415.313 185.193 415.313 185.372 415.493 185.551C414.417 185.909 413.341 186.088 412.266 186.446C411.548 186.625 411.19 187.162 411.19 187.878L411.011 188.057C409.218 188.057 407.246 188.237 405.453 188.237C405.274 188.237 405.094 188.237 404.915 188.237C396.489 188.057 388.063 188.416 380.175 190.206C379.279 190.385 379.458 191.817 380.354 191.817C386.27 191.997 392.366 191.459 398.282 191.101H403.302C403.481 191.997 404.198 192.534 405.274 192.713C431.986 192.892 458.878 192.534 485.59 191.28C486.845 191.28 488.1 191.28 489.355 191.28C490.789 191.28 492.403 191.28 493.837 191.28C494.913 191.28 496.168 191.459 497.243 191.459C497.423 191.459 497.602 191.28 497.602 191.28C516.067 190.922 534.354 190.206 552.64 187.699C552.999 187.699 553.178 187.341 553.357 187.162C553.536 187.162 553.716 187.162 553.895 187.162C554.612 186.983 554.612 185.551 553.537 185.551ZM437.544 186.625C437.902 186.625 438.44 186.625 438.799 186.625V186.804C437.902 186.804 437.006 186.804 436.11 186.804C436.468 186.804 437.006 186.625 437.544 186.625Z" fill="#FFC362"/>
        <path d="M691.663 426.637L636.883 428L634 423.366L694.284 421.731L691.663 426.637Z" fill="#2C2E55"/>
        <path d="M659.56 363.376V417.872L638.823 414.45L659.56 363.376Z" fill="#2C2E55"/>
        <path d="M666.63 414.496L665.83 364.34L686.085 410.079L666.63 414.496Z" fill="#2C2E55"/>
        <path d="M662.664 424.624C662.202 424.624 661.971 424.101 661.971 423.839V360.785C661.971 360.262 662.433 360 662.664 360C663.126 360 663.357 360.523 663.357 360.785V423.839C663.587 424.101 663.126 424.624 662.664 424.624Z" fill="#2C2E55"/>
        <path d="M358.842 168.183C355.435 168.362 351.85 168.362 348.444 168.541C343.244 167.825 338.225 166.035 333.205 164.602C326.213 162.454 319.759 161.379 312.409 162.096C297.887 163.349 287.131 151.711 272.43 155.292C267.589 156.545 263.466 157.261 258.446 156.724C254.681 156.187 250.916 155.292 246.972 154.934C241.773 154.397 236.574 154.397 231.375 154.755C213.985 160.484 197.492 167.825 182.253 177.136C187.631 176.957 193.189 176.599 198.567 176.419C198.747 176.599 199.105 176.598 199.464 176.598C206.635 176.419 213.806 176.061 220.798 175.345C251.633 173.913 282.469 172.48 313.305 171.585C313.664 171.764 314.022 171.943 314.56 171.943C317.07 171.764 319.58 171.585 321.91 171.406C329.799 171.227 337.687 171.048 345.575 170.869C349.878 171.585 354.18 171.585 358.842 170.69C360.455 170.332 360.097 168.183 358.842 168.183ZM197.133 173.555C196.237 173.555 195.34 173.734 194.265 173.734C195.161 173.555 196.237 173.376 197.133 173.197C197.312 173.376 197.312 173.376 197.133 173.555Z" fill="#FFC362"/>
        <path d="M389.139 338.815C378.92 336.667 369.239 335.413 358.841 335.771C356.869 335.95 354.718 336.309 352.746 336.13C347.188 335.592 349.339 334.518 345.933 333.802C343.961 333.265 343.961 333.444 341.81 333.265C338.224 332.907 338.583 333.086 336.431 331.832C331.95 329.326 327.826 326.103 322.627 329.326C319.579 331.295 317.966 334.697 318.504 337.92C317.787 337.562 316.89 337.204 316.173 337.025C308.106 331.653 293.226 338.815 286.055 341.859C284.083 342.754 284.8 345.261 286.951 345.082C290.178 344.545 293.584 344.187 296.811 344.008C327.826 343.829 358.483 341.501 389.318 339.531C389.498 339.531 389.677 338.994 389.139 338.815Z" fill="#FFC362"/>
    </g>
    <defs>
        <linearGradient id="paint0_linear" x1="845.334" y1="58.4143" x2="227.216" y2="274.935" gradientUnits="userSpaceOnUse">
            <stop stop-color="#E65540"/>
            <stop offset="0.4636" stop-color="#F57B3D"/>
            <stop offset="1" stop-color="#FFCD69"/>
        </linearGradient>
        <linearGradient id="paint1_linear" x1="851.191" y1="170.863" x2="227.422" y2="331.897" gradientUnits="userSpaceOnUse">
            <stop stop-color="#E65540"/>
            <stop offset="0.4636" stop-color="#F57B3D"/>
            <stop offset="1" stop-color="#FFCD69"/>
        </linearGradient>
        <linearGradient id="paint2_linear" x1="442.705" y1="140.133" x2="441.969" y2="404.268" gradientUnits="userSpaceOnUse">
            <stop offset="0.205057" stop-color="#F57B3D"/>
            <stop offset="1" stop-color="#FFE8B9"/>
        </linearGradient>
        <clipPath id="clip0">
            <rect width="800" height="515" fill="white"/>
        </clipPath>
    </defs>
</svg>
