<?xml version="1.0" standalone="no"?>
<!DOCTYPE svg PUBLIC "-//W3C//DTD SVG 20010904//EN" "http://www.w3.org/TR/2001/REC-SVG-20010904/DTD/svg10.dtd">
<svg version="1.0" id="main"
    xmlns="http://www.w3.org/2000/svg"
    xmlns:xlink="http://www.w3.org/1999/xlink" viewBox="0 0 1200 630" preserveAspectRatio="xMidYMid meet">
    <g transform="translate(0.000000,630.000000) scale(0.100000,-0.100000)" stroke="none">
        <path d="M1885 6181 c-173 -63 -328 -178 -449 -335 -84 -109 -115 -161 -180 -296 -114 -239 -173 -484 -192 -787 l-7 -113 120 0 120 0 7 98 c4 53 14 133 23 177 16 87 86 310 104 331 9 11 48 14 165 14 l154 0 0 -310 0 -310 125 0 125 0 0 755 c0 742 0 755 -20 775 -24 24 -31 24 -95 1z m-135 -541 l0 -140 -111 0 c-127 0 -122 -6 -66 89 32 55 152 191 168 191 5 0 9 -63 9 -140z"/>
        <path d="M2630 5425 l0 -775 215 0 c192 0 222 2 278 21 163 55 304 198 364 370 31 90 42 258 24 364 -48 271 -263 531 -567 683 -80 40 -273 112 -300 112 -12 0 -14 -117 -14 -775z m442 276 c84 -78 152 -179 187 -274 22 -61 26 -89 26 -182 0 -101 -2 -115 -29 -168 -45 -93 -151 -165 -275 -189 -29 -5 -64 -7 -77 -4 l-24 6 0 471 0 470 62 -33 c35 -18 93 -62 130 -97z"/>
        <path d="M4374 6167 c-171 -70 -346 -215 -462 -385 -193 -283 -322 -700 -322 -1043 l0 -89 119 0 118 0 6 118 c6 126 41 282 94 422 l29 75 157 3 157 3 0 -311 0 -310 130 0 130 0 0 749 c0 742 0 749 -21 775 -26 33 -37 33 -135 -7z m-104 -527 l0 -140 -105 0 c-78 0 -105 3 -105 13 0 27 78 143 136 203 34 35 64 64 68 64 3 0 6 -63 6 -140z"/>
        <path d="M4625 6131 c61 -181 147 -314 302 -469 l113 -112 0 -450 0 -450 130 0 130 0 0 458 0 457 81 80 c124 124 239 306 303 483 l26 72 -129 0 -129 0 -22 -54 c-33 -81 -130 -224 -198 -290 l-60 -59 -36 22 c-64 40 -135 131 -192 246 -30 60 -54 115 -54 122 0 10 -34 13 -144 13 l-145 0 24 -69z"/>
        <path d="M6572 6184 c-276 -60 -510 -285 -584 -563 -28 -107 -28 -295 1 -404 69 -259 292 -480 556 -551 33 -9 105 -19 160 -22 228 -14 422 54 588 206 114 105 188 224 229 367 29 102 32 304 5 403 -72 270 -304 494 -577 560 -101 24 -279 26 -378 4z m330 -233 c91 -25 168 -73 241 -151 107 -114 147 -215 147 -375 0 -153 -49 -273 -156 -379 -106 -107 -226 -156 -379 -156 -166 0 -283 48 -388 159 -109 116 -147 215 -147 382 0 161 44 268 159 383 69 70 148 118 232 140 78 21 211 20 291 -3z"/>
        <path d="M7660 5425 l0 -775 115 0 115 0 0 608 c0 460 3 611 12 620 19 19 44 14 108 -18 81 -41 160 -122 204 -210 l36 -73 0 -463 0 -464 120 0 120 0 0 775 0 775 -120 0 -120 0 0 -115 c0 -63 -3 -115 -6 -115 -3 0 -25 19 -50 42 -131 123 -286 188 -445 188 l-89 0 0 -775z"/>
        <path d="M8990 6075 l0 -125 105 0 105 0 0 -650 0 -650 125 0 125 0 0 650 0 650 105 0 105 0 0 125 0 125 -335 0 -335 0 0 -125z"/>
        <path d="M9750 5425 l0 -775 120 0 120 0 0 396 c0 385 1 397 21 434 29 52 87 83 154 82 83 -1 155 -51 175 -123 6 -19 10 -195 10 -411 l0 -378 115 0 115 0 0 775 0 775 -115 0 -115 0 0 -215 c0 -199 -5 -238 -26 -204 -15 25 -90 49 -154 49 -64 0 -139 -24 -154 -49 -21 -34 -26 5 -26 204 l0 215 -120 0 -120 0 0 -775z"/>
        <path d="M10690 5425 l0 -775 325 0 325 0 0 120 0 120 -211 0 -210 0 3 243 c3 229 4 244 26 284 36 69 123 148 202 185 l70 33 0 118 0 117 -62 0 c-80 0 -133 -24 -193 -86 l-46 -48 3 114 3 115 208 3 207 2 0 115 0 115 -325 0 -325 0 0 -775z"/>
        <path d="M9370 4210 c-41 -4 -960 -8 -2042 -9 l-1968 -1 0 -1632 0 -1633 778 0 c427 0 789 -4 805 -8 l27 -7 0 290 c0 159 -1 291 -2 292 -2 0 -237 4 -523 7 l-520 6 0 435 0 435 378 3 377 2 0 300 0 300 -380 0 -380 0 2 308 3 307 685 0 685 0 3 -1347 2 -1347 33 -5 c17 -3 133 -12 257 -21 377 -27 977 -93 1283 -142 l37 -6 0 370 0 370 -352 6 c-194 4 -431 7 -526 7 l-172 0 2 448 3 447 378 3 377 2 0 300 0 300 -380 0 -380 0 0 295 0 295 700 0 700 0 0 -1455 c0 -800 1 -1455 3 -1455 1 0 128 -25 282 -55 154 -30 285 -55 292 -55 11 0 13 279 13 1420 l0 1419 30 16 c49 25 89 18 205 -39 287 -140 473 -341 608 -659 l22 -52 5 -1174 5 -1174 295 -108 c162 -60 301 -108 308 -109 9 0 12 416 12 2050 l0 2050 -310 0 -310 0 0 -296 0 -296 -87 82 c-147 140 -335 275 -491 354 -246 125 -537 187 -772 166z"/>
        <path d="M1610 4181 c-313 -67 -570 -295 -759 -676 -142 -286 -200 -563 -188 -900 9 -234 45 -422 123 -634 183 -496 633 -1041 1036 -1256 160 -85 335 -135 472 -135 33 0 178 16 321 35 143 19 266 35 273 35 10 0 12 254 10 1253 l-3 1252 -580 0 -579 0 -30 -58 c-26 -51 -30 -71 -34 -165 -5 -120 6 -191 43 -269 l24 -53 271 0 270 0 -2 -692 -3 -693 -36 -9 c-32 -8 -44 -5 -100 27 -440 245 -794 758 -885 1277 -20 115 -22 318 -5 420 50 284 206 507 442 630 l77 40 731 0 731 0 0 -1455 c0 -800 2 -1455 4 -1455 11 0 573 91 583 95 10 3 13 112 15 479 l3 475 304 -445 c239 -350 308 -444 325 -444 62 -1 696 56 696 62 0 4 -151 226 -335 494 -185 268 -334 488 -333 489 2 2 28 15 58 30 163 82 279 206 371 398 68 142 83 217 83 412 0 160 -1 175 -28 255 -59 178 -151 324 -300 479 -334 345 -859 626 -1321 707 -65 11 -232 14 -870 13 -720 0 -798 -2 -875 -18z m2342 -877 c299 -151 458 -361 458 -608 0 -115 -40 -202 -114 -250 -40 -26 -41 -26 -253 -26 l-213 0 0 470 0 470 24 -10 c13 -5 57 -25 98 -46z"/>
    </g>
</svg>
