<?xml version="1.0" encoding="utf-8" ?>
<!DOCTYPE svg PUBLIC "-//W3C//DTD SVG 20010904//EN"
 "http://www.w3.org/TR/2001/REC-SVG-20010904/DTD/svg10.dtd">
<svg version="1.0" id="main"
    xmlns="http://www.w3.org/2000/svg" viewBox="0 0 500.000000 188.000000" preserveAspectRatio="xMidYMid meet">
    <g transform="translate(0.000000,188.000000) scale(0.100000,-0.100000)" stroke="none">
        <path d="M1172 1849 c-34 -17 -60 -35 -57 -39 3 -5 -3 -14 -14 -19 -26 -14 -34 -14 -25 1 11 17 -50 -28 -67 -49 -10 -13 -7 -12 11 3 44 37 57 37 15 0 -22 -19 -44 -35 -50 -34 -21 2 -45 -15 -71 -50 -27 -36 -26 -36 22 8 27 25 4 -2 -51 -60 -55 -58 -103 -109 -108 -115 -5 -5 -5 -1 1 11 6 11 18 27 27 34 17 14 79 90 73 90 -11 0 -110 -123 -113 -140 -4 -20 -61 -100 -71 -100 -3 0 7 17 22 38 l26 37 -30 -34 c-17 -18 -29 -38 -26 -45 2 -6 -6 -22 -17 -36 -11 -14 -18 -19 -14 -12 13 26 -3 10 -30 -28 l-28 -40 -94 0 c-98 0 -217 -21 -249 -45 -11 -8 6 -5 41 7 43 15 93 22 180 25 120 5 120 5 148 36 l28 32 -23 -36 -22 -37 -126 -4 c-121 -4 -166 -14 -284 -63 -15 -7 -17 -5 -11 6 5 8 5 11 -1 6 -5 -5 -9 -14 -9 -20 0 -5 -6 -12 -14 -15 -9 -3 -11 0 -6 9 4 8 -12 -5 -36 -28 -25 -24 -46 -51 -46 -60 -1 -10 -6 -53 -10 -95 -6 -51 -5 -76 2 -75 5 1 10 -6 10 -16 0 -20 39 -57 59 -57 6 1 -2 8 -17 16 -39 21 -28 28 12 8 32 -16 97 -16 135 1 15 7 17 5 11 -6 -7 -12 -6 -12 11 1 30 22 30 24 10 16 -19 -7 -19 -6 -1 14 20 22 30 27 19 8 -4 -6 -3 -8 3 -5 12 8 -1 93 -17 112 -8 9 -3 21 19 42 29 30 74 46 161 59 43 6 44 6 30 -12 -8 -11 -21 -23 -28 -27 -18 -12 -50 -80 -44 -96 3 -8 0 -11 -7 -7 -7 5 -9 1 -4 -10 4 -12 3 -15 -5 -10 -8 4 -10 2 -6 -7 3 -8 -8 -41 -24 -73 -52 -104 -133 -334 -158 -448 -14 -62 -22 -88 -19 -58 8 75 -1 64 -15 -19 -14 -80 -6 -167 16 -195 14 -18 14 -18 4 4 -6 12 -13 52 -15 90 l-4 67 9 -68 c6 -37 19 -86 30 -107 11 -22 18 -40 14 -40 -4 0 -1 -7 6 -15 7 -8 16 -12 21 -9 5 2 20 -3 35 -13 36 -23 197 -35 189 -14 -27 71 -27 114 1 303 24 160 172 637 194 623 6 -4 60 98 60 113 -1 4 -14 -18 -31 -48 -35 -64 -34 -57 1 23 l25 57 50 -7 c28 -3 68 -12 90 -19 l40 -13 -35 4 c-26 4 -18 -1 30 -20 78 -30 100 -32 45 -5 -38 20 -30 19 26 -2 l27 -9 -29 -132 c-16 -73 -45 -211 -64 -307 -20 -96 -42 -200 -49 -230 -8 -30 -17 -67 -20 -82 l-6 -28 164 0 163 0 7 43 c3 23 24 123 46 222 56 256 70 315 64 273 -3 -21 -3 -38 0 -38 6 0 49 190 43 196 -2 2 -10 -23 -17 -56 -7 -33 -15 -58 -17 -56 -3 3 7 55 21 118 14 62 32 151 41 198 18 92 31 122 22 50 -4 -25 5 -2 18 50 29 112 31 154 4 60 -25 -85 -18 -46 30 185 65 311 73 342 83 320 8 -20 8 -20 5 0 -1 11 -7 20 -12 20 -6 1 -32 6 -60 13 -27 6 -75 10 -105 9 -30 -1 -71 2 -91 6 -29 6 -47 2 -97 -24z m-39 -314 c-58 -268 -84 -385 -88 -385 -1 0 -22 7 -46 15 -24 9 -75 23 -114 32 -38 8 -71 17 -73 18 -5 4 57 125 64 125 3 0 2 -4 -1 -10 -3 -5 -4 -10 -2 -10 10 0 59 85 62 106 3 29 88 143 154 208 55 55 55 55 32 -57 -7 -32 -11 -61 -8 -63 2 -2 12 35 22 83 17 85 24 108 30 101 1 -2 -13 -75 -32 -163z"/>
        <path d="M1983 1335 c-29 -13 -53 -26 -53 -29 0 -3 24 6 53 19 71 34 140 33 190 0 20 -14 37 -28 37 -31 0 -2 -17 7 -37 21 -72 48 -199 21 -296 -64 l-36 -32 9 33 c4 18 11 45 14 61 l6 27 -163 0 -163 0 -27 -132 c-65 -317 -84 -398 -91 -391 -4 4 -4 0 -1 -9 4 -9 -9 -88 -28 -175 -45 -204 -77 -356 -77 -365 0 -5 71 -8 158 -8 l159 0 17 78 c19 84 81 376 126 595 15 75 34 144 41 153 24 29 98 65 125 62 23 -2 30 -11 44 -55 9 -29 13 -50 8 -47 -4 3 -13 25 -19 50 -10 37 -15 44 -36 44 -23 0 -83 -25 -83 -36 0 -2 13 2 30 11 49 25 68 20 80 -24 9 -35 34 -68 49 -65 3 1 17 -3 31 -8 23 -9 71 -5 107 9 12 5 14 3 8 -7 -5 -8 6 -4 23 9 39 27 42 38 5 14 l-28 -17 27 30 c49 54 61 123 33 190 -8 20 -12 40 -10 45 3 4 -13 22 -36 39 -54 39 -120 41 -196 5z"/>
        <path d="M4440 1350 c-81 -5 -107 -12 -165 -40 -39 -19 -76 -34 -83 -33 -7 0 -34 -19 -60 -44 -26 -24 -41 -42 -34 -38 20 10 14 -11 -10 -31 -22 -19 -23 -19 -8 1 14 18 14 19 -2 6 -10 -7 -15 -17 -12 -22 3 -5 -3 -21 -14 -37 -88 -125 -152 -335 -152 -502 l0 -61 -24 27 c-18 22 -32 28 -62 28 -68 -1 -105 -10 -127 -34 -12 -12 -17 -20 -10 -16 8 4 10 -5 6 -33 -4 -32 -1 -41 17 -54 22 -15 22 -15 2 -26 -23 -12 -125 -14 -185 -5 l-37 7 29 51 c15 28 43 77 60 109 18 31 35 57 37 57 3 0 2 -5 -2 -12 -4 -7 -3 -8 5 -4 6 4 9 12 6 17 -9 13 45 100 57 92 6 -3 8 -1 5 5 -10 15 3 43 16 35 6 -3 7 -1 3 6 -7 10 29 81 41 81 2 0 -5 -16 -17 -35 -25 -41 -21 -48 6 -7 10 15 17 35 17 45 -1 10 3 15 9 11 7 -4 8 -2 4 4 -8 13 99 207 114 207 6 0 22 19 36 43 14 23 23 42 20 42 -3 0 -16 -19 -30 -42 -14 -24 -26 -39 -26 -35 0 5 22 46 49 92 27 45 56 96 64 111 l15 29 -317 -5 c-277 -4 -320 -7 -348 -23 -18 -9 -38 -16 -45 -15 -7 2 -12 -2 -11 -8 2 -13 -38 -53 -52 -52 -14 1 -55 -72 -54 -97 1 -16 2 -15 8 5 10 32 40 90 46 90 3 0 -4 -19 -16 -42 -29 -57 -28 -111 2 -146 l24 -27 -24 20 c-13 11 -27 29 -32 40 -5 14 -8 15 -8 4 -1 -8 15 -31 36 -50 20 -18 34 -29 30 -24 -3 6 19 10 58 10 35 0 61 -3 58 -7 -8 -15 5 -8 18 9 12 15 12 16 -1 8 -9 -5 -8 0 4 13 23 27 27 28 19 5 -7 -19 -5 -18 17 11 8 11 10 17 4 13 -8 -5 -10 7 -6 38 3 28 0 50 -8 60 -7 9 -10 19 -6 23 4 4 53 9 108 10 l101 4 -37 -69 c-21 -37 -43 -72 -49 -78 -5 -5 2 11 17 38 15 26 25 47 22 47 -10 0 -50 -75 -49 -92 1 -11 -3 -16 -9 -12 -7 4 -8 2 -4 -4 6 -11 -19 -72 -30 -72 -2 0 0 9 6 20 21 39 3 19 -29 -31 -17 -28 -29 -55 -26 -60 6 -9 -21 -69 -31 -69 -3 0 -2 6 1 13 4 6 -2 1 -13 -12 -11 -14 -27 -38 -36 -55 -12 -22 -12 -25 -2 -11 41 55 44 55 15 0 -18 -33 -44 -80 -59 -105 -15 -25 -53 -91 -84 -147 -34 -61 -62 -100 -69 -96 -6 4 -8 0 -4 -11 4 -9 3 -15 -2 -12 -5 3 -6 26 -3 51 l5 45 -32 -11 c-37 -13 -94 -5 -111 17 -17 19 -7 133 20 234 11 41 17 60 15 42 -3 -17 -7 -47 -10 -65 -2 -17 9 20 25 83 33 127 39 182 9 80 -10 -36 -17 -54 -15 -40 7 54 87 439 102 493 5 16 -7 17 -160 17 l-166 0 -1 -27 c0 -16 -7 -50 -14 -78 l-14 -50 4 45 c3 30 -4 14 -20 -50 -29 -112 -31 -154 -4 -60 24 82 20 56 -22 -149 -18 -90 -36 -156 -39 -146 -4 10 -13 -13 -24 -60 -10 -42 -16 -78 -13 -81 2 -2 10 23 17 56 7 33 15 58 17 56 7 -7 -25 -140 -48 -198 -25 -63 -60 -104 -105 -118 -63 -21 -87 3 -86 84 1 46 50 297 59 306 3 3 3 -10 -1 -27 -18 -93 -12 -86 14 17 32 124 40 187 10 80 -24 -87 -25 -63 -1 47 10 48 32 149 47 222 15 74 29 130 31 125 2 -6 -6 -50 -17 -99 -11 -48 -19 -90 -16 -92 6 -7 48 178 43 191 -3 8 -54 10 -169 8 l-165 -3 -11 -42 -11 -42 4 40 4 40 -10 -35 c-6 -19 -15 -43 -21 -54 -6 -12 -6 -22 1 -29 8 -8 11 -4 11 13 0 13 3 21 6 17 3 -3 -8 -68 -25 -144 -16 -76 -33 -158 -37 -183 -5 -32 -9 -40 -13 -27 -5 13 -13 -6 -25 -58 -10 -42 -16 -78 -13 -81 2 -2 10 24 17 58 8 34 15 57 17 52 2 -6 -8 -60 -23 -120 -14 -60 -28 -152 -31 -204 -5 -84 -3 -102 17 -148 45 -104 129 -150 250 -137 36 3 75 7 87 8 11 1 19 6 15 11 -3 5 2 7 11 3 9 -3 26 3 39 14 l23 20 -30 -17 -30 -17 30 26 c28 25 39 30 49 25 8 -5 55 45 50 53 -3 5 3 19 13 32 l18 24 11 -31 c24 -66 25 -70 4 -34 -27 51 -36 49 -10 -2 11 -22 26 -39 33 -37 6 1 12 -6 12 -17 0 -18 51 -66 70 -66 5 0 -7 11 -28 25 -20 14 -37 28 -37 31 0 2 19 -8 42 -23 36 -24 51 -28 112 -27 90 1 146 9 160 25 8 8 4 8 -14 -1 -17 -9 -13 -1 15 23 22 20 44 36 48 37 5 0 5 5 2 10 -3 6 1 13 9 16 9 3 13 11 9 17 -3 6 -1 7 6 3 8 -6 6 -18 -10 -44 -12 -20 -26 -41 -31 -46 -29 -34 -13 -36 295 -36 265 1 308 3 355 19 58 20 66 19 25 -3 -16 -8 -23 -15 -18 -16 12 0 85 48 85 57 0 3 -8 -1 -17 -8 -16 -13 -17 -12 -4 4 8 10 20 16 26 13 16 -6 35 13 29 29 -3 6 3 18 13 26 16 12 17 12 8 -1 -5 -9 0 -4 12 10 13 14 23 29 23 34 0 6 -7 1 -15 -10 -13 -17 -13 -15 -3 19 13 42 30 36 32 -11 1 -17 5 -27 10 -24 5 3 7 -2 3 -11 -4 -10 4 -29 21 -48 30 -36 99 -89 116 -89 6 0 -5 10 -24 21 -43 26 -88 67 -102 94 -6 11 11 -3 38 -31 63 -65 128 -89 223 -82 63 5 134 31 172 65 9 7 21 13 26 11 12 -4 93 68 93 81 0 6 -21 -11 -46 -37 l-47 -47 39 45 c22 25 43 47 48 50 10 7 37 -70 29 -84 -3 -6 -3 -8 2 -4 8 8 92 -61 88 -72 -3 -10 160 -6 181 4 15 7 17 6 11 -4 -5 -8 6 -4 23 9 39 27 42 38 5 14 -28 -17 -28 -16 3 18 29 31 94 147 94 166 0 4 -22 8 -48 8 -95 0 -100 31 -48 261 19 82 37 172 41 199 5 35 10 44 14 31 5 -12 17 24 35 103 15 67 26 124 24 127 -3 2 -15 -44 -28 -103 -13 -58 -25 -102 -27 -97 -2 6 10 70 27 143 16 73 30 148 30 167 l0 34 -154 0 c-164 0 -166 0 -166 -52 0 -19 -2 -18 -22 7 -12 15 -35 33 -52 41 -17 7 -24 13 -16 14 9 0 27 -7 40 -16 l25 -16 -24 21 c-13 12 -28 20 -35 19 -6 0 -54 -4 -106 -8z m142 -181 c19 -25 19 -26 -21 -205 -21 -98 -46 -213 -54 -255 -18 -89 -43 -153 -56 -145 -5 4 -13 1 -17 -5 -4 -8 -3 -9 4 -5 21 13 13 -10 -12 -33 -14 -13 -29 -20 -36 -16 -6 3 -9 1 -8 -6 4 -20 -61 -33 -95 -20 -46 18 -60 68 -54 191 12 226 117 470 222 516 47 21 104 14 127 -17z"/>
    </g>
</svg>
