<?xml version="1.0" encoding="utf-8" standalone="no"?>
<!DOCTYPE svg PUBLIC "-//W3C//DTD SVG 20010904//EN" "http://www.w3.org/TR/2001/REC-SVG-20010904/DTD/svg10.dtd">
<svg version="1.0" id="main"
    xmlns="http://www.w3.org/2000/svg"
    xmlns:xlink="http://www.w3.org/1999/xlink" viewBox="0 0 291.1181 25.62">
    <g transform="scale(1.3)">
        <path d="M13.804 6.313c.682-.513.853-1.365.853-2.047 0-.853-.171-1.534-.682-2.217C13.634 1.368 12.953.856 12.1.515 11.247.174 9.885.004 8.01.004H0v.341c.682 0 1.194.17 1.534.341.341.17.512.341.512.512.17.171.341.852.341 1.705v10.911c0 1.023-.171 1.535-.341 1.876 0 .17-.171.341-.512.511-.34.171-.852.171-1.534.171v.512h8.521c2.386 0 4.261-.512 5.454-1.534 1.022-.853 1.534-1.876 1.534-3.24 0-1.193-.512-2.046-1.364-2.897-.682-.513-1.875-.854-3.408-1.364 1.534-.343 2.556-.854 3.067-1.536zM6.136.856c1.193 0 2.216.171 2.727.513.511.17 1.023.511 1.193 1.021.341.513.512 1.023.512 1.876 0 .682-.171 1.364-.512 1.705-.342.512-.683.853-1.194 1.194-.682.341-1.533.341-2.726.341zm2.896 8.015c.682.341 1.194.682 1.535 1.363.341.681.511 1.364.511 2.046 0 .683-.17 1.364-.511 1.876-.341.511-.682 1.023-1.194 1.364-.681.17-1.193.34-1.875.34-.341 0-.681 0-1.022-.34-.171-.171-.341-.513-.341-1.023V8.529c1.364 0 2.217.17 2.897.342zm13.024-1.142c.788 0 1.279 0 1.476.099.492.099.787.394 1.082.688.295.296.492.788.59 1.477h.295V7.138h-8.166v.197h.394c.296 0 .493.099.689.295.099 0 .197.197.295.296v7.282c0 .493 0 .788-.099.887 0 .196-.098.295-.295.394-.098.099-.394.099-.591.099h-.394v.295h8.362l.493-3.149h-.295c-.197.886-.591 1.575-1.181 1.969-.492.394-1.279.59-2.164.59h-.59c-.295 0-.492 0-.591-.098-.098-.099-.197-.197-.197-.295-.098-.1-.098-.395-.098-.985v-2.756c.492 0 .787.099 1.083.197.197.099.394.394.59.688.196.395.295.887.393 1.379h.295V9.401h-.295c-.098.689-.295 1.279-.59 1.674-.197.394-.689.591-1.279.591h-.197V7.729zm9.346 4.724l3.148 4.429h3.05v-.295c-.295 0-.492-.099-.688-.296-.098-.098-.394-.295-.688-.688l-2.262-3.347c.59-.099.983-.394 1.377-.688.492-.394.787-.984.787-1.772 0-.59-.197-1.082-.59-1.476-.295-.492-.787-.787-1.279-.984-.591-.099-1.476-.197-2.558-.197h-4.525v.197c.394 0 .688.099.885.197.197.098.295.196.295.295.098.099.098.492.098.984v6.396c0 .493 0 .788-.098.985 0 .098-.099.196-.295.295-.196.099-.492.099-.885.099v.295h4.919v-.295c-.394 0-.688 0-.885-.099-.197-.099-.295-.197-.295-.295-.098-.197-.197-.492-.197-.985v-2.755zM31.5 7.63c.787 0 1.377.197 1.672.591.394.295.591.886.591 1.574 0 .591-.099.985-.296 1.28-.197.295-.492.492-.787.688-.394.099-.885.197-1.476.197h-.492V7.63zm14.954.984c.689-.591 1.083-.984 1.279-1.082.197-.099.492-.099.787-.197v-.197h-3.738v.197c.394.099.688.099.787.197.197.098.295.196.295.394 0 .295-.295.59-.787.983l-3.542 2.953V7.828c.098-.099.197-.197.295-.295.197-.099.492-.197.788-.197v-.198h-4.821v.197h.296c.295 0 .492.099.688.197.098.098.295.196.295.295.099.196.099.492.099.984v6.396c0 .493 0 .788-.099.887-.098.196-.197.295-.295.394-.197.099-.394.099-.688.099h-.296v.295h4.919v-.295c-.394 0-.689 0-.788-.099-.196-.099-.295-.197-.393-.295v-3.641l.295-.296 2.263 2.757c.393.59.688.983.688 1.181 0 .098-.099.196-.197.295-.099 0-.295.099-.59.099v.295h5.017v-.295c-.295 0-.492-.099-.787-.197-.394-.196-.787-.591-1.279-1.279L43.6 10.88zm9.15-1.673c-.099.295-.197.394-.296.492 0 .099-.098.099-.294.099-.098 0-.295 0-.591-.197-.393-.099-.59-.197-.885-.295-.295-.099-.59-.099-.885-.099-.885 0-1.574.295-2.165.787-.591.591-.788 1.181-.788 1.969 0 .492.099.886.295 1.279.197.394.492.689.886.984.394.295.984.689 1.869 1.082.688.395 1.082.591 1.377.788.197.196.394.394.492.591.099.295.197.491.197.688 0 .394-.197.688-.492.984-.294.295-.688.492-1.279.492-.688 0-1.279-.296-1.967-.788-.591-.591-.984-1.377-1.181-2.361H49.7v3.642h.197c.099-.197.197-.395.296-.492.197-.099.294-.099.492-.099.099 0 .294 0 .492.099.394.197.787.295 1.082.394.197.099.492.099.885.099.886 0 1.771-.295 2.361-.886.59-.591.984-1.28.984-2.067 0-.688-.197-1.279-.59-1.771-.394-.394-1.18-.984-2.361-1.574-.787-.395-1.279-.689-1.476-.788-.393-.197-.59-.492-.688-.688-.098-.197-.197-.295-.197-.591 0-.295.197-.59.394-.886.295-.197.688-.394 1.181-.394.688 0 1.279.295 1.771.787.59.492.885 1.083 1.082 1.969h.295l-.1-3.249zm8.854 5.216v3.938c-.099.196-.197.295-.295.394-.197.099-.394.099-.689.099h-.295v.295h5.017v-.295h-.295c-.296 0-.492 0-.688-.099-.099-.099-.197-.197-.296-.394-.098-.099-.098-.394-.098-.887V8.812c0-.492 0-.788.098-.886.099-.197.197-.296.296-.394.197-.099.393-.197.688-.197h.295v-.197h-5.017v.197h.295c.295 0 .492.099.59.197.197.098.295.196.394.295v3.74h-3.443V8.812c0-.492.098-.788.098-.886.099-.197.197-.296.295-.394.197-.099.394-.197.688-.197h.295v-.197h-5.017v.197h.295c.295 0 .492.099.689.197.098.098.197.196.294.295.098.196.098.492.098.984v6.396c0 .493 0 .788-.098.887-.098.196-.197.295-.294.394-.197.099-.394.099-.689.099h-.295v.295h5.017v-.295h-.295c-.295 0-.492 0-.59-.099-.197-.099-.295-.197-.394-.394 0-.099-.098-.394-.098-.887v-3.051h3.444zm9.05 4.43c-.295 0-.492 0-.688-.099-.099-.099-.197-.197-.295-.394 0-.099-.098-.394-.098-.887V8.812c0-.492.098-.788.098-.886.099-.197.197-.296.295-.394.197-.099.393-.197.688-.197h.295v-.197h-5.017v.197h.295c.295 0 .492.099.689.197l.295.295c0 .196.098.492.098.984v6.396c0 .493-.098.788-.098.887-.099.196-.197.295-.295.394-.197.099-.394.099-.689.099h-.295v.295h5.017v-.295zm5.214-4.134l3.148 4.429h3.05v-.295c-.295 0-.492-.099-.688-.296-.099-.098-.295-.295-.59-.688l-2.361-3.347c.59-.099 1.082-.394 1.377-.688.493-.394.787-.984.787-1.772 0-.59-.197-1.082-.492-1.476-.394-.492-.787-.787-1.377-.984-.492-.099-1.377-.197-2.558-.197h-4.525v.197c.394 0 .787.099.886.197.196.098.295.196.393.295 0 .099.099.492.099.984v6.396c0 .493-.099.788-.099.985-.098.098-.197.196-.393.295-.099.099-.394.099-.886.099v.295h4.919v-.295c-.394 0-.688 0-.885-.099-.098-.099-.295-.197-.295-.295-.099-.197-.099-.492-.099-.985v-2.755zm.098-4.823c.787 0 1.378.197 1.771.591.295.295.492.886.492 1.574 0 .591-.098.985-.295 1.28-.197.295-.492.492-.787.688-.295.099-.788.197-1.476.197h-.394V7.63zm11.019.099c.688 0 1.18 0 1.475.099.493.099.788.394 1.082.688.197.296.394.788.591 1.477h.197V7.138h-8.067v.197h.295c.295 0 .59.099.787.295.098 0 .197.197.197.296.098.098.098.394.098.886v6.396c0 .493-.098.788-.098.887-.099.196-.197.295-.295.394-.197.099-.394.099-.688.099h-.295v.295h8.362l.492-3.149h-.295c-.295.886-.688 1.575-1.18 1.969-.591.394-1.279.59-2.165.59h-.59c-.295 0-.492 0-.59-.098-.098-.099-.197-.197-.295-.295 0-.1-.098-.395-.098-.985v-2.756c.492 0 .885.099 1.082.197.295.099.492.394.688.688.197.395.295.887.295 1.379h.295V9.401h-.295c0 .689-.197 1.279-.492 1.674-.295.394-.688.591-1.377.591h-.196V7.729zm22.338.968v5.287c0 .854 0 1.364-.171 1.535 0 .341-.34.512-.511.682-.17.171-.682.171-1.193.171h-.512v.512h8.865v-.512h-.683c-.341 0-.852 0-1.021-.171-.342-.17-.513-.341-.683-.682V1.365c.17-.342.341-.513.512-.683.341-.172.682-.342 1.192-.342h.683V0h-8.865v.341h.512c.511 0 .852.17 1.193.342.341.17.511.341.511.511.171.342.171.853.171 1.706v4.775h-5.966V2.899c0-.854 0-1.364.17-1.534.171-.342.341-.513.512-.683.341-.172.682-.342 1.193-.342h.511V0h-8.864v.341h.681c.341 0 .853.17 1.023.342.341.17.512.341.682.511V15.52c-.17.341-.341.512-.511.682-.341.171-.682.171-1.194.171h-.681v.512h8.864v-.512h-.511c-.511 0-.852 0-1.193-.171-.171-.17-.512-.341-.512-.682-.17-.171-.17-.682-.17-1.535V8.697zm14.703 6.611c.099.295.196.491.196.491v.296c0 .196 0 .295-.098.394-.197.099-.394.099-.787.099h-.197v.295h4.624v-.295c-.295 0-.492-.099-.688-.296-.197-.098-.492-.59-.787-1.378l-3.542-7.972h-.098l-3.443 7.775c-.296.688-.591 1.182-.886 1.477-.196.196-.492.394-.787.394v.295h3.148v-.295c-.492 0-.787-.099-.886-.197-.196-.099-.394-.295-.394-.591 0-.196.099-.491.197-.786l.491-.887h3.345zm-3.738-1.772l1.476-3.248 1.476 3.248zm8.264-6.398v2.657h.196c.099-.786.395-1.279.788-1.672.295-.296.786-.395 1.475-.395h.689v7.479c0 .493 0 .788-.099.887-.099.196-.197.295-.295.394-.197.099-.394.099-.688.099h-.296v.295h5.018v-.295h-.295c-.197 0-.492 0-.591-.099-.196-.099-.295-.197-.295-.394-.098-.099-.098-.394-.098-.887V7.729h.688c.491 0 .786 0 .983.099.295.196.59.394.787.591.098.295.295.787.491 1.377h.197V7.138zm16.724 5.019v3.051c0 .493-.099.788-.099.887-.099.196-.197.295-.295.394-.197.099-.394.099-.688.099h-.296v.295h5.018v-.295h-.295c-.295 0-.492 0-.688-.099-.099-.099-.197-.197-.295-.394 0-.099-.099-.394-.099-.887V8.812c0-.492.099-.788.099-.886.098-.197.196-.296.295-.394.196-.099.394-.197.688-.197h.295v-.197h-5.018v.197h.296c.295 0 .491.099.688.197l.295.295c0 .196.099.492.099.984v2.756h-3.443V7.926c.099-.197.197-.296.295-.394.197-.099.394-.197.688-.197h.296v-.197h-5.018v.197h.295c.295 0 .492.099.688.197.099.098.197.196.295.295.099.196.099.492.099.984v6.396c0 .493 0 .788-.099.887-.098.196-.196.295-.295.394-.196.099-.394.099-.688.099h-.295v.295h5.018v-.295h-.296c-.295 0-.491 0-.591-.099-.195-.099-.294-.197-.393-.394v-3.938h3.444zm10.527 3.151c.099.295.196.491.196.491.099.1.099.197.099.296 0 .196-.099.295-.196.394-.099.099-.394.099-.787.099h-.197v.295h4.723v-.295c-.295 0-.492-.099-.688-.296-.197-.098-.492-.59-.788-1.378l-3.541-7.972h-.099l-3.541 7.775c-.295.688-.591 1.182-.788 1.477-.195.196-.491.394-.885.394v.295h3.246v-.295c-.491 0-.786-.099-.983-.197-.196-.099-.295-.295-.295-.591 0-.196.099-.491.196-.786l.394-.887h3.443zm-3.64-1.772l1.475-3.248 1.378 3.248zm19.676-6.398v.197c.394.099.59.099.786.197.099.098.197.295.197.491 0 .197-.099.296-.099.492 0 .099-.099.394-.295.886l-1.574 4.135-1.771-4.627c-.197-.59-.295-.886-.295-.983 0-.099 0-.197.098-.296 0-.098.099-.098.197-.196.098 0 .394-.099.688-.099v-.197h-4.624v.197c.295 0 .492.099.688.197.099.098.295.196.395.394.098.197.294.59.491 1.083l.394 1.082-1.574 3.642-1.869-4.724c-.196-.591-.394-.985-.394-1.083 0-.197.099-.296.197-.394.098-.099.295-.099.688-.197v-.197h-4.23v.197c.295.099.492.197.688.295.099.197.295.689.688 1.477l3.148 7.973h.295l2.656-6.299 2.361 6.299h.296l3.049-8.07c.295-.689.394-.985.394-1.083.099-.197.295-.296.394-.394.099-.099.295-.099.492-.197v-.198zm9.247 8.17c.099.295.197.491.197.491.098.1.098.197.098.296 0 .196-.098.295-.196.394-.098.099-.394.099-.787.099h-.197v.295h4.723v-.295c-.295 0-.59-.099-.688-.296-.197-.098-.492-.59-.787-1.378l-3.542-7.972h-.098l-3.542 7.775c-.295.688-.59 1.182-.787 1.477-.196.196-.492.394-.885.394v.295h3.246v-.295c-.492 0-.787-.099-.984-.197-.196-.099-.295-.295-.295-.591 0-.196.099-.491.197-.786l.393-.887h3.443zm-3.64-1.772l1.476-3.248 1.377 3.248zm15.151-6.398v.197c.394.099.688.197.885.295.099.099.197.197.197.296 0 .197-.295.688-.688 1.476l-1.771 2.854-1.771-3.149c-.394-.688-.59-1.181-.59-1.378 0-.099.098-.099.196-.196.099-.099.295-.197.59-.197h.197v-.198h-4.624v.197c.295 0 .59.099.787.295.099.099.492.591.886 1.477l2.36 4.134v1.968c0 .493-.098.788-.098.887-.099.196-.197.295-.295.394-.197.099-.394.099-.689.099h-.491v.295h5.41v-.295h-.491c-.295 0-.492 0-.688-.099-.1-.099-.197-.197-.296-.394 0-.099-.098-.394-.098-.887v-2.361l2.164-3.543c.491-.886.885-1.477 1.082-1.674.196-.098.491-.196.787-.295v-.198zm11.199 9.6c-.136 0-.272 0-.408-.068-.137-.068-.204-.137-.204-.272-.068-.068-.068-.272-.068-.613v-4.426c0-.341 0-.545.068-.612 0-.137.067-.205.204-.272.068-.068.272-.137.408-.137h.272v-.136h-3.54v.136h.272c.137 0 .341.068.409.137.136.067.204.136.204.204.068.136.068.34.068.681v4.426c0 .341 0 .545-.068.613 0 .136-.068.204-.204.272-.068.068-.272.068-.409.068h-.272v.204h3.54v-.204h-.272zm.681-6.537v.136c.204.068.34.068.408.137.136.067.272.204.408.34l.137.204v4.767c0 .341-.068.613-.204.749-.137.137-.409.205-.817.205v.204h2.45v-.204h-.204c-.204 0-.408-.068-.612-.205-.137-.136-.272-.408-.272-.749v-4.289l4.561 5.583h.204v-5.583c0-.341 0-.545.068-.682.067-.136.136-.272.204-.272.136-.067.272-.136.612-.204v-.136h-2.246v.136c.34 0 .612.137.817.341.067.136.136.408.136.817v2.859l-3.268-4.153h-2.382zm13.749-.137c0 .137-.068.272-.137.341-.136.068-.204.136-.272.136-.136 0-.272-.067-.612-.204-.545-.204-1.021-.272-1.497-.272-.612 0-1.226.137-1.77.477-.613.272-1.021.749-1.361 1.294-.341.613-.545 1.226-.545 1.839 0 .612.204 1.157.477 1.702.273.545.749.953 1.293 1.294.545.272 1.157.408 1.906.408.545 0 1.021-.067 1.43-.272.407-.204.816-.477 1.156-.885v-.545c-.408.477-.749.749-1.089.953-.34.204-.749.272-1.157.272-.544 0-.952-.136-1.293-.34-.272-.272-.544-.682-.681-1.158-.136-.477-.204-1.021-.204-1.634s.068-1.158.272-1.703c.204-.34.408-.681.748-.953.409-.204.749-.34 1.157-.34.545 0 .953.204 1.361.477.408.34.681.816.817 1.43h.204v-2.315h-.203zm1.428 5.584c-.136.136-.204.341-.204.613 0 .204.068.408.204.544.204.137.341.272.612.272.205 0 .409-.136.545-.272.204-.136.272-.34.272-.544 0-.272-.068-.478-.272-.613-.136-.136-.34-.272-.545-.272-.271 0-.408.137-.612.272z" clip-rule="evenodd" fill-rule="evenodd"/>
    </g>
</svg>
