<?xml version="1.0" encoding="utf-8"?><!DOCTYPE svg PUBLIC "-//W3C//DTD SVG 1.1//EN" "http://www.w3.org/Graphics/SVG/1.1/DTD/svg11.dtd">
<svg id="main"
    xmlns="http://www.w3.org/2000/svg" viewBox="0 0 413.34 155.4">
    <path d="M59.6,124.14c1.64-1.31,3.23-3.29,5.29-4.1,5.22-2.06,10.84-3.16,16-5.44,6.27-2.79,12.16-6.41,18.24-9.61,1.34-.71,2.79-1.19,4.2-1.77l.93,1.18c-1.39,1.65-2.46,4.12-4.22,4.8-4.79,1.85-8,5.17-10.8,9.19-1.09,1.54-4.76,2.17,1,5.76l-2.84-.25-7.13-5.13-.9.92,2.6,5.42c-4,4.62-5.73,12.27-14.74,12.33.89-3.33,1.46-5.49,2-7.65-4.77,3.76-3.43,13.73-13.62,11.59l-1-3.45c-.39-.08-.88-.29-1-.17-1.73,1.88-3.33,1.12-5.59.6-12.7-2.94-20.25-11.48-27.29-21.81-8.41-12.35-10-25.18-4.71-38.35,3-7.29,8.81-13.44,13.59-19.93,1.5-2,3.8-3.45,5.65-5.24a4.66,4.66,0,0,0,1.51-2.3c.42-3,1.71-4.94,5.05-5a3,3,0,0,0,2.15-1c3.44-5.17,8.87-7.09,14.18-9.62s9.56-6.57,14.5-9.62c2.77-1.72,5.9-3.74,9-3.92,7.75-.46,14.57-6.45,22.64-3.91a121.53,121.53,0,0,1,18,6.78c4.58,2.29,6.31,11.15,4.16,15.66a96.09,96.09,0,0,0-4.13,10c-1.59,4.56-2.68,4.62-6.62,1.72-4.33-3.17-2.5-7.81-3.48-11.7-.6-2.41.82-5.27,1-7.94s.7-6.12-.65-7.93c-1-1.39-5-1.57-7.25-.88a117,117,0,0,0-19,7.14c-13,6.59-25.86,13.62-34.93,25.8-3.05,4.1-7,7.54-10.48,11.31-5.56,6-8.44,13.3-10.09,21.17-.14.65.09,1.52-.26,2-4.76,5.93-2.63,12.76-2.64,19.33,0,10.9,9.34,18.44,19.7,15.79,2.41-.61,4.82-1.29,7.27-1.67A30.09,30.09,0,0,1,59.6,124.14Z" transform="translate(-12.87 -14.85)"/>
    <path d="M194.3,55.42c2.5-1.14,6.25-1,7.8,2.37,1.26,2.77.49,6.47.61,9.53.08-.09,1-1.15,1.91-2.23,2.69-3.15,5-6.7,8.19-9.32a11,11,0,0,1,7.4-2.12c3.65.34,4.22,3.7,4.36,6.86,0,1,.1,2,.16,2.94.5,0,.94.13,1.1,0,2.27-2.23,4.91-5.4,8-3.22,1.87,1.33,2.42,5.17,2.69,8,.53,5.54.45,11.13,1.38,16.92,4.15-2.28,8.7-3.15,9-9.12a19.4,19.4,0,0,1,3.71-9.6C255.16,60,260.28,54,265.33,48c1.26-1.49,3.07-2.51,4.64-3.74,2.8-2.2,4.65-1.22,6.48,1.53,4.49,6.76,4.34,10.24-2,15.33a77.84,77.84,0,0,1-13.89,9.31c-6.06,3-8.33,7.64-8.9,14.87,9.61-3.74,15.76-11,22.86-16.86L276,69.81c-2.81,3.45-5.56,7-8.46,10.32-2.74,3.18-5.78,6.09-8.44,9.33-3.07,3.75-4.92,4-8,.56-1.86-2.06-3.64-4.19-5.81-6.7-.4,1.49-.46,3.16-1.26,4.3-1.18,1.7-2.84,4.15-4.39,4.23-2,.1-5.22-1.36-5.91-3-1.85-4.38-2.65-9.21-3.83-13.87-.56-2.21-1-4.44-1.55-6.67l-1.48-.73L209.2,89.89l-1.86-1,7.47-27.47-1.21-.88c-1.19.8-2.66,1.38-3.52,2.44-7.79,9.53-15.39,19.2-23.26,28.66-1,1.22-3.21,1.46-4.87,2.15,0-1.66-.58-3.57.05-4.93,2.69-5.82,6.18-11.29,8.49-17.23C192.34,66.88,192.91,61.6,194.3,55.42Zm79.63-2.14-1.62-1.4L259.73,65.13l1.16,1.13C266.23,62.92,271.54,59.56,273.93,53.28Z" transform="translate(-12.87 -14.85)"/>
    <path d="M345.65,98.29l-9.66.43c4.25,3.62,3.54,6.23-.15,8.91-4.4,3.2-8.22,7.24-12.77,10.16-3.25,2.08-7.21,3.22-11,4.15-1.65.4-3.69-.8-5.75-1.33-.14.77-.45,2.4-.78,4.19-3.79-2.19-4.38-5.41-2.25-9.7,3.54-7.1,9.81-11.1,16.5-14.62a15.47,15.47,0,0,0,5.1-3.61c-2.61-1-5.16-2.2-7.83-3-9.62-2.76-12.25-12.06-5.63-19.54,3.87-4.38,6.71-10,11.22-13.44,5.21-4,11.58-6.75,17.78-9.15,2-.78,6.27.45,7.4,2.16,1.62,2.45,1.84,6.2,1.67,9.34-.15,2.62-1.51,5.28-2.77,7.69-.72,1.39-2.31,2.33-3.51,3.47-.09-1.41-.56-2.92-.21-4.2,1.47-5.39-.66-8.19-6-6.54a35.67,35.67,0,0,0-21.87,18.85c-1.42,2.85-.86,5.53,3.24,6.85,7.66,2.45,14.82,6.61,23.38,5.4,1.37-.19,3,1.28,4.47,2ZM327,102l-1.94-1.47-16.86,14.7c2.52,3.78,4.75,3.86,7.13,1.52,3-2.92,6-5.78,8.69-9C325.39,106.2,326,104,327,102Z" transform="translate(-12.87 -14.85)"/>
    <path d="M290.68,71.78c-1,1-2.82,2.24-3.62,4a25.25,25.25,0,0,0-1.71,7.2c-1,7.32-.31,8,7.26,7.76-1.33,1.28-2.48,3.06-4.07,3.66-1.18.44-3.31-.24-4.37-1.17-4.8-4.16-6.72-9.79-5.18-15.76,3.32-12.86,6.84-25.76,14.2-37.06,4.67-7.17,9.72-14.12,14.79-21,1.76-2.4,4.08-3.57,7.36-1.89s6,3.56,5,7.49c-.88,3.6-1.94,7.5-4.1,10.38-5.88,7.82-12.66,15-18.53,22.8C294.88,62,293.25,66.71,290.68,71.78ZM315.5,24.14a100.91,100.91,0,0,0-23.06,35.52C299.58,47.48,311.37,38.37,315.5,24.14Z" transform="translate(-12.87 -14.85)"/>
    <path d="M153.43,79.5c-3.27,4.08-6.2,8.51-9.92,12.14-3.26,3.2-8.27.43-8.9-4.63-.25-2,.14-4-.2-5.9a29.36,29.36,0,0,0-2-5.19c-3,5.15-5.9,10.17-8.84,15.17-2.35,4-5.54,4.38-8.8,1.07-3.94-4-5.1-12-.91-17.9,5.35-7.48,11.78-14.24,18.22-20.84,1.56-1.61,5.85-2.72,7.34-1.73,2.11,1.41,2.77,5,4.23,8-16,2.59-20.91,14.38-26.38,26.17,5.64-1.74,14.31-11.1,15.92-17.45,1.09-4.31,3.86-5.46,7.44-4.31s5,4,4,7.86a72.52,72.52,0,0,0-1.84,8.71c-.16,1.27.62,2.66,1,4,1.25-.64,2.77-1,3.71-2a43.78,43.78,0,0,0,3.79-5.1Z" transform="translate(-12.87 -14.85)"/>
    <path d="M166.2,65.05c3.64-4.36,6.87-8.52,10.43-12.37a15,15,0,0,1,6.05-4.24,8.31,8.31,0,0,1,6.31.88c1,.7,1.56,4,.81,5.24-3.59,5.86-7.69,11.41-11.61,17.07l-1.8-.83q2.34-7.62,4.69-15.24l-1-.66c-1.64,1.49-3.69,2.7-4.85,4.5-5.73,8.89-13.1,16.88-15.81,27.48-1.29,5-4.56,6.88-10.07,6.83,1.08-3.37,2-6.58,3.12-9.71,1.86-5.14,4.36-10.11,5.66-15.38,1.23-5,1.31-10.31,1.82-15.49.21-2.16-.16-4.77,3.19-4.37,2.8.34,6.31.79,6,4.57S167.32,60.79,166.2,65.05Z" transform="translate(-12.87 -14.85)"/>
    <path d="M221.62,153.59c5.45,3.88,9.77,6.13,14.27,2.86,1.74-1.26,2.37-4,3-6.58-6.64,2.39-12.29,2.57-16.89-2.9-3.33-4-3.52-8.51-1.62-13.13,1.81-4.41,5.24-7,10-6.85,4.43.08,8.85.7,13.67,1.12,0,8.11.38,16.42-.14,24.67-.31,4.83-3.78,8.26-8.5,9.41-5,1.21-10.07.92-14.14-2.62C220.54,158.93,221.4,156.45,221.62,153.59Zm17.16-14.28c.07-4.38-2.7-7.58-6.64-7.69-4.25-.12-7.44,3.11-7.48,7.55a7,7,0,0,0,7.07,7.37C236,146.59,238.71,143.79,238.78,139.31Z" transform="translate(-12.87 -14.85)"/>
    <path d="M112.6,129c6.35-2.79,11.61-3.16,16.18,1.25,3.64,3.51,4.51,9.54,2.36,14.4a11.53,11.53,0,0,1-12.1,6.93c-3-.3-6.06-.09-9-.65a4.24,4.24,0,0,1-2.68-3q-.28-15.48,0-31c0-1.12,1.63-2.21,2.51-3.31.9,1.09,2.48,2.12,2.58,3.27C112.81,120.66,112.6,124.46,112.6,129Zm7.23,17.91c4.08-.1,7.09-3.66,6.89-8.13s-3.06-7.19-7.24-7.16-7.07,3.46-6.85,8C112.84,143.9,115.92,147,119.83,146.91Z" transform="translate(-12.87 -14.85)"/>
    <path d="M151.61,135.29c-1.91-5-5.34-4-8.85-3.46-1.58.26-3.31-.38-5-.61,1.2-1.16,2.2-2.82,3.63-3.39,8.86-3.54,14.82.53,14.82,9.9v12.32c-4.23.59-7.93,1.41-11.66,1.55s-7.4-.86-8.34-5.45.87-7.64,5.68-9.05A94.21,94.21,0,0,1,151.61,135.29Zm0,4.23a72.61,72.61,0,0,0-8.58,2c-.89.32-2,2.34-1.72,3.07a5,5,0,0,0,3.12,2.56C148.56,148.1,150.78,145.89,151.6,139.52Z" transform="translate(-12.87 -14.85)"/>
    <path d="M285,114.21c0,11.44.05,22.87-.1,34.3,0,.87-1.67,2.55-2.14,2.41-1.14-.34-2.88-1.5-2.9-2.36-.2-10.8-.24-21.6,0-32.39,0-1.08,2.25-2.1,3.46-3.14Z" transform="translate(-12.87 -14.85)"/>
    <path d="M320.07,41.79c3.1-5,5.91-9,8.19-13.32a13.59,13.59,0,0,0,1.06-6.37c-.09-4.08,2.58-7.63,6.28-7.22,2,.23,4.77,1,5.5,2.47s-.29,4.28-1.48,5.74c-4.75,5.79-9.79,11.34-14.9,16.81C323.82,40.86,322.06,41,320.07,41.79Z" transform="translate(-12.87 -14.85)"/>
    <path d="M296.57,132.42c0,5.15.16,10.32-.12,15.46-.06,1.11-1.7,2.14-2.61,3.21-.81-1-2.3-2-2.32-3.07q-.25-15.72,0-31.43c0-1,1.57-2,2.41-3,.87,1.11,2.44,2.19,2.5,3.34C296.73,122.1,296.58,127.26,296.57,132.42Z" transform="translate(-12.87 -14.85)"/>
    <path d="M264.51,131.29c-8.92,2-9.36,2.57-9.39,10.68a31.32,31.32,0,0,1-.13,6c-.23,1.15-1.51,2.07-2.32,3.1-.85-1-2.41-1.88-2.44-2.85-.22-6.64-.12-13.3-.12-20a99.52,99.52,0,0,1,11.62-1C262.6,127.16,263.43,129.61,264.51,131.29Z" transform="translate(-12.87 -14.85)"/>
    <path d="M162.25,128.21c4-.45,7.4-1.18,10.8-1,1.17,0,2.25,2.27,3.85,4-9.37,2.12-9.65,2.47-9.66,10.53a34.1,34.1,0,0,1-.13,6.48c-.21,1.06-1.64,1.88-2.53,2.81-.77-.87-2.2-1.72-2.23-2.62C162.16,141.63,162.25,134.82,162.25,128.21Z" transform="translate(-12.87 -14.85)"/>
    <path d="M273.27,139.24a61.56,61.56,0,0,1-.13,8.49c-.16,1.2-1.68,2.21-2.58,3.31-.77-1-2.17-2-2.21-3.11q-.33-8.75,0-17.49c0-1,1.49-2,2.29-3,.87.93,2.39,1.78,2.51,2.79A79,79,0,0,1,273.27,139.24Z" transform="translate(-12.87 -14.85)"/>
    <path d="M275.77,119.09c-2.31,1.86-3.61,3.71-4.79,3.63a4.7,4.7,0,0,1-3.43-3.06c-.13-1.06,1.75-3.12,3-3.37S273.24,117.65,275.77,119.09Z" transform="translate(-12.87 -14.85)"/>
    <polygon points="194.07 123.54 177.43 113.93 177.43 133.15 194.07 123.54"/>
    <path d="M424.23,166.93l-6.8-3.4-11.57-4.08c-2.86-1-6.48-3.82-8.87-5.7-4.5-3.54-8.93-10.38-8.83-16.27.09-5.2,3.38-9.71,6-14.19a64.93,64.93,0,0,0,8.36-24.08,11.54,11.54,0,0,0,.13-2.69,11.26,11.26,0,0,0-.55-2.22,59.24,59.24,0,0,0-8.3-16.36c-3.14-4.35-6.84-8.27-9.84-12.73-3.14-4.69-4.79-9.9-6.06-15.36a10.35,10.35,0,0,0,3.19-.13,18.35,18.35,0,0,1-.57-3.65A7.85,7.85,0,0,1,383.4,41c3.26-3,6.68-6.44,11.23-7.23,2.25-.4,4.6-.13,6.77-.81,2.63-.83,7-4.17,7.29-7.07-6-.92-12.38,3.06-17.74,5.14-2.54,1-21.91,6.5-21,9.26l1.14,3.42-2.37-.91a1.88,1.88,0,0,0-.92-.19c-2.85.37-2.37,7.27-1.91,9,.85,3.16,2.7,5.93,4.3,8.78,6.51,11.68,8.31,26.53,7.32,39.71-.36,4.77-1.33,9.9-4.86,13.13L369.23,109a13.1,13.1,0,0,1-1.05-1.4c-1.79-2.93-.93-6.72.23-9.95a32.74,32.74,0,0,0,1.84-6.05c.3-1.93.73-3.38-1.49-2.75a10.82,10.82,0,0,0-4.31,2.91,14.13,14.13,0,0,0-2.88,5.86,27,27,0,0,0-.88,9.91c.3,3,1.68,6.21-.08,9.1-1.33,2.17-2,3.16-2.27,5.85a34.9,34.9,0,0,0,.13,8.17c-4.27-1-8.87-2.53-12.89-.76a12.53,12.53,0,0,0-5.49,5.41c-1.08,1.88-3,4.46-3,6.67a10.07,10.07,0,0,0,4-1.82c2.1,1.46,4.37,3.17,4.87,5.68.4,2-.41,4-1.2,5.81A14,14,0,0,1,343,155a12.67,12.67,0,0,1-4.12,3.07,57.07,57.07,0,0,1-9.66,4c-6.09,1.9-14.33,2.53-19.33,6.81,7.31.93,15.42,0,22.8,0l41.79-.12,38.44-.11,13.32,0A5.27,5.27,0,0,1,424.23,166.93Z" transform="translate(-12.87 -14.85)"/>
    <path d="M107.55,110.51h190c3.09,0,3.09-4.8,0-4.8h-190c-3.09,0-3.09,4.8,0,4.8Z" transform="translate(-12.87 -14.85)"/>
    <path class="cls-1" d="M297.94,168.11" transform="translate(-12.87 -14.85)"/>
    <path class="cls-1" d="M44,168.11" transform="translate(-12.87 -14.85)"/>
    <path d="M46.26,170.25h251.4c3.09,0,3.09-4.8,0-4.8H46.26c-3.09,0-3.1,4.8,0,4.8Z" transform="translate(-12.87 -14.85)"/>
</svg>
