<?xml version="1.0" encoding="utf-8"?>
<!-- Generator: Adobe Illustrator 19.2.1, SVG Export Plug-In . SVG Version: 6.00 Build 0)  -->
<svg version="1.1" id="main"
	xmlns="http://www.w3.org/2000/svg"
	xmlns:xlink="http://www.w3.org/1999/xlink" x="0px" y="0px" viewBox="0 0 652 652" style="enable-background:new 0 0 652 652;" xml:space="preserve">
	<style type="text/css">
	.st0{fill:#4C6A8A;}
	</style>
	<path class="st0" d="M114.5,191.3c16.1-0.7,35.3,2.5,38.8,13.2c5.8,17.5-23.7,42.9-49.5,55.4c-6.3,3.1-10.1,3.9-11.7,3.7
	c-1.5-0.2-1.7-1.6-1.3-2.6c0.9-1.8,5.1-5.6,10.6-9.6c29-21.2,38.4-36.7,33-43c-3.5-4-18.2-6.8-33.5-6.8c-4.1,0-15,0.9-16.1-2.7
	C83.8,195.8,98.5,192,114.5,191.3"/>
	<path class="st0" d="M78.4,270.9c13.4-0.7,29.7,1.4,38.9,7.7c4.6,3.1,7.7,8.9,5.9,15.4c-5.3,18.7-25,41.3-68.8,58.6
	c-13.9,5.5-24.9,7.6-27.2,6.2c-2.5-1.6,4.7-13.9,6.9-18c7-13.2,15.7-26.1,24.3-38c3.1-4.4,8-11.9,12.4-11.3
	c3.9,0.5-0.7,8.5-3.7,13.6c-5.1,8.6-19.1,32.3-14.5,33.7c10.2,3.1,58.1-29.5,51.1-47.7c-3.3-8.5-24.1-9.3-37.2-9.3
	c-6,0-19,1.3-19.7-2.8C45.9,275.3,66.4,271.5,78.4,270.9"/>
	<path class="st0" d="M183,248.8c8.1,1.3,14.7,2.4,16.3,5.4c1.7,3.5-7.1,3.7-11.6,3.8c-21.4,0.4-34.2,0.7-34.9,7.3
	c-0.8,8.4,9.1,16.9,19,28.9c9,10.9,19.2,21.6,16.3,31.6c-3.7,12.5-20.6,15.1-36.7,15.1c-15.4,0-30.1-2.2-36.2-3.3
	c-7.6-1.4-6.5-4.8-4.5-5.9c2.3-1.2,15.3-1.3,24.3-1.7c7.4-0.4,29-0.4,32.4-5.4c4.1-6.1-6-16.6-15.3-27.6
	c-11.6-13.7-24.3-27.8-17.6-38.2C143.3,245.6,168.8,246.5,183,248.8"/>
	<path class="st0" d="M434.3,286.8h7.8l2.3-10.9h24.2l-2.3,10.9h7.8c1,0,2-0.4,2.3-1.7l4-19c3-14.4-5.9-17.5-17.9-17.5
	c-14.4,0-22.6,3.3-25.7,17.5l-4.1,19C432.5,286.4,433.3,286.8,434.3,286.8 M446.8,264.9c1.5-7.3,6.2-10,14.6-10c8.8,0,11.1,3,9.7,10
	c0,0-0.4,1.7-0.5,2.3c-0.2,0.8-0.6,2.8-2.8,2.8h-22L446.8,264.9z M283.2,286.8h7.8l2.3-10.9h24.2l-2.3,10.9h7.8c1,0,2-0.4,2.3-1.7
	l4-19c3-14.4-5.9-17.5-17.9-17.5c-14.4,0-22.6,3.3-25.7,17.5l-4,19C281.3,286.4,282.1,286.8,283.2,286.8z M295.6,264.9
	c1.5-7.3,6.2-10,14.6-10c8.8,0,11.1,3,9.7,10c0,0-0.3,1.7-0.5,2.3c-0.2,0.8-0.5,2.8-2.9,2.8h-22L295.6,264.9z M409,304.8l0.8-3.5
	h-39.4c-2,0-3.2,0.6-3.5,2l-0.8,3.8h16.2l-6.7,31.8h7.3c2,0,3.2-0.8,3.6-2.7l6.2-29.1H406C408,307.1,408.6,306.4,409,304.8z
	 M300.4,302.6l-3.6,17.1c-6.4,1.8-22.9,5.1-20.3-7l2.4-11.4h-8.7c-1,0-1.8,0.6-1.9,1.3l-2.2,10.3c-4.2,19.7,16.2,17,29.3,13.3
	l-2.7,12.8h7.3c2,0,3.2-0.8,3.6-2.7l7.4-34.9h-8.8C301.3,301.3,300.5,301.9,300.4,302.6z M528.4,303.7l-7.5,35.2h38l0.8-3.8
	c0.3-1.5-0.1-2-2-2h-25.3l2.2-10.1h22.3c0.6,0,1.1-0.4,1.2-0.9l0.9-4c0.1-0.5-0.2-0.9-0.8-0.9h-22.3l2.1-10.1h24.4
	c1.2,0,2.3,0,2.6-1.4l0.9-4.4h-34.3C529.8,301.3,528.7,302,528.4,303.7z M415.5,303.7l-7.5,35.2h38l0.8-3.8c0.3-1.5-0.1-2-2-2h-25.2
	l2.1-10.1H444c0.6,0,1.1-0.4,1.2-0.9l0.8-4c0.1-0.5-0.2-0.9-0.8-0.9h-22.3l2.2-10.1h24.4c1.1,0,2.3,0,2.6-1.4l0.9-4.4h-34.3
	C416.9,301.3,415.8,302,415.5,303.7z M514,301.3h-9.3l-18,14.7l-11.8-14.7h-9.3c-1.5,0-2.4,0.9-2.7,2.4l-7.5,35.2h7.9
	c1.7,0,2.6-0.8,2.9-2.2l5.6-26.4l9.1,11.9c0.3,0.5,1,1.2,2.2,1.2h4.1c1.1,0,2.2-0.6,2.7-1.2l14.1-11.9l-5.6,26.4
	c-0.3,1.4,0.3,2.2,2,2.2h7.9l7.5-35.2C516,302.2,515.6,301.3,514,301.3z M579.8,283.2c0.4-1.7-0.3-2.3-1.9-2.3h-22.1l6.5-30.5
	c0.1-0.7-0.4-1.3-1.3-1.3h-8.8l-8,37.6H579L579.8,283.2z M232.6,259.6c-1,0-1.8,0.6-1.9,1.3l-5.5,25.9h24.4
	c13.6,0,23.1-4.6,26.1-19.1c2.2-10.7-2.9-18.6-16.8-18.6h-29.5c0,0-0.1,0.3-0.1,0.5c-0.7,2.5-0.3,5.3,4.3,5.3H255
	c10.3,0,11.8,4.7,9.7,13c-2,8.2-5.5,12.4-13.3,13h-14.7l4.5-21.4H232.6z M585.5,249.1c-2,0-3.2,0.6-3.5,2l-0.8,3.8h16.2l-6.7,31.8
	h7.3c2,0,3.2-0.8,3.6-2.7l6.2-29.1h13.5c1.9,0,2.6-0.8,2.9-2.3l0.7-3.5H585.5z M375.4,280.4c1.1-2.8,1.1-5.7-1.7-8.6
	c-1.4-1.5-3.5-2.8-6.4-4.3c-12.9-6.7-16.3-7.4-15.5-10.7c0.5-1.8,1.8-1.9,6.7-1.9h15.1c2,0,3.2-0.8,3.6-2.4l0.8-3.5h-19.2
	c-10.9,0-17.4,0.1-19,7.2c-1.2,5.3,3.3,7.9,12.5,13.1c10.1,5.7,12.4,6.2,11.4,9.2c-0.7,2.4-3.4,2.5-7.9,2.5H338
	c-2.1,0-3.2,0.8-3.6,2.4l-0.7,3.4h22.6C366.6,286.8,373.1,286.2,375.4,280.4z M423.5,280.4c1.1-2.8,1.1-5.7-1.7-8.6
	c-1.4-1.5-3.5-2.8-6.4-4.3c-12.9-6.7-16.3-7.4-15.5-10.7c0.5-1.8,1.8-1.9,6.7-1.9h15.2c2,0,3.2-0.8,3.6-2.4l0.7-3.5H407
	c-10.9,0-17.4,0.1-19,7.2c-1.2,5.3,3.3,7.9,12.5,13.1c10.1,5.7,12.4,6.2,11.4,9.2c-0.8,2.4-3.4,2.5-7.9,2.5h-17.9
	c-2,0-3.2,0.8-3.6,2.4l-0.7,3.4h22.6C414.7,286.8,421.2,286.2,423.5,280.4z M572.6,308.4c-1.2,5.3,3.3,7.9,12.5,13.1
	c10.1,5.7,12.4,6.1,11.4,9.1c-0.7,2.4-3.4,2.5-7.9,2.5h-17.9c-2,0-3.2,0.8-3.6,2.4l-0.7,3.4H589c10.3,0,16.8-0.6,19.2-6.4
	c1.2-2.8,1.1-5.7-1.7-8.6c-1.4-1.5-3.5-2.8-6.4-4.3c-12.9-6.7-16.3-7.4-15.5-10.7c0.5-1.8,1.8-1.9,6.7-1.9h15.1c2,0,3.2-0.8,3.6-2.4
	l0.7-3.5h-19.2C580.8,301.2,574.3,301.3,572.6,308.4z M320.1,308.4c-1.2,5.3,3.3,7.9,12.5,13.1c10.1,5.7,12.4,6.1,11.4,9.1
	c-0.7,2.4-3.4,2.5-7.9,2.5h-17.9c-2,0-3.2,0.8-3.6,2.4l-0.7,3.4h22.6c10.3,0,16.8-0.6,19.2-6.4c1.2-2.8,1.1-5.7-1.7-8.6
	c-1.4-1.5-3.5-2.8-6.4-4.3c-12.9-6.7-16.3-7.4-15.5-10.7c0.4-1.8,1.8-1.9,6.7-1.9H354c2,0,3.2-0.8,3.6-2.4l0.7-3.5h-19.2
	C328.3,301.2,321.8,301.3,320.1,308.4z M220.5,308.4c-1.2,5.3,3.3,7.9,12.5,13.1c10,5.7,12.3,6.1,11.4,9.1c-0.7,2.4-3.4,2.5-7.9,2.5
	h-17.9c-2,0-3.2,0.8-3.6,2.4l-0.7,3.4h22.6c10.4,0,16.8-0.6,19.2-6.4c1.1-2.8,1.1-5.7-1.7-8.6c-1.4-1.5-3.5-2.8-6.4-4.3
	c-12.9-6.7-16.3-7.4-15.5-10.7c0.5-1.8,1.8-1.9,6.7-1.9h15.2c2,0,3.2-0.8,3.6-2.4l0.7-3.5h-19.2
	C228.7,301.2,222.2,301.3,220.5,308.4z M509.5,287.6c17,0,23.6-5.3,26.3-17.6l4-19.2c0.3-1.3-0.6-1.7-1.6-1.7H530l-2.3,11l-1.3,5.9
	l-1.1,5.1c-1.5,6.9-6.4,10.1-14.7,10.1c-9.2,0-11.6-3.1-10.2-10.1c0,0,0.3-1.8,0.5-2.3l1.9-8.7l2.3-11h-8.2c-1.1,0-2.1,0.4-2.3,1.7
	l-4.1,19.2C487.6,283.5,495,287.6,509.5,287.6z"/>
	<rect x="267.3" y="379.7" class="st0" width="109.3" height="3.2"/>
	<polyline class="st0" points="53.1,420 53.1,422.6 41.8,422.6 41.8,452.4 38.9,452.4 38.9,422.6 27.6,422.6 27.6,420 53.1,420 "/>
	<path class="st0" d="M57,416.8h2.8v12.9c1.1-0.3,2.3-0.5,3.5-0.7c1.2-0.2,2.5-0.3,3.7-0.3c1.2,0,2.4,0.1,3.6,0.4
	c1.1,0.3,2.1,0.7,3,1.3c0.9,0.6,1.6,1.4,2.1,2.4c0.5,1,0.8,2.3,0.8,3.7v15.9h-2.8v-15.7c0-1.1-0.2-2-0.5-2.7
	c-0.4-0.7-0.8-1.3-1.4-1.7c-0.6-0.4-1.3-0.7-2.2-0.9c-0.8-0.2-1.8-0.3-2.7-0.3c-1.2,0-2.4,0.1-3.7,0.3c-1.2,0.2-2.4,0.4-3.4,0.7
	v20.3H57V416.8"/>
	<path class="st0" d="M96.4,438.8c0-5.1-2.2-7.7-6.5-7.7c-2.4,0-4.1,0.6-5.2,2c-1.1,1.3-1.8,3.2-2,5.7H96.4 M82.7,441.2
	c0,1.5,0.1,2.8,0.4,3.9c0.3,1.1,0.7,2.1,1.4,2.9c0.7,0.8,1.6,1.4,2.8,1.8c1.2,0.4,2.7,0.6,4.5,0.6c0.5,0,1.1,0,1.7-0.1
	c0.6,0,1.2-0.1,1.8-0.2c0.6-0.1,1.1-0.2,1.7-0.3c0.5-0.1,1-0.2,1.4-0.3l0.2,2.4c-0.8,0.2-1.8,0.4-3,0.6c-1.2,0.2-2.5,0.3-3.7,0.3
	c-1.9,0-3.5-0.2-5-0.5c-1.5-0.3-2.7-1-3.8-1.9c-1-0.9-1.8-2.1-2.4-3.7c-0.6-1.6-0.8-3.5-0.8-5.9c0-2.1,0.2-4,0.7-5.5
	c0.5-1.5,1.1-2.8,2-3.8c0.9-1,2-1.7,3.2-2.1c1.3-0.5,2.7-0.7,4.3-0.7c1.5,0,2.9,0.2,4,0.7c1.2,0.5,2.1,1.1,2.9,1.9
	c0.8,0.8,1.4,1.8,1.8,2.9c0.4,1.1,0.6,2.4,0.6,3.8v3.2H82.7z"/>
	<path class="st0" d="M137.7,420v5.2l-8.4,7.9c1.3,0.2,2.6,0.4,3.7,0.8c1.1,0.4,2.1,0.9,2.9,1.6c0.8,0.7,1.4,1.6,1.9,2.6
	c0.5,1.1,0.7,2.3,0.7,3.8c0,1.9-0.3,3.6-0.9,4.9c-0.6,1.4-1.5,2.5-2.6,3.4c-1.1,0.9-2.5,1.6-4.1,2c-1.6,0.4-3.4,0.6-5.4,0.6
	c-2.1,0-4-0.1-5.6-0.4c-1.6-0.2-3.1-0.6-4.5-1l0.7-5.8c1.4,0.4,2.8,0.7,4.2,0.9c1.4,0.3,2.9,0.4,4.5,0.4c1.6,0,2.8-0.3,3.8-1
	c1-0.7,1.5-1.9,1.5-3.7c0-1.6-0.5-2.7-1.4-3.3c-0.9-0.6-2.3-0.9-4-0.9h-4v-4.8l7.6-7.6h-11.7V420H137.7"/>
	<path class="st0" d="M152,447c0.5,0.1,1,0.1,1.4,0.1c0.4,0,0.9,0,1.3,0c1.6,0,2.9-0.2,3.9-0.7c1-0.5,1.8-1.2,2.4-2.2
	c0.6-1,1-2.1,1.2-3.5c0.2-1.4,0.3-3,0.3-4.9c0-1.9-0.1-3.5-0.4-4.8c-0.3-1.3-0.7-2.3-1.2-3.1c-0.6-0.8-1.2-1.4-2-1.7
	c-0.8-0.3-1.7-0.5-2.8-0.5H152V447 M156.3,420c2.4,0,4.5,0.3,6.4,0.9c1.9,0.6,3.4,1.6,4.7,2.8c1.3,1.3,2.3,2.9,2.9,4.9
	c0.7,2,1,4.3,1,7.1c0,2.4-0.2,4.7-0.7,6.8c-0.5,2.1-1.3,3.9-2.6,5.5c-1.2,1.6-2.9,2.8-5.1,3.7c-2.2,0.9-5,1.3-8.5,1.3
	c-1.6,0-3.2-0.1-5-0.3c-1.8-0.2-3.7-0.5-5.8-0.9V420H156.3z"/>
	<path class="st0" d="M196.4,420v3.8H182v10H195v3.8H182v7c0,1.4,0.4,2.4,1.2,3c0.8,0.6,1.9,0.8,3.2,0.8H197v3.8h-10.7
	c-2.9,0-5.2-0.6-6.9-1.8c-1.7-1.2-2.5-3.2-2.5-5.9V420H196.4"/>
	<polyline class="st0" points="200.9,420 206.7,420 214.6,432 222.8,420 228.2,420 217.3,435.8 228.4,452.4 222.4,452.4 214.1,439.7 
	205.6,452.4 200.2,452.4 211.4,436 200.9,420 "/>
	<path class="st0" d="M237.9,436.5c1.8,0.3,3.5,0.5,5.2,0.5c2.7,0,4.6-0.6,5.7-1.7c1.1-1.1,1.7-2.8,1.7-5c0-1.2-0.1-2.3-0.4-3.1
	c-0.3-0.8-0.7-1.5-1.3-2c-0.6-0.5-1.3-0.8-2.2-1.1c-0.9-0.2-2-0.3-3.3-0.3h-5.4V436.5 M243.3,420c2,0,3.8,0.2,5.4,0.5
	c1.5,0.3,2.8,0.9,3.9,1.7c1,0.8,1.8,1.9,2.3,3.2c0.5,1.3,0.8,2.9,0.8,4.9c0,1.9-0.3,3.5-0.8,4.9c-0.6,1.4-1.4,2.4-2.4,3.3
	c-1.1,0.8-2.3,1.4-3.8,1.8c-1.5,0.4-3.1,0.6-5,0.6c-1.7,0-3.6-0.2-5.7-0.5v12.1h-5.1V420H243.3z"/>
	<path class="st0" d="M279.6,420v3.8h-14.3v10h12.9v3.8h-12.9v7c0,1.4,0.4,2.4,1.2,3c0.8,0.6,1.9,0.8,3.2,0.8h10.5v3.8h-10.7
	c-2.9,0-5.2-0.6-6.9-1.8c-1.7-1.2-2.5-3.2-2.5-5.9V420H279.6"/>
	<path class="st0" d="M290.3,436.1c0.9,0.2,1.8,0.3,2.7,0.3c0.9,0.1,1.7,0.1,2.5,0.1c2.7,0,4.6-0.5,5.7-1.6c1.1-1,1.7-2.7,1.7-4.9
	c0-1.2-0.1-2.3-0.4-3.1c-0.3-0.8-0.7-1.4-1.3-1.9c-0.6-0.5-1.3-0.8-2.2-1c-0.9-0.2-2-0.3-3.3-0.3h-5.4V436.1 M295.6,420
	c2,0,3.8,0.2,5.4,0.5c1.5,0.3,2.8,0.9,3.9,1.7c1,0.8,1.8,1.8,2.3,3.1c0.5,1.3,0.8,2.9,0.8,4.8c0,1.3-0.2,2.4-0.5,3.4
	c-0.3,1-0.8,1.8-1.3,2.5c-0.5,0.7-1.2,1.3-2,1.7c-0.8,0.5-1.6,0.8-2.5,1.1c1.2,0.5,2.1,1.1,2.8,2c0.6,0.9,1.3,2.1,1.8,3.6l2.9,8
	h-5.3l-2.5-6.9c-0.3-0.8-0.6-1.5-0.9-2.1c-0.3-0.6-0.7-1.2-1.2-1.7c-0.5-0.5-1-0.8-1.7-1.1c-0.6-0.3-1.4-0.4-2.3-0.4
	c-0.8,0-1.6,0-2.4-0.1c-0.8,0-1.7-0.2-2.6-0.3v12.5h-5.1V420H295.6z"/>
	<rect x="314.5" y="420" class="st0" width="5.1" height="32.4"/>
	<path class="st0" d="M345.7,420v3.8h-14.3v10h12.9v3.8h-12.9v7c0,1.4,0.4,2.4,1.2,3c0.8,0.6,1.9,0.8,3.2,0.8h10.5v3.8h-10.7
	c-2.9,0-5.2-0.6-6.9-1.8c-1.7-1.2-2.5-3.2-2.5-5.9V420H345.7"/>
	<polyline class="st0" points="356.4,420 374.1,439 374.1,420 379,420 379,452.4 374.1,452.4 374.1,445.1 357.2,427.3 357.2,452.4 
	352.3,452.4 352.3,420 356.4,420 "/>
	<path class="st0" d="M405.2,424.3c-1.1-0.3-2.4-0.5-3.8-0.6c-1.4-0.2-2.7-0.2-4-0.2c-1.5,0-2.8,0.2-4,0.6c-1.1,0.4-2.1,1.1-2.8,2.1
	c-0.7,1-1.3,2.3-1.7,3.9c-0.4,1.6-0.6,3.7-0.6,6.2c0,2.6,0.2,4.7,0.6,6.4c0.4,1.7,1,3,1.7,4c0.8,1,1.7,1.7,2.9,2
	c1.2,0.4,2.5,0.6,4,0.6c1.2,0,2.6-0.1,4-0.3c1.4-0.2,2.7-0.4,4-0.7l0.4,3.9c-1.3,0.4-2.7,0.6-4.2,0.8c-1.5,0.2-2.9,0.2-4.3,0.2
	c-2.2,0-4.3-0.3-6-0.8c-1.8-0.6-3.3-1.5-4.6-2.8c-1.3-1.3-2.2-3-2.8-5.2c-0.6-2.1-1-4.8-1-8c0-3.2,0.3-5.8,1-8
	c0.6-2.1,1.6-3.9,2.8-5.1c1.2-1.3,2.8-2.2,4.6-2.7c1.8-0.5,3.9-0.8,6.2-0.8c1.4,0,2.8,0.1,4.2,0.2c1.4,0.2,2.7,0.4,3.9,0.6
	L405.2,424.3"/>
	<path class="st0" d="M429.4,420v3.8h-14.3v10H428v3.8h-12.9v7c0,1.4,0.4,2.4,1.2,3c0.8,0.6,1.9,0.8,3.2,0.8h10.5v3.8h-10.7
	c-2.9,0-5.2-0.6-6.9-1.8c-1.7-1.2-2.5-3.2-2.5-5.9V420H429.4"/>
	<path class="st0" d="M452.9,436.3c0-3.3,0.3-6,1-8.2c0.6-2.2,1.6-3.9,2.8-5.1c1.2-1.3,2.7-2.2,4.4-2.7c1.7-0.5,3.6-0.8,5.8-0.8
	c1.4,0,2.8,0.1,4.1,0.2c1.3,0.2,2.6,0.3,3.9,0.6l-0.4,2.6c-1.2-0.2-2.5-0.4-3.8-0.6c-1.3-0.1-2.6-0.2-3.8-0.2
	c-1.7,0-3.2,0.2-4.6,0.6c-1.3,0.4-2.5,1.1-3.4,2.2c-0.9,1.1-1.6,2.5-2.1,4.3c-0.5,1.8-0.7,4.2-0.7,7c0,2.8,0.2,5.1,0.7,6.9
	c0.5,1.8,1.2,3.3,2,4.3c0.9,1.1,2,1.8,3.3,2.2c1.3,0.4,2.8,0.6,4.4,0.6c1.3,0,2.6-0.1,4.1-0.3c1.4-0.2,2.8-0.4,4.2-0.7l0.3,2.5
	c-1.4,0.3-2.9,0.6-4.4,0.7c-1.5,0.2-2.9,0.2-4.2,0.2c-2,0-3.9-0.3-5.6-0.8c-1.7-0.5-3.1-1.4-4.3-2.7c-1.2-1.3-2.1-3-2.7-5.1
	C453.2,442.1,452.9,439.5,452.9,436.3"/>
	<path class="st0" d="M486.7,431.1c-1.2,0-2.2,0.1-3.1,0.4c-0.9,0.3-1.7,0.8-2.4,1.5c-0.6,0.7-1.2,1.7-1.5,2.9
	c-0.4,1.2-0.5,2.8-0.5,4.7c0,1.9,0.2,3.5,0.5,4.7c0.4,1.2,0.9,2.2,1.5,2.9c0.6,0.7,1.4,1.2,2.4,1.5c0.9,0.3,2,0.4,3.1,0.4
	c1.1,0,2.2-0.1,3.1-0.4c0.9-0.3,1.7-0.8,2.3-1.5c0.7-0.7,1.2-1.7,1.5-2.9c0.4-1.2,0.5-2.8,0.5-4.7c0-1.9-0.2-3.5-0.5-4.7
	c-0.4-1.2-0.9-2.2-1.5-2.9c-0.6-0.7-1.4-1.2-2.3-1.5C488.8,431.3,487.8,431.1,486.7,431.1 M486.6,428.7c3.3,0,5.9,0.9,7.7,2.8
	c1.8,1.9,2.7,5,2.7,9.3c0,4.3-0.9,7.4-2.7,9.2c-1.8,1.9-4.4,2.8-7.7,2.8c-3.3,0-5.9-0.9-7.7-2.8c-1.8-1.9-2.7-4.9-2.7-9.2
	c0-4.3,0.9-7.4,2.7-9.3C480.7,429.6,483.3,428.7,486.6,428.7z"/>
	<path class="st0" d="M516.5,436.7c0-1.1-0.2-2-0.5-2.7c-0.3-0.7-0.8-1.3-1.3-1.7c-0.6-0.4-1.2-0.7-2-0.9s-1.5-0.2-2.3-0.2
	c-1.1,0-2.3,0.1-3.5,0.3c-1.2,0.2-2.2,0.4-3.2,0.7v20.3h-2.8v-22.1c1.4-0.4,2.9-0.7,4.5-1.1c1.7-0.4,3.3-0.6,5-0.6
	c1.3,0,2.6,0.2,3.8,0.5c1.2,0.3,2.2,0.9,3,1.7c1.2-0.6,2.6-1.2,4.2-1.6c1.5-0.4,3.1-0.6,4.7-0.6c1.2,0,2.3,0.1,3.4,0.4
	c1.1,0.2,2,0.7,2.8,1.3c0.8,0.6,1.5,1.4,1.9,2.4c0.5,1,0.7,2.3,0.7,3.7v15.9h-2.8v-15.7c0-1.1-0.2-2-0.5-2.7
	c-0.3-0.7-0.8-1.3-1.3-1.7c-0.6-0.4-1.2-0.7-2-0.9c-0.7-0.2-1.5-0.2-2.3-0.2c-1.5,0-2.9,0.2-4.2,0.6c-1.3,0.4-2.3,0.8-3.1,1.2
	c0.5,1,0.7,2.2,0.7,3.6v15.9h-2.8V436.7"/>
	<path class="st0" d="M541.9,449.6c1.1,0.2,2.3,0.4,3.4,0.5c1.1,0.1,2.2,0.2,3.3,0.2c1,0,2-0.1,2.9-0.4c0.9-0.2,1.7-0.7,2.4-1.4
	c0.7-0.7,1.2-1.7,1.6-3c0.4-1.3,0.6-2.9,0.6-4.9c0-1.9-0.2-3.5-0.5-4.7c-0.4-1.2-0.9-2.2-1.5-2.9c-0.7-0.7-1.4-1.2-2.3-1.5
	c-0.9-0.3-1.9-0.4-2.9-0.4c-0.5,0-1,0-1.7,0.1c-0.6,0.1-1.3,0.1-1.9,0.2c-0.6,0.1-1.2,0.2-1.8,0.3c-0.5,0.1-1,0.2-1.4,0.3V449.6
	 M539.1,430.3c1.5-0.5,3.1-0.8,4.8-1.2c1.7-0.3,3.3-0.5,4.8-0.5c1.4,0,2.8,0.2,4,0.6c1.2,0.4,2.3,1,3.2,2s1.7,2.2,2.2,3.7
	c0.5,1.5,0.8,3.4,0.8,5.7c0,2.5-0.3,4.5-0.9,6.1c-0.6,1.6-1.3,2.8-2.3,3.7c-1,0.9-2.1,1.5-3.3,1.8c-1.3,0.3-2.6,0.5-3.9,0.5
	c-1.2,0-2.3-0.1-3.4-0.2c-1.1-0.1-2.2-0.3-3.2-0.5v9.4h-2.8V430.3z"/>
	<path class="st0" d="M577.7,441.6c-0.9-0.2-1.9-0.3-3-0.4c-1.1-0.1-2.2-0.2-3.4-0.2c-0.8,0-1.7,0.1-2.4,0.2c-0.8,0.1-1.4,0.3-2,0.7
	c-0.6,0.3-1.1,0.8-1.4,1.4c-0.4,0.6-0.5,1.4-0.5,2.4c0,0.9,0.2,1.6,0.5,2.2c0.3,0.6,0.8,1.1,1.3,1.4c0.6,0.4,1.2,0.6,1.9,0.8
	c0.7,0.2,1.5,0.2,2.3,0.2c1.4,0,2.6-0.1,3.7-0.3c1.1-0.2,2.1-0.4,3-0.6V441.6 M564.7,429.4c0.7-0.2,1.7-0.3,2.9-0.5
	c1.2-0.1,2.3-0.2,3.3-0.2c1.2,0,2.4,0.1,3.5,0.3c1.2,0.2,2.2,0.6,3.1,1.2c0.9,0.6,1.6,1.3,2.1,2.3c0.5,1,0.8,2.2,0.8,3.6v15.2
	c-1.3,0.4-2.8,0.7-4.3,1.1c-1.5,0.3-3.3,0.5-5.2,0.5c-1.2,0-2.3-0.1-3.4-0.4c-1.1-0.3-2-0.7-2.8-1.3c-0.8-0.6-1.4-1.3-1.9-2.3
	c-0.5-0.9-0.7-2.1-0.7-3.4c0-1.3,0.3-2.4,0.8-3.3c0.5-0.9,1.2-1.6,2-2.1c0.8-0.5,1.8-0.9,2.9-1.1c1.1-0.2,2.3-0.3,3.5-0.3
	c1.3,0,2.5,0.1,3.5,0.2c1,0.1,2,0.2,2.8,0.4v-3c0-1-0.2-1.8-0.6-2.4c-0.4-0.6-0.9-1.2-1.5-1.6c-0.6-0.4-1.4-0.7-2.2-0.8
	c-0.8-0.1-1.7-0.2-2.5-0.2c-1,0-2.1,0.1-3.1,0.2c-1,0.1-2,0.3-2.8,0.4L564.7,429.4z"/>
	<path class="st0" d="M584.6,430.3c0.6-0.2,1.3-0.4,2.1-0.6c0.8-0.2,1.6-0.4,2.5-0.5c0.9-0.2,1.7-0.3,2.7-0.4
	c0.9-0.1,1.8-0.1,2.7-0.1c1.2,0,2.4,0.1,3.6,0.4c1.1,0.3,2.1,0.7,3,1.3c0.9,0.6,1.6,1.4,2.1,2.4c0.5,1,0.8,2.3,0.8,3.7v15.9h-2.8
	v-15.7c0-1.1-0.2-2-0.5-2.7c-0.4-0.7-0.8-1.3-1.4-1.7c-0.6-0.4-1.3-0.7-2.2-0.9c-0.8-0.2-1.8-0.3-2.7-0.3c-1.2,0-2.4,0.1-3.7,0.3
	c-1.2,0.2-2.4,0.4-3.4,0.7v20.3h-2.8V430.3"/>
	<path class="st0" d="M626.6,429.1v24.4c0,3-0.8,5.1-2.3,6.5c-1.6,1.4-3.9,2.1-7.1,2.1c-1.3,0-2.7-0.1-4.2-0.3
	c-1.5-0.2-2.9-0.5-4.2-0.8l0.4-2.5c1.3,0.4,2.6,0.6,4,0.8c1.4,0.2,2.7,0.3,3.9,0.3c2.4,0,4.2-0.5,5.2-1.5c1-1,1.5-2.5,1.5-4.5v-1.9
	c-0.8,0.2-1.8,0.3-3,0.5c-1.2,0.1-2.4,0.2-3.7,0.2c-1.2,0-2.4-0.1-3.5-0.4c-1.1-0.3-2.1-0.7-2.9-1.4c-0.8-0.6-1.5-1.5-2-2.5
	c-0.5-1-0.8-2.3-0.8-3.8v-15.2h2.8v15.1c0,1.1,0.2,2,0.6,2.8c0.4,0.7,0.9,1.3,1.5,1.8c0.6,0.4,1.3,0.8,2.1,0.9
	c0.8,0.2,1.6,0.3,2.5,0.3c1.2,0,2.4-0.1,3.6-0.2c1.2-0.2,2.2-0.3,3-0.5v-20.2H626.6"/>
	<path class="st0" d="M438.4,422.7c0.1,0,0.2,0,0.4,0c0.1,0,0.3,0,0.4,0c0.4,0,0.7-0.1,0.9-0.2c0.2-0.1,0.3-0.4,0.3-0.9
	c0-0.3-0.1-0.6-0.3-0.7c-0.2-0.1-0.5-0.2-0.9-0.2h-0.9V422.7 M439.4,420.1c0.6,0,1.1,0.1,1.5,0.4c0.3,0.2,0.5,0.7,0.5,1.2
	c0,0.5-0.1,0.8-0.3,1c-0.2,0.2-0.4,0.3-0.7,0.4c0.2,0.1,0.3,0.3,0.4,0.5c0.1,0.2,0.2,0.4,0.3,0.7l0.5,1.3h-0.9l-0.5-1.3
	c-0.1-0.2-0.2-0.4-0.3-0.5c-0.1-0.2-0.4-0.3-0.7-0.3c-0.1,0-0.3,0-0.4,0c-0.1,0-0.2,0-0.4,0v2.2h-0.9v-5.5H439.4z M443.8,422.9
	c0-1.3-0.4-2.4-1.2-3.1c-0.8-0.7-1.9-1.1-3.3-1.1c-1.5,0-2.6,0.4-3.3,1.1c-0.8,0.7-1.2,1.7-1.2,3.1c0,1.3,0.4,2.4,1.2,3.1
	c0.8,0.7,1.9,1.1,3.3,1.1c1.5,0,2.6-0.4,3.3-1.1C443.4,425.3,443.8,424.3,443.8,422.9z M444.7,422.9c0,1.6-0.5,2.8-1.4,3.6
	c-0.9,0.9-2.3,1.3-4,1.3c-1.7,0-3-0.4-4-1.3c-1-0.9-1.4-2.1-1.4-3.6c0-1.6,0.5-2.8,1.4-3.6c0.9-0.9,2.3-1.3,4-1.3c1.7,0,3,0.4,4,1.3
	C444.3,420.2,444.7,421.4,444.7,422.9z"/>
</svg>
