<?xml version="1.0" encoding="UTF-8" standalone="no"?>
<!DOCTYPE svg PUBLIC "-//W3C//DTD SVG 20010904//EN" "http://www.w3.org/TR/2001/REC-SVG-20010904/DTD/svg10.dtd">
<!-- Created with Inkscape (http://www.inkscape.org/) -->
<svg version="1.0" id="main"
   xmlns:svg="http://www.w3.org/2000/svg"
   xmlns="http://www.w3.org/2000/svg" viewBox="0 0 500 72">
   <defs id="defs4" />
   <g transform="translate(-81.071429,-984.04451)" id="layer1">
      <g transform="translate(1.9021745,1.841155)" id="g3188">
         <path d="M 81.071429,1052.3622 L 99.286,1052.3622 L 99.286,1032.7193 L 133.75,1032.7193 L 133.75,1023.4336 L 99.286,1023.4336 L 99.286,1011.6479 L 136.78571,1011.6479 L 136.78571,1000.0408 C 136.78571,1000.0408 98.035714,1000.0408 98.035714,1000.0408 C 91.130872,1000.0408 81.339286,1009.0725 81.339286,1016.7372 C 81.339286,1016.7372 81.071429,1052.3622 81.071429,1052.3622 z" id="path2396" />
         <path d="M 160.1875,1000.6122 C 154.19181,1000.6122 144.125,1010.2174 144.125,1015.6122 C 144.125,1015.6122 144.125,1037.2059 144.125,1037.2059 C 144.125,1042.9683 154.21402,1052.3622 159.09375,1052.3622 C 159.09375,1052.3622 195.125,1052.3622 195.125,1052.3622 C 199.12324,1052.3622 209.71875,1043.8705 209.71875,1037.2059 C 209.71875,1037.2059 209.71875,1016.5809 209.71875,1016.5809 C 209.71875,1010.122 200.54632,1000.6122 194.28125,1000.6122 C 194.28125,1000.6122 160.1875,1000.6122 160.1875,1000.6122 z M 162.15625,1012.0497 L 192.3125,1012.0497 C 192.3125,1012.0497 192.54768,1040.2657 192.3125,1041.1434 C 192.07732,1042.0211 162.15626,1041.1434 162.15625,1041.1434 L 162.15625,1012.0497 z" id="path2398" />
         <path d="M 214.82143,999.86218 L 235.53571,999.86218 L 246.964,1013.6122 L 259.64286,999.86218 L 281.25,999.86218 L 258.03571,1026.2912 L 280.53571,1052.3622 L 260,1052.3622 L 246.964,1037.8979 L 235,1052.3622 L 213.57143,1052.3622 L 236.60714,1026.2912 L 214.82143,999.86218 z" id="path2402" />
         <path d="M 340.35714,1012.3622 L 302.5,1012.3622 L 302.5,1041.2908 L 340.35714,1041.2908 L 340.35714,1052.3622 C 340.35714,1052.3622 302.5,1052.3622 302.5,1052.3622 C 298.65472,1052.3622 285.17857,1043.6693 285.17857,1037.005 C 285.17857,1037.005 285.17857,1015.3979 285.17857,1015.3979 C 285.17857,1010.7949 296.01206,1000.3979 302.5,1000.3979 C 302.5,1000.3979 340.53572,1000.3979 340.53572,1000.3979 L 340.35714,1012.3622 z" id="path2404" />
         <path d="M 421.96429,1052.3622 L 440.35714,1052.3622 C 440.35714,1052.3622 440.35714,1012.1832 440.35714,1012.1832 C 440.35714,1012.1832 469.82143,1012.1832 469.82143,1012.1832 L 469.82143,1052.3622 L 487.6046,1052.3622 C 487.6046,1052.3622 487.6046,1017.5403 487.6046,1017.5403 C 487.73087,1010.6168 478.85561,1000.0033 470.44643,1000.1296 C 470.44643,1000.1296 422.32143,1000.1296 422.32143,1000.1296 L 421.96429,1052.3622 z" id="path2406" />
         <path d="M 568.47123,984.04451 C 569.94886,984.04451 571.39151,984.42371 572.79916,985.18191 C 574.2068,985.94021 575.30336,987.02511 576.08886,988.43661 C 576.87432,989.84821 577.26707,991.32001 577.26708,992.85201 C 577.26707,994.36861 576.88016,995.82681 576.10636,997.22661 C 575.33252,998.62651 574.24763,999.71331 572.85166,1000.4872 C 571.45567,1001.261 569.99553,1001.6479 568.47123,1001.6479 C 566.94692,1001.6479 565.48678,1001.261 564.09081,1000.4872 C 562.69482,999.71331 561.60798,998.62651 560.83028,997.22661 C 560.05257,995.82681 559.66372,994.36861 559.66372,992.85201 C 559.66372,991.32001 560.0584,989.84821 560.84778,988.43661 C 561.63715,987.02511 562.73565,985.94021 564.1433,985.18191 C 565.55094,984.42371 566.99359,984.04451 568.47123,984.04451 L 568.47123,984.04451 z M 568.47123,985.50271 C 567.23467,985.50271 566.03118,985.81961 564.86074,986.45351 C 563.69029,987.08731 562.77454,987.99331 562.11349,989.17151 C 561.45244,990.34981 561.12192,991.57661 561.12192,992.85201 C 561.12192,994.11971 561.44661,995.33491 562.09599,996.49751 C 562.74537,997.66021 563.65334,998.56621 564.81991,999.21561 C 565.98646,999.86501 567.20357,1000.1897 568.47123,1000.1897 C 569.73888,1000.1897 570.95599,999.86501 572.12256,999.21561 C 573.28911,998.56621 574.19513,997.66021 574.84064,996.49751 C 575.48612,995.33491 575.80887,994.11971 575.80888,992.85201 C 575.80887,991.57661 575.48029,990.34981 574.82314,989.17151 C 574.16597,987.99331 573.25022,987.08731 572.0759,986.45351 C 570.90155,985.81961 569.7,985.50271 568.47123,985.50271 L 568.47123,985.50271 z M 564.60993,997.71661 L 564.60993,988.24411 L 567.86462,988.24411 C 568.97673,988.24411 569.78166,988.33161 570.2794,988.50661 C 570.77712,988.68161 571.17375,988.98691 571.46929,989.42241 C 571.7648,989.85791 571.91257,990.32061 571.91258,990.81061 C 571.91257,991.50271 571.66565,992.10541 571.17182,992.61871 C 570.67796,993.13201 570.02275,993.41981 569.20617,993.48201 C 569.54057,993.62201 569.80888,993.78921 570.01109,993.98361 C 570.39216,994.35691 570.85878,994.98301 571.41096,995.86181 L 572.56585,997.71661 L 570.69936,997.71661 L 569.85944,996.22341 C 569.19838,995.04911 568.66565,994.31411 568.26125,994.01861 C 567.98127,993.80081 567.57298,993.69201 567.03637,993.69201 L 566.13812,993.69201 L 566.13812,997.71661 L 564.60993,997.71661 z M 566.13812,992.38541 L 567.99295,992.38541 C 568.87952,992.38541 569.48419,992.25321 569.80694,991.98881 C 570.12968,991.72441 570.29105,991.37441 570.29106,990.93891 C 570.29105,990.65891 570.21328,990.40811 570.05775,990.18641 C 569.9022,989.96481 569.68639,989.79961 569.41031,989.69071 C 569.13422,989.58181 568.62288,989.52741 567.87629,989.52731 L 566.13812,989.52731 L 566.13812,992.38541 z" id="text2408"/>
         <path d="M 364.59821,1000.6122 C 358.60252,1000.6122 348.53571,1010.2174 348.53571,1015.6122 C 348.53571,1015.6122 348.53571,1037.2059 348.53571,1037.2059 C 348.53571,1042.9683 358.62473,1052.3622 363.50446,1052.3622 C 363.50446,1052.3622 399.53571,1052.3622 399.53571,1052.3622 C 403.53395,1052.3622 414.12946,1043.8705 414.12946,1037.2059 C 414.12946,1037.2059 414.12946,1016.5809 414.12946,1016.5809 C 414.12946,1010.122 404.95703,1000.6122 398.69196,1000.6122 C 398.69196,1000.6122 364.59821,1000.6122 364.59821,1000.6122 z M 366.56696,1012.0497 L 396.72321,1012.0497 C 396.72321,1012.0497 396.95839,1040.2657 396.72321,1041.1434 C 396.48803,1042.0211 366.56697,1041.1434 366.56696,1041.1434 L 366.56696,1012.0497 z" id="path2413" />
         <path d="M 494.73135,1052.3622 L 513.1242,1052.3622 C 513.1242,1052.3622 513.1242,1012.1832 513.1242,1012.1832 C 513.1242,1012.1832 542.58849,1012.1832 542.58849,1012.1832 L 542.58849,1052.3622 L 560.37166,1052.3622 C 560.37166,1052.3622 560.37166,1017.5403 560.37166,1017.5403 C 560.49793,1010.6168 551.62267,1000.0033 543.21349,1000.1296 C 543.21349,1000.1296 495.08849,1000.1296 495.08849,1000.1296 L 494.73135,1052.3622 z" id="path2415" />
      </g>
   </g>
</svg>
