<?xml version="1.0" encoding="UTF-8" standalone="no"?>
<!DOCTYPE svg PUBLIC "-//W3C//DTD SVG 20010904//EN" "http://www.w3.org/TR/2001/REC-SVG-20010904/DTD/svg10.dtd">
<svg id="main" data-name="Layer 1"
    xmlns="http://www.w3.org/2000/svg" viewBox="0 0 120.78 117.79">
    <path d="M67.93,7.86A60.4,60.4,0,0,0,48.84,125.55c3,.55,4.13-1.31,4.13-2.91,0-1.44-.06-6.2-.08-11.24-16.8,3.65-20.35-7.13-20.35-7.13-2.74-7-6.7-8.83-6.7-8.83-5.48-3.75.41-3.67.41-3.67,6.06.42,9.26,6.22,9.26,6.22,5.38,9.23,14.12,6.56,17.57,5,.54-3.9,2.11-6.57,3.83-8.08C43.5,93.41,29.4,88.23,29.4,65.09a23.39,23.39,0,0,1,6.22-16.21c-.62-1.52-2.69-7.66.59-16,0,0,5.07-1.62,16.61,6.19a57.32,57.32,0,0,1,30.24,0c11.53-7.81,16.59-6.19,16.59-6.19,3.29,8.32,1.22,14.46.59,16a23.3,23.3,0,0,1,6.22,16.21c0,23.19-14.13,28.3-27.57,29.8,2.16,1.87,4.09,5.54,4.09,11.18,0,8.08-.07,14.58-.07,16.57,0,1.61,1.09,3.49,4.15,2.9A60.4,60.4,0,0,0,67.93,7.86Z" transform="translate(-7.55 -7.86)"/>
    <path d="M30.42,94.56c-.13.3-.61.39-1,.18s-.68-.6-.54-.9.6-.4,1-.19.69.61.54.91ZM29.68,94" fill-rule="evenodd" eventransform="translate(-7.55 -7.86)"/>
    <path d="M32.86,97.29c-.28.26-.85.14-1.23-.28s-.47-1-.18-1.26a1,1,0,0,1,1.24.28c.4.43.48,1,.17,1.26Zm-.57-.62" fill-rule="evenodd" transform="translate(-7.55 -7.86)"/>
    <path d="M35.25,100.77c-.37.25-1,0-1.35-.53s-.37-1.18,0-1.43,1,0,1.35.5a1.08,1.08,0,0,1,0,1.46Zm0,0" fill-rule="evenodd" transform="translate(-7.55 -7.86)"/>
    <path d="M38.51,104.13c-.33.36-1,.26-1.55-.24a1,1,0,1,1,1.22-1.31c.52.49.68,1.18.33,1.55Zm0,0" fill-rule="evenodd" transform="translate(-7.55 -7.86)"/>
    <path d="M43,106.08c-.15.47-.83.68-1.51.48s-1.13-.76-1-1.24.82-.7,1.51-.48,1.13.76,1,1.24Zm0,0" fill-rule="evenodd" transform="translate(-7.55 -7.86)"/>
    <path d="M48,106.44c0,.5-.56.91-1.28.92s-1.31-.39-1.32-.88.57-.91,1.29-.92,1.31.38,1.31.88Zm0,0" fill-rule="evenodd" transform="translate(-7.55 -7.86)"/>
    <path d="M52.55,105.66c.08.48-.41,1-1.13,1.11s-1.35-.17-1.44-.65.42-1,1.12-1.13,1.36.17,1.45.67Zm0,0" fill-rule="evenodd" transform="translate(-7.55 -7.86)"/>
</svg>
