<?xml version="1.0" encoding="utf-8" standalone="no"?>
<!DOCTYPE svg PUBLIC "-//W3C//DTD SVG 20010904//EN" "http://www.w3.org/TR/2001/REC-SVG-20010904/DTD/svg10.dtd">
<svg version="1.1" id="main"
  xmlns:dc="http://purl.org/dc/elements/1.1/"
  xmlns:cc="http://creativecommons.org/ns#"
  xmlns:rdf="http://www.w3.org/1999/02/22-rdf-syntax-ns#"
  xmlns:svg="http://www.w3.org/2000/svg"
  xmlns="http://www.w3.org/2000/svg"
  xmlns:sodipodi="http://sodipodi.sourceforge.net/DTD/sodipodi-0.dtd"
  xmlns:inkscape="http://www.inkscape.org/namespaces/inkscape" xml:space="preserve" viewBox="0 0 2185.3333 466.66666" sodipodi:docname="microsoft.eps">
  <defs id="defs6" />
  <sodipodi:namedview pagecolor="#ffffff" borderopacity="1" objecttolerance="10" gridtolerance="10" guidetolerance="10" inkscape:pageopacity="0" inkscape:pageshadow="2" inkscape:window-width="640" inkscape:window-height="480" id="namedview4" />
  <g id="g10" inkscape:groupmode="layer" inkscape:label="ink_ext_XXXXXX" transform="matrix(1.3333333,0,0,-1.3333333,0,466.66667)">
    <g id="g12" transform="scale(0.1)">
      <path d="m 0,3500 h 1665 c -0.1,-555 0,-1110 -0.1,-1665 C 1110,1835 555,1835 0,1835 v 1665" id="path14" />
      <path d="m 1665,3500 h 170 c 0,-555 -0.1,-1110 0.1,-1665 554.9,0 1109.9,0.1 1664.8,0 0.2,555 0.1,1110 0.1,1665 H 16390 V 2205.1 c -118.8,-0.4 -237.6,0.9 -356.3,-0.8 -2.7,150.3 -0.3,300.6 -1.3,450.8 -118.8,-35.8 -236.9,-73.9 -356.3,-107.9 -2.9,-114 -0.2,-228.1 -1.5,-342.1 -175.6,0.1 -351.2,-0.2 -526.8,0.2 2.2,89.8 -6.2,180.3 6.7,269.6 10.7,70.4 51.5,140.8 120.1,168 86.5,35.5 183.2,11.9 265.4,-24.3 -0.5,102.9 0.8,205.8 -0.7,308.6 -173,47.6 -371.3,38.3 -524.8,-61.6 -99,-63.4 -170.8,-164.8 -203.1,-277.2 -38.2,-124.5 -18.7,-256 -24.8,-383.8 -83.3,0.6 -166.5,1.4 -249.6,-0.5 0.9,-96.2 0.5,-192.4 0.2,-288.5 83.5,-1.7 167.1,0.3 250.6,-1.3 -0.7,-404.8 -0.2,-809.5 -0.2,-1214.3 120,0 240.1,0 360.1,0 0,404.9 -0.1,809.8 0.1,1214.7 175.6,0.3 351.3,0.2 527,0.1 0.5,-258.1 -0.5,-516.1 0.4,-774.1 1.6,-120.2 22.1,-248.7 101.7,-343.598 68.9,-84 178.3,-122.403 283.9,-130.204 111.3,-7.898 226.3,5.704 329.2,50.403 L 16390,0 H 3500 c 0,555 0,1110 0,1665 -555,0 -1110,0.1 -1664.9,-0.1 C 1834.9,1110 1835.1,555 1835,0 h -170 c 0,555 0.1,1109.9 0,1664.9 -555,0.3 -1110,0 -1665,0.2 V 1835 c 555,0 1110,0 1664.9,0 0.1,555 0,1110 0.1,1665" fill="currentColor" id="path16" />
      <path d="m 1835,3500 h 1665 c 0,-555 0.1,-1110 -0.1,-1665 -554.9,0.1 -1109.9,0 -1664.8,0 -0.2,555 -0.1,1110 -0.1,1665" id="path18" />
      <path d="m 15014.5,2865.6 c 153.5,99.9 351.8,109.2 524.8,61.6 1.5,-102.8 0.2,-205.7 0.7,-308.6 -82.2,36.2 -178.9,59.8 -265.4,24.3 -68.6,-27.2 -109.4,-97.6 -120.1,-168 -12.9,-89.3 -4.5,-179.8 -6.7,-269.6 175.6,-0.4 351.2,-0.1 526.8,-0.2 1.3,114 -1.4,228.1 1.5,342.1 119.4,34 237.5,72.1 356.3,107.9 1,-150.2 -1.4,-300.5 1.3,-450.8 118.7,1.7 237.5,0.4 356.3,0.8 v -292.4 c -119.2,4.9 -238.5,1.3 -357.7,1.7 0.5,-168.1 0.1,-336.2 0.2,-504.4 1.9,-93.1 -5,-186.7 5.9,-279.5 6.6,-54.7 26.5,-115.3 77.8,-143.602 85.9,-48.097 194.9,-27.097 273.8,25.702 V 717.301 c -102.9,-44.699 -217.9,-58.301 -329.2,-50.403 -105.6,7.801 -215,46.204 -283.9,130.204 -79.6,94.898 -100.1,223.398 -101.7,343.598 -0.9,258 0.1,516 -0.4,774.1 -175.7,0.1 -351.4,0.2 -527,-0.1 -0.2,-404.9 -0.1,-809.8 -0.1,-1214.7 -120,0 -240.1,0 -360.1,0 0,404.8 -0.5,809.5 0.2,1214.3 -83.5,1.6 -167.1,-0.4 -250.6,1.3 0.3,96.1 0.7,192.3 -0.2,288.5 83.1,1.9 166.3,1.1 249.6,0.5 6.1,127.8 -13.4,259.3 24.8,383.8 32.3,112.4 104.1,213.8 203.1,277.2" id="path20" />
      <path d="m 7304.7,2844.6 c 72.6,11 151.2,-13.8 199.3,-70.6 56.4,-62.2 66.8,-161.2 25,-233.9 -46.2,-82 -149.6,-120.1 -239.7,-100.4 -93.5,16.8 -171.4,103.7 -167.2,200.6 -2.7,102 82.6,192.9 182.6,204.3" id="path22" />
      <path d="m 4545,2800 c 174.6,0 349.1,0 523.7,0 163,-413.9 327.2,-827.4 490.4,-1241.3 41.7,-103.5 80.7,-208.2 124.4,-310.9 209.7,517.2 422.4,1033.1 630.5,1551 167.9,2.7 335.9,0.6 503.9,1 -0.4,-699.9 -0.2,-1399.8 -0.1,-2099.698 -121.2,0.296 -242.3,-1 -363.4,0.699 1.3,516.499 -0.1,1032.999 0.6,1549.599 0.2,23.2 -0.6,46.4 -2.2,69.6 -7.1,-10.8 -13.4,-22 -18.9,-33.6 C 6225.8,1757.7 6013.7,1230.5 5806.8,701.301 5720.6,698.199 5634.3,701.102 5548,699.699 5333.3,1228.4 5121.3,1758.3 4907.7,2287.4 c -5.6,11 -11.6,21.7 -18.1,32 -4.4,-226.3 -0.7,-452.8 -1.9,-679.1 0.1,-313.4 -0.2,-626.8 0.1,-940.198 -114.3,-0.301 -228.6,0 -342.8,-0.102 -0.1,700 -0.2,1400 0,2100" id="path24" />
      <path d="m 8295.7,2206.5 c 173.8,49.5 361.2,47.5 534.9,-1.6 35.8,-10 70.5,-23.9 102.7,-42.8 -2,-114.7 0,-229.5 -1.1,-344.3 -116.1,88.7 -263.4,144.9 -411,126.3 -117.2,-10.6 -229,-71.4 -299.1,-166.1 -90.1,-117.4 -110.9,-273.3 -95.4,-416.9 11.6,-112.4 58.1,-224.7 145.5,-299.2 90.8,-80.701 218.1,-109.298 336.9,-100.298 117.4,13.5 228.2,63.198 323.1,132.598 1,-108.7 -0.5,-217.399 0.8,-326.098 C 8785.8,680.5 8609.3,657.898 8440.8,666.199 8268.4,675.301 8096.5,740.602 7971.7,861.801 7836.1,992.5 7762.5,1178.9 7753.8,1365.6 c -8.8,194.1 30.7,396.6 142.4,558.7 93.6,138.3 240,236.2 399.5,282.2" id="path26" />
      <path d="m 10735.4,2232.4 c 172.8,22 355.1,12.2 515.5,-60.8 139.2,-62.8 252,-178.9 314.5,-317.9 66.7,-148 82.9,-314.2 71.6,-474.7 -11.1,-156.7 -60.3,-313.7 -158.3,-438.199 -100.3,-132.199 -251.5,-221.801 -413.4,-255.102 -138.4,-28.801 -283.2,-28.699 -421.6,0.403 -165.6,35.398 -318.9,131.5 -416,271.296 -114,162.002 -146.4,368.002 -131.9,562.102 9.8,164.7 61,330.7 166.2,459.9 115.2,144.7 291.9,230.1 473.4,253" id="path28" />
      <path d="m 12229.2,2229.4 c 166.5,29.3 340.8,7.8 498.4,-51.9 0.2,-110.4 0,-220.7 0.1,-331 -110.1,75.7 -244.6,116.4 -378.2,111.7 -67.3,-2.6 -141.3,-31.1 -172,-95.1 -24.4,-63.3 -7.5,-146.3 52.2,-184.2 102.1,-68.3 223.9,-97.3 329.7,-158.5 83.3,-46.8 164.1,-108 206.3,-196.2 79.3,-165.2 45.7,-383.501 -93.7,-506.7 -133.1,-124.398 -324.8,-158.801 -501.1,-152.199 -125.2,8.097 -251,32.801 -366.1,84 0.5,116.097 -0.7,232.097 0.6,348.099 96.8,-70.3 208.5,-120.599 326.7,-141.002 82.3,-13.398 171.8,-14 248.5,22.801 73.4,36.501 86.6,140.801 43,204.601 -40.8,49.2 -100.7,76.3 -157.2,102.9 -106.1,47.7 -217.6,87.6 -310.8,159.1 -65.5,51.1 -115.1,123.1 -134.5,204.3 -28.8,119.7 -19.8,254.6 49.8,359.2 79.5,121.9 217.6,195 358.3,220.1" id="path30" />
      <path d="m 13605.5,2232.9 c 179.7,22.3 370.5,10.2 534.5,-72.6 143,-71.5 253.9,-200.7 309.3,-350.1 43.3,-114.3 58.5,-237.7 56,-359.4 0.3,-181.8 -48.8,-368.4 -162.9,-512.601 -106.8,-139.597 -270.2,-230.301 -442.7,-258.801 -168.7,-27.296 -346.9,-20.199 -507.2,42.903 -162.4,63.898 -297.4,194.301 -365.8,354.899 -71.3,163.7 -78.8,347.9 -56.6,522.8 23.3,174.9 102.5,345.9 237.5,462.2 110.6,97.1 253,152.1 397.9,170.7" id="path32" />
      <path d="m 9738.5,2182 c 99.4,59.7 225.7,64.7 334.2,28.2 -0.5,-120.1 0,-240.2 -0.3,-360.3 -71,46 -159.6,65.7 -243.4,57.2 -102.2,-11.6 -183.2,-90.1 -225.2,-180.1 -45.6,-95.3 -54.2,-203.1 -51.3,-307.3 0,-239.9 0.1,-479.802 0,-719.7 -118.4,0 -236.7,0 -355,0 -0.3,501.4 0.4,1002.9 -0.3,1504.3 118.5,1.5 237,0.9 355.5,0.3 -0.5,-86.1 0,-172.2 -0.3,-258.4 38.5,93.7 95.8,184.7 186.1,235.8" id="path34" />
      <path d="m 7154.8,2204.6 c 119.4,0.5 238.9,1.7 358.3,-0.6 -1.4,-501.3 -0.1,-1002.7 -0.6,-1504 -119.2,0 -238.4,0 -357.5,0 -0.3,501.5 0.1,1003 -0.2,1504.6" id="path36" />
      <path d="m 10842.8,1946.6 c 108.2,7.1 223.4,-23.5 301.2,-102.2 83.2,-81.8 115.4,-200.5 124.3,-313.7 6.4,-123.9 1.3,-253 -50.7,-367.8 -34.4,-77.4 -97.4,-142.8 -176.9,-173.798 -93,-35.704 -197.5,-37.801 -293.5,-12.903 -97.7,25.701 -180.6,96.301 -225.7,186.201 -58,115.8 -66.7,249.7 -54.7,376.7 10.9,115.5 51.1,234.3 139.1,314 63.8,59.6 150.8,88.7 236.9,93.5" fill="currentColor" id="path38" />
      <path d="m 13702.7,1946.3 c 101.7,7.1 210.3,-16.4 288.5,-85.1 72.1,-59.8 112,-149.4 130.3,-239.6 20.6,-105.8 20.4,-215.3 3,-321.6 -13.8,-79.2 -41.2,-158.2 -93.1,-220.9 -52.3,-63 -130.1,-101.401 -210.4,-113.202 -86.2,-12.898 -177,-6.699 -257.6,28 -87,36.802 -154.4,112.102 -189.9,198.702 -42.7,103.2 -51.2,217.5 -42.7,327.9 8.2,106.9 38.5,216.6 109.1,299.7 64.4,77.6 163.2,120.5 262.8,126.1" fill="currentColor" id="path40" />
      <path d="m 16032.3,1914.4 c 119.2,-0.4 238.5,3.2 357.7,-1.7 v -900.1 c -78.9,-52.799 -187.9,-73.799 -273.8,-25.702 -51.3,28.302 -71.2,88.902 -77.8,143.602 -10.9,92.8 -4,186.4 -5.9,279.5 -0.1,168.2 0.3,336.3 -0.2,504.4" fill="currentColor" id="path42" />
      <path d="m 0,1665.1 c 555,-0.2 1110,0.1 1665,-0.2 0.1,-555 0,-1109.9 0,-1664.9 L 0,0 v 1665.1" id="path44" />
      <path d="m 1835.1,1664.9 c 554.9,0.2 1109.9,0.1 1664.9,0.1 0,-555 0,-1110 0,-1665 H 1835 c 0.1,555 -0.1,1110 0.1,1664.9" id="path46" />
    </g>
  </g>
</svg>
