<?xml version="1.0" standalone="no"?>
<!DOCTYPE svg PUBLIC "-//W3C//DTD SVG 20010904//EN"
 "http://www.w3.org/TR/2001/REC-SVG-20010904/DTD/svg10.dtd">
<svg version="1.0" id="main"
    xmlns="http://www.w3.org/2000/svg" viewBox="0 0 197 156" preserveAspectRatio="xMidYMid meet">
    <g transform="translate(0.000000,156.000000) scale(0.100000,-0.100000)" stroke="none">
        <path d="M855 1544 c-285 -61 -495 -313 -495 -595 0 -151 56 -297 157 -409 54 -59 131 -120 152 -120 8 0 11 123 11 400 l0 400 305 0 305 0 0 -400 c0 -288 3 -400 11 -400 20 0 108 70 158 127 130 146 180 356 131 548 -43 168 -166 319 -322 394 -139 67 -272 84 -413 55z"/>
        <path d="M740 770 l0 -390 235 157 235 156 0 234 0 233 -235 0 -235 0 0 -390z"/>
        <path d="M7 233 c-13 -12 -7 -23 13 -23 18 0 20 -7 20 -84 0 -75 -2 -84 -20 -89 -11 -3 -20 -10 -20 -16 0 -7 25 -11 65 -11 51 0 65 3 65 15 0 8 -9 15 -20 15 -16 0 -20 7 -20 35 0 32 3 35 29 35 31 0 41 -14 41 -61 0 -21 7 -32 24 -40 35 -16 66 3 66 41 0 35 -14 39 -25 7 -7 -21 -8 -20 -12 8 -3 17 -11 37 -20 47 -13 14 -12 17 6 23 45 14 38 77 -11 94 -34 12 -171 15 -181 4z m147 -29 c25 -10 20 -51 -6 -58 -49 -13 -58 -8 -58 29 0 30 3 35 24 35 13 0 31 -3 40 -6z"/>
        <path d="M950 225 c0 -8 7 -15 15 -15 9 0 15 -9 15 -24 0 -23 -2 -24 -31 -14 -26 9 -35 7 -57 -9 -22 -16 -28 -30 -30 -68 -5 -71 38 -108 92 -79 14 7 26 9 26 3 0 -5 38 -9 85 -9 52 0 85 4 85 10 0 6 -7 13 -15 16 -35 14 -7 123 29 111 14 -5 21 -107 7 -107 -6 0 -11 -7 -11 -15 0 -11 12 -15 50 -15 48 0 67 14 35 26 -11 4 -15 21 -15 55 0 77 -46 108 -97 67 -10 -8 -13 0 -13 36 0 46 0 46 -35 46 -36 0 -50 -22 -20 -34 12 -4 15 -24 15 -86 l0 -81 -27 3 -28 3 -3 98 -3 97 -34 0 c-24 0 -35 -5 -35 -15z m19 -99 c28 -34 -5 -97 -43 -83 -16 6 -24 76 -9 90 11 12 40 8 52 -7z"/>
        <path d="M314 170 c-52 -21 -69 -88 -34 -133 25 -31 62 -41 106 -27 39 13 54 35 54 80 0 44 -14 66 -51 79 -37 13 -46 13 -75 1z m65 -34 c17 -21 10 -87 -11 -100 -28 -17 -52 5 -56 48 -4 41 11 66 38 66 10 0 23 -6 29 -14z"/>
        <path d="M748 166 c-16 -8 -28 -11 -28 -5 0 5 -18 9 -40 9 -42 0 -55 -18 -20 -27 17 -4 20 -14 20 -54 0 -48 -1 -49 -30 -49 l-30 0 0 65 0 65 -40 0 c-42 0 -55 -18 -20 -27 28 -7 27 -66 -1 -94 -32 -32 -49 -10 -49 62 l0 59 -35 0 c-35 0 -47 -16 -20 -26 11 -5 15 -21 15 -60 0 -46 4 -56 25 -70 22 -14 27 -14 55 -1 16 9 30 11 30 6 0 -5 38 -9 85 -9 52 0 85 4 85 10 0 6 -7 13 -15 16 -35 14 -7 123 29 111 14 -5 21 -107 7 -107 -6 0 -11 -7 -11 -15 0 -11 12 -15 50 -15 48 0 67 14 35 26 -11 4 -15 21 -15 55 0 36 -5 54 -20 69 -24 24 -27 24 -62 6z"/>
        <path d="M1304 170 c-52 -21 -69 -88 -34 -133 25 -31 62 -41 106 -27 39 13 54 35 54 80 0 44 -14 66 -51 79 -37 13 -46 13 -75 1z m64 -32 c7 -7 12 -28 12 -48 0 -56 -47 -84 -70 -41 -23 44 -7 101 30 101 9 0 21 -5 28 -12z"/>
        <path d="M1673 168 c-49 -24 -28 -80 37 -96 39 -9 47 -35 14 -40 -14 -2 -29 6 -42 23 -21 27 -42 26 -42 -1 0 -8 -7 -14 -15 -14 -12 0 -15 14 -15 65 l0 65 -40 0 c-42 0 -55 -18 -20 -27 28 -7 27 -66 -1 -94 -32 -32 -49 -10 -49 62 l0 59 -35 0 c-35 0 -47 -16 -20 -26 11 -5 15 -21 15 -60 0 -46 4 -56 25 -70 22 -14 27 -14 55 -1 16 9 30 11 30 6 0 -5 30 -10 68 -10 37 0 79 -1 94 -1 35 -1 58 18 58 48 0 25 -28 48 -72 58 -16 4 -28 13 -28 21 0 22 36 18 59 -6 23 -25 41 -18 41 16 0 19 -5 24 -22 23 -13 0 -34 2 -48 5 -14 3 -35 1 -47 -5z"/>
        <path d="M1854 170 c-12 -5 -29 -19 -38 -32 -38 -54 1 -132 67 -132 37 0 77 26 77 51 0 19 -17 16 -40 -7 -24 -24 -34 -25 -54 -4 -27 26 -18 34 39 34 54 0 55 1 55 28 0 48 -59 82 -106 62z m54 -43 c3 -13 -3 -17 -28 -17 -28 0 -30 2 -20 21 13 24 43 22 48 -4z"/>
    </g>
</svg>
