<?xml version="1.0" encoding="utf-8"?>
<!DOCTYPE svg PUBLIC "-//W3C//DTD SVG 1.1//EN" "http://www.w3.org/Graphics/SVG/1.1/DTD/svg11.dtd">
<svg version="1.1" id="main"
	xmlns="http://www.w3.org/2000/svg"
	xmlns:xlink="http://www.w3.org/1999/xlink" viewBox="0 0 278.166 88.168" overflow="visible" xml:space="preserve">
	<g>
		<path id="svg_2" d="m227.317,71.331l-40.429,0.087c-0.603,0 -0.994,-0.494 -0.861,-1.081l1.538,-6.322l-1.441,0l-3.873,7.1c-0.114,0.21 -0.538,0.461 -0.775,0.461l-57.017,0.072c-0.541,0 -0.938,-0.449 -0.879,-0.982l0.59,-5.275c-5.828,5.019 -13.806,6.117 -18.588,6.117l-23.361,0c-0.657,0 -1.044,-0.538 -0.834,-1.163l0.854,-2.56c-3.848,2.923 -9,5.011 -15.895,5.011c-8.163,0 -12.955,-3.038 -15.038,-7.677c-4.954,4.823 -12.522,7.62 -20.152,7.62c-2.385,0 -4.703,-0.257 -6.907,-0.738l-2.77,8.549c-0.269,0.834 -1.133,0.938 -1.592,0.192l-16.006,-25.954c-0.298,-0.481 -0.108,-1.066 0.415,-1.281l23.297,-9.565c-0.082,-0.19 -0.158,-0.38 -0.227,-0.565c-1.173,-3.083 -1.464,-8.252 -0.676,-11.592c1.217,-5.142 7.627,-17.85 24.697,-17.092c3.456,0.153 8.022,1.573 11.02,3.204l0.945,-2.132c0.099,-0.296 0.526,-0.603 0.839,-0.603l54.62,-0.148c3.639,0 7.63,0.79 10.672,2.849l0.212,-1.896c0.047,-0.415 0.464,-0.785 0.879,-0.785l97.149,0.055c0.409,0 0.827,0.365 0.876,0.772l1.189,9.575c3.886,-4.112 6.967,-6.652 10.896,-8.64c3.056,-1.543 6.887,-1.888 9.454,-1.96c0.467,-0.015 0.911,-0.02 1.338,-0.017l3.185,-9.985c0.267,-0.836 1.13,-0.943 1.595,-0.197l15.759,25.507c0.298,0.486 0.108,1.071 -0.425,1.284l-27.41,11.034c-0.797,0.324 -1.427,-0.256 -1.173,-1.081l0.783,-2.54c-1.85,1.849 -3.807,4.14 -5.771,6.7c-2.629,3.423 -5.957,10.377 -6.84,12.999l-0.247,0.716"/>
		<path id="svg_3" d="m251.232,29.871c-5.226,-0.197 -11.533,6.371 -16.719,13.123c-2.987,3.893 -6.522,11.308 -7.521,14.283c-0.294,0.872 -3.432,9.938 -3.432,9.938l-14.337,0l7.237,-20.639l-4.135,-27.035l12.146,0l2.256,17.27c0,0 3.587,-5.305 5.636,-7.517c4.031,-4.344 6.82,-6.643 10.313,-8.405c4.266,-2.158 11.979,-1.363 11.979,-1.363l1.876,-5.885l9.519,15.403l-16.633,6.694l1.815,-5.867m-89.218,37.36l25.544,-47.634l-12.571,0l-13.938,29.565c0.656,-3.473 5.154,-29.565 5.154,-29.565l-11.054,0c0,0 -12.816,26.217 -14.379,29.755l5.66,-29.755l-12.695,0l-5.327,47.634l12.508,0l13.831,-29.819c-0.657,3.285 -5.177,29.819 -5.177,29.819l12.444,0m30.994,-47.634l-25.59,47.562l11.959,0l4.125,-7.563l9.622,0l-1.789,7.699l13.613,0l5.655,-47.698l-17.595,0m4.928,12.784l-2.886,17.455l-6.465,0l9.351,-17.455z" fill="currentColor"/>
		<path id="svg_4" d="m85.844,19.925l12.885,0l-10.421,31.145c-1.923,5.75 -7.055,17.307 -21.962,17.307c-14.91,0 -12.303,-11.558 -10.38,-17.307l10.419,-31.145l12.891,0l-10.022,29.945c-0.422,1.264 -1.037,2.906 -1.079,4.167c-0.066,1.328 0.417,2.34 2.187,2.34c1.832,0 2.992,-1.012 3.73,-2.276c0.822,-1.326 1.311,-2.967 1.713,-4.169l10.039,-30.007m-66.212,51.989l1.743,-5.382c2.918,1.144 6.248,1.787 9.78,1.787c11.832,0 21.419,-7.239 21.419,-16.17c0,-3.839 -2.096,-7.06 -4.734,-10.141c-2.066,-2.414 -4.325,-5.574 -2.979,-8.783c1.362,-3.246 4.957,-4.537 10.935,-1.007l5.25,-9.998c-2.229,-1.454 -6.764,-2.979 -9.854,-3.115c-14.14,-0.63 -19.262,9.713 -20.205,13.695c-0.597,2.528 -0.333,6.791 0.506,9.002c0.761,1.995 2.163,4.552 4.036,6.509c1.619,1.681 2.269,4.182 1.77,5.364c-0.733,1.735 -3.127,2.644 -5.194,2.77c-2.303,0.141 -4.851,-0.269 -6.956,-1.565l1.925,-5.952l-17.251,7.084l9.809,15.902m89.645,-33.566l1.787,0c1.978,0 5.49,-0.696 6.786,-3.92c1.634,-4.081 -1.716,-4.367 -3.527,-4.367l-2.172,0l-2.874,8.287m-5.314,18.703l3.508,0.005c2.755,0 5.226,-1.049 5.912,-4.095c0.698,-3.073 -2.01,-4.796 -6.482,-4.584l-2.938,8.674zm-0.933,-37.326l15.781,0c7.223,0 13.406,2.911 10.459,13.278c-1.039,3.648 -4.665,8.215 -8.373,9.538c3.443,1.832 6.877,7.171 4.979,12.858c-3.271,9.797 -13.765,11.984 -20.294,11.984l-18.454,0l15.902,-47.658z" fill="currentColor"/>
	</g>
</svg>
