<?xml version="1.0" standalone="no"?>
<!DOCTYPE svg PUBLIC "-//W3C//DTD SVG 20010904//EN" "http://www.w3.org/TR/2001/REC-SVG-20010904/DTD/svg10.dtd">
<svg version="1.0" id="main"
    xmlns="http://www.w3.org/2000/svg"
    xmlns:xlink="http://www.w3.org/1999/xlink" viewBox="0 0 1200 771" preserveAspectRatio="xMidYMid meet">
    <g transform="translate(0.000000,771.000000) scale(0.100000,-0.100000)" stroke="none">
        <path d="M9480 5052 c-30 -15 -70 -77 -312 -492 -329 -562 -296 -506 -301 -500 -10 12 -259 433 -296 501 -22 42 -41 83 -41 91 0 23 40 45 139 78 102 33 235 55 292 47 l39 -5 54 76 c30 43 52 81 49 86 -11 16 -89 44 -143 51 -112 13 -330 -29 -458 -90 -203 -96 -239 -198 -140 -397 26 -51 123 -220 216 -376 l171 -282 -108 -183 c-238 -403 -235 -397 -186 -456 43 -50 273 -131 428 -150 144 -17 252 12 315 84 39 44 46 69 40 153 -6 86 -56 211 -160 405 l-80 148 97 167 c54 92 148 252 209 357 l111 189 5 -648 5 -648 34 -30 c30 -26 39 -30 77 -25 24 2 51 10 59 17 8 7 52 79 97 161 45 82 84 149 87 148 3 0 23 -36 44 -79 21 -44 60 -104 88 -134 64 -71 117 -96 197 -96 59 0 65 2 107 41 51 47 112 135 177 254 l43 80 5 -135 c6 -174 21 -200 109 -200 47 0 34 -10 296 234 93 87 170 164 170 171 0 6 -30 44 -67 84 l-68 73 -108 -101 c-60 -56 -112 -101 -116 -101 -3 0 -6 113 -6 251 l0 251 -35 35 c-32 32 -40 35 -77 30 -57 -8 -77 -32 -143 -177 -118 -258 -286 -570 -307 -570 -13 0 -72 97 -103 170 -15 36 -38 89 -51 117 l-23 53 118 215 c82 149 115 217 107 223 -20 15 -165 92 -173 92 -4 0 -78 -129 -163 -285 -85 -156 -158 -284 -162 -285 -5 0 -8 282 -8 628 0 696 4 659 -66 688 -42 18 -42 18 -84 -4z m-532 -1579 c39 -82 72 -161 74 -178 3 -28 0 -30 -32 -33 -74 -8 -285 41 -285 65 0 13 158 292 166 293 3 0 38 -66 77 -147z"/>
        <path d="M850 5049 c-82 -14 -277 -82 -371 -129 -159 -80 -229 -151 -229 -234 0 -76 52 -212 296 -768 l174 -398 -111 -132 c-61 -73 -136 -170 -167 -217 -46 -69 -56 -93 -60 -137 -4 -50 -2 -56 30 -88 104 -104 502 -111 633 -11 48 36 69 87 62 154 -4 50 -21 99 -110 332 l-21 57 89 98 c50 54 124 134 165 177 l75 79 -4 -207 c-4 -235 0 -263 35 -299 67 -66 153 -35 305 111 54 52 115 117 136 144 20 27 41 49 45 49 4 0 8 -15 8 -32 0 -64 30 -230 49 -273 35 -78 119 -107 188 -65 58 35 176 213 279 423 27 53 51 97 54 97 3 0 15 -60 28 -133 59 -353 58 -348 116 -372 40 -17 93 -6 121 25 12 13 35 102 71 277 30 142 56 277 60 301 3 23 10 44 14 47 3 2 42 -10 85 -26 43 -17 109 -39 147 -48 37 -10 70 -20 74 -23 3 -4 3 -31 -1 -61 l-7 -55 -87 -7 c-103 -9 -138 -24 -158 -72 -20 -50 -10 -95 30 -129 31 -26 34 -26 124 -20 l93 6 0 -425 0 -425 103 0 104 0 6 308 c4 169 7 364 7 433 l0 126 73 6 c39 4 172 14 295 24 l223 17 -7 106 c-4 58 -8 106 -9 107 -1 2 -121 -6 -266 -17 -145 -11 -274 -20 -286 -20 -22 0 -23 4 -23 73 l0 72 37 20 c51 28 147 125 193 196 92 142 135 305 128 480 -4 104 -6 112 -48 196 -98 198 -277 306 -413 249 -42 -17 -83 -66 -97 -114 -6 -23 -10 -193 -10 -439 0 -385 -1 -403 -18 -403 -32 0 -133 38 -238 90 -176 87 -220 67 -255 -118 -6 -34 -14 -60 -17 -57 -3 2 -13 53 -23 112 -20 114 -36 149 -83 171 -36 18 -87 8 -113 -21 -12 -12 -33 -51 -48 -87 -47 -111 -165 -361 -218 -459 -37 -70 -52 -89 -59 -78 -4 8 -9 145 -11 304 -2 159 -7 295 -12 303 -33 58 -82 79 -140 60 -50 -16 -65 -53 -74 -174 -8 -112 -21 -144 -98 -255 -45 -65 -183 -231 -191 -231 -3 0 -2 116 1 257 6 283 3 299 -53 328 -35 18 -60 19 -94 4 -20 -10 -357 -357 -463 -478 -17 -20 -33 -34 -35 -31 -10 11 -313 710 -353 815 -63 162 -62 150 -17 180 90 59 308 133 442 150 43 5 69 2 115 -13 33 -11 61 -19 62 -18 12 11 80 183 76 190 -3 4 -26 18 -52 29 -53 24 -210 32 -301 16z m2536 -286 c50 -52 85 -126 91 -193 11 -113 -50 -309 -121 -395 l-25 -30 -1 328 c0 200 4 327 10 327 5 0 25 -17 46 -37z m-2532 -1569 c20 -53 34 -99 31 -103 -4 -3 -59 -8 -122 -10 -107 -3 -115 -2 -109 14 7 20 148 194 157 194 4 1 23 -42 43 -95z"/>
        <path d="M11174 4949 c-4 -7 -7 -75 -7 -151 1 -76 0 -138 -3 -138 -3 0 -37 27 -75 60 -84 72 -146 113 -163 107 -22 -9 -130 -157 -120 -166 5 -4 62 -42 126 -84 64 -43 119 -81 122 -86 3 -4 -45 -46 -107 -93 -105 -79 -112 -86 -110 -117 1 -32 41 -93 74 -114 12 -7 42 8 123 63 59 39 108 70 110 69 1 -2 -1 -47 -4 -100 -3 -53 -3 -109 0 -125 5 -29 7 -29 93 -38 48 -5 91 -6 94 -2 3 3 8 52 10 108 2 57 6 114 9 126 5 24 5 24 47 -11 23 -19 71 -53 106 -76 l65 -41 44 42 c24 24 53 58 64 77 l21 34 -30 27 c-17 16 -62 46 -100 68 -38 22 -79 49 -92 59 l-23 19 95 57 c53 32 119 79 148 105 59 54 59 57 -8 139 -53 66 -68 65 -157 -6 -42 -33 -97 -75 -123 -92 l-46 -32 7 145 7 144 -42 13 c-69 21 -145 26 -155 10z"/>
        <path d="M4095 4908 c-51 -40 -57 -72 -50 -267 3 -97 10 -368 16 -603 10 -417 10 -428 -9 -455 -46 -66 -65 -118 -66 -178 0 -72 23 -122 86 -183 169 -165 491 -69 678 203 81 117 145 301 157 448 3 42 11 81 17 86 13 10 235 131 242 131 2 0 4 -137 4 -305 0 -328 4 -355 51 -389 36 -25 101 -21 130 8 13 14 96 151 184 305 88 154 163 277 166 273 3 -4 54 -154 113 -334 118 -363 121 -368 202 -368 80 0 83 4 199 394 58 192 107 351 109 353 3 3 36 -22 75 -56 39 -33 81 -67 94 -75 20 -13 23 -25 25 -87 4 -142 74 -322 158 -406 65 -64 136 -94 226 -95 147 0 272 83 381 253 40 63 87 154 87 169 0 9 -179 105 -184 98 -2 -2 -22 -40 -46 -85 -101 -192 -224 -268 -307 -191 -33 31 -68 101 -87 175 -20 76 -20 76 4 70 10 -3 54 -1 96 4 104 11 189 52 262 126 72 72 103 137 110 224 4 56 1 75 -20 120 -74 160 -262 218 -442 136 -88 -41 -133 -97 -197 -246 l-15 -33 -104 105 c-108 109 -144 132 -190 122 -55 -12 -69 -43 -151 -317 -44 -145 -79 -269 -79 -275 0 -44 -26 21 -110 274 -82 247 -99 290 -123 307 -38 28 -99 27 -129 -1 -13 -12 -77 -117 -143 -233 -66 -115 -123 -210 -127 -210 -4 0 -8 93 -10 206 l-3 206 -33 29 c-52 47 -81 41 -271 -56 -92 -47 -170 -85 -174 -85 -4 0 -7 8 -7 18 0 27 -49 170 -77 227 -111 219 -316 393 -547 464 -88 27 -136 27 -171 -1z m239 -262 c128 -73 225 -175 287 -303 40 -82 78 -226 67 -254 -3 -9 -55 -46 -115 -83 -59 -37 -148 -96 -198 -131 l-90 -65 -6 123 c-11 211 -20 747 -13 747 4 0 35 -15 68 -34z m2636 -426 c38 -20 43 -47 20 -94 -32 -68 -119 -116 -207 -116 -42 0 -43 1 -37 28 12 48 34 106 50 130 34 52 124 79 174 52z m-2305 -477 c-42 -146 -168 -310 -279 -363 -96 -46 -201 -22 -181 41 10 31 123 148 200 208 102 79 270 189 273 180 2 -5 -4 -35 -13 -66z"/>
        <path d="M7203 4765 c-81 -35 -105 -100 -60 -166 27 -40 122 -119 191 -159 45 -26 52 -28 77 -15 48 25 52 71 13 148 -45 90 -114 178 -150 193 -39 16 -31 17 -71 -1z"/>
        <path d="M5265 4748 c-64 -35 -105 -96 -105 -157 0 -64 32 -93 107 -99 139 -10 196 50 162 172 -16 58 -58 96 -106 96 -21 0 -47 -6 -58 -12z"/>
        <path d="M10447 4545 c-89 -51 -39 -256 63 -255 45 1 108 37 139 81 40 54 42 115 7 156 -22 25 -31 28 -103 31 -56 2 -86 -2 -106 -13z"/>
        <path d="M7550 4353 c0 -16 5 -263 10 -551 11 -555 12 -566 59 -592 11 -5 38 -10 60 -10 63 0 83 26 147 195 54 143 119 298 179 430 26 57 28 59 35 33 5 -15 15 -93 25 -175 9 -81 21 -161 27 -176 17 -45 90 -71 143 -51 16 6 330 393 323 398 -2 1 -38 30 -80 64 -42 34 -80 62 -85 62 -4 0 -32 -31 -62 -70 -29 -38 -56 -70 -60 -70 -4 0 -14 33 -21 72 -16 89 -42 168 -75 224 -19 32 -36 47 -70 60 -97 37 -158 -13 -266 -220 l-64 -121 -3 263 -2 262 -110 0 -110 0 0 -27z"/>
    </g>
</svg>
