<?xml version="1.0" standalone="no"?>
<!DOCTYPE svg PUBLIC "-//W3C//DTD SVG 20010904//EN" "http://www.w3.org/TR/2001/REC-SVG-20010904/DTD/svg10.dtd">
<svg version="1.0" id="main"
    xmlns="http://www.w3.org/2000/svg"
    xmlns:xlink="http://www.w3.org/1999/xlink" viewBox="0 0 225 225" preserveAspectRatio="xMidYMid meet">
    <g transform="translate(0,225) scale(0.100000,-0.100000)" stroke="none">
        <path d="M1039 2068 c-425 -32 -780 -366 -854 -802 -10 -61 -8 -236 5 -307 66 -376 345 -670 728 -766 107 -27 333 -24 442 5 373 101 640 391 706 767 39 220 -8 461 -128 655 -190 309 -527 477 -899 448z m371 -248 c0 -6 -100 -10 -280 -10 -180 0 -280 4 -280 10 0 6 100 10 280 10 180 0 280 -4 280 -10z m0 -40 c0 -6 -100 -10 -280 -10 -180 0 -280 4 -280 10 0 6 100 10 280 10 180 0 280 -4 280 -10z m-5 -50 c-4 -6 -108 -10 -281 -10 -176 0 -274 4 -274 10 0 6 100 10 281 10 184 0 278 -3 274 -10z m-700 -137 l28 -46 20 39 c11 21 25 42 31 46 16 11 76 10 76 -1 0 -5 -20 -42 -45 -82 -39 -63 -45 -81 -45 -127 l0 -53 -37 3 -38 3 -3 53 c-2 43 -12 68 -47 124 -24 39 -42 75 -39 80 3 4 20 8 39 8 29 0 37 -6 60 -47z m333 33 c90 -47 103 -158 27 -225 -30 -26 -44 -31 -87 -31 -45 0 -54 4 -89 39 -34 34 -39 44 -39 85 0 26 7 60 15 77 31 60 113 86 173 55z m180 -76 c3 -91 11 -110 48 -110 28 0 33 15 36 120 l3 75 35 0 35 0 3 -60 c8 -146 -26 -205 -118 -205 -44 0 -56 4 -81 29 -28 29 -29 32 -29 136 l0 106 33 -3 32 -3 3 -85z m388 58 c32 -31 37 -97 10 -126 -21 -24 -20 -29 9 -64 34 -40 32 -48 -14 -48 -34 0 -44 5 -73 42 l-33 42 -5 -39 c-5 -38 -7 -40 -42 -43 l-38 -3 0 129 c0 71 3 132 8 136 4 4 40 6 79 4 63 -3 77 -7 99 -30z m-703 -279 c78 -21 146 -111 147 -192 0 -72 -48 -150 -115 -184 -43 -23 -122 -20 -173 6 -154 79 -129 322 38 369 47 14 59 14 103 1z m482 -24 c23 -13 47 -35 55 -49 12 -24 12 -28 -6 -41 -51 -38 -61 -39 -94 -11 -42 35 -83 34 -121 -3 -73 -74 11 -199 102 -151 30 16 23 30 -16 30 -35 0 -35 0 -35 45 l0 46 103 -3 102 -3 3 -33 c5 -47 -39 -131 -83 -161 -165 -111 -379 65 -296 244 52 112 178 152 286 90z m373 23 c92 -23 163 -130 145 -220 -20 -105 -96 -171 -198 -171 -217 0 -265 315 -59 388 49 18 55 18 112 3z m-1276 -140 l3 -143 88 -3 87 -3 0 -49 0 -50 -140 0 -140 0 0 195 0 195 50 0 49 0 3 -142z m246 -350 l3 -48 40 0 c38 0 39 1 39 38 0 50 11 64 46 60 l29 -3 3 -133 3 -133 -38 3 c-37 3 -38 4 -41 46 -3 42 -3 42 -43 42 l-39 0 0 -46 0 -45 -37 3 -38 3 -3 119 c-1 66 0 126 3 134 3 8 17 12 37 10 32 -3 33 -5 36 -50z m407 12 l0 -35 -62 -3 c-78 -4 -84 -22 -8 -22 l55 0 0 -35 0 -35 -55 0 c-41 0 -55 -4 -55 -15 0 -10 16 -15 63 -17 62 -3 62 -3 62 -33 l0 -30 -102 -3 -103 -3 0 129 c0 71 3 132 7 136 4 4 50 5 103 4 l95 -3 0 -35z m200 26 c18 -8 38 -23 44 -34 17 -32 13 -87 -8 -113 -19 -24 -19 -24 10 -60 16 -20 29 -40 29 -43 0 -3 -19 -6 -42 -6 -39 0 -46 5 -71 40 -32 46 -47 44 -47 -6 0 -32 -2 -34 -35 -34 l-35 0 0 135 0 135 60 0 c33 0 76 -6 95 -14z m293 -28 l3 -38 -60 0 c-34 0 -61 -4 -61 -10 0 -5 25 -10 55 -10 l55 0 0 -35 0 -35 -55 0 c-42 0 -55 -3 -55 -15 0 -12 13 -15 60 -15 l60 0 0 -35 0 -35 -100 0 -100 0 0 128 c0 71 3 132 7 136 4 4 48 5 98 4 l90 -3 3 -37z m-223 -328 c4 -7 -90 -10 -274 -10 -181 0 -281 4 -281 10 0 6 98 10 274 10 173 0 277 -4 281 -10z m0 -50 c-4 -6 -108 -10 -281 -10 -176 0 -274 4 -274 10 0 6 100 10 281 10 184 0 278 -3 274 -10z m5 -40 c0 -6 -100 -10 -280 -10 -180 0 -280 4 -280 10 0 6 100 10 280 10 180 0 280 -4 280 -10z"/>
        <path d="M947 1549 c-16 -12 -27 -30 -27 -45 0 -29 33 -64 60 -64 11 0 29 9 40 20 55 55 -13 137 -73 89z"/>
        <path d="M1500 1540 c0 -16 7 -20 30 -20 23 0 30 4 30 20 0 16 -7 20 -30 20 -23 0 -30 -4 -30 -20z"/>
        <path d="M803 1212 c-36 -28 -48 -74 -28 -115 29 -61 90 -74 136 -28 77 78 -23 210 -108 143z"/>
        <path d="M1653 1206 c-23 -20 -28 -32 -28 -71 0 -39 5 -51 28 -71 15 -13 37 -24 48 -24 65 0 113 72 89 131 -26 61 -88 77 -137 35z"/>
        <path d="M1252 788 c4 -25 41 -34 58 -13 17 20 4 35 -31 35 -25 0 -30 -4 -27 -22z"/>
    </g>
</svg>
